<svg xmlns="http://www.w3.org/2000/svg" baseProfile="tiny" version="1.2" viewBox="0 0 256 256"><g fill="none" stroke-width="2"><path stroke="#80ae7d" d="M185.09 13.55q-27.79 14.13-50.3 34.68" vector-effect="non-scaling-stroke"/><path stroke="#3571d9" d="M134.79 48.23q-4.18.26-7.51 1.75" vector-effect="non-scaling-stroke"/><path stroke="#4487f2" d="M127.28 49.98q-17.55 4.18-34.41 8.74-8.03 2.17-11.05 4.63-7.41 6.04-3.39 17.38" vector-effect="non-scaling-stroke"/><path stroke="#3571d9" d="M78.43 80.73q.89 1.47 4.19 4.9 9.29 9.65 19.33 19.14" vector-effect="non-scaling-stroke"/><path stroke="#7bd4f0" d="M87.77 130.23q-14.82-1.22-26.83 9.04" vector-effect="non-scaling-stroke"/><path stroke="#00a4dc" d="M60.94 139.27q-2.63-4.1-8.77-9.71-4.95-4.53-2.2-11.17" vector-effect="non-scaling-stroke"/><path stroke="#80dbf8" d="M49.97 118.39q2.5 4.66 6.27 4.65 4.94 0 6.36-4.23c2.34-6.97-5.75-12.16-11.21-6.64" vector-effect="non-scaling-stroke"/><path stroke="#00a4dc" d="M51.39 112.17q-.25-2.29-.44-4.45c-1.07-12.32-9.99-21.27-22.46-23.08q-2.84-.41-3.71.41" vector-effect="non-scaling-stroke"/><path stroke="#7bd4f0" d="M24.78 85.05q-6.83-4.38-15.87-3.98" vector-effect="non-scaling-stroke"/><path stroke="#80dbf8" d="M56.61 92.23a3.36 3.36 0 0 0-3.36-3.36 3.36 3.36 0 0 0-3.36 3.36 3.36 3.36 0 0 0 3.36 3.36 3.36 3.36 0 0 0 3.36-3.36" vector-effect="non-scaling-stroke"/><path stroke="#00a4dc" d="M71.07 95.29a3.27 3.27 0 0 0-3.27-3.27 3.27 3.27 0 0 0-3.27 3.27 3.27 3.27 0 0 0 3.27 3.27 3.27 3.27 0 0 0 3.27-3.27m6.45 24.21a6.48 6.48 0 0 0-6.48-6.48 6.48 6.48 0 0 0-6.48 6.48 6.48 6.48 0 0 0 6.48 6.48 6.48 6.48 0 0 0 6.48-6.48" vector-effect="non-scaling-stroke"/><path stroke="#7941db" d="M248.15 9.46c-.23 4.26-.65 8.09-5.58 8.87q-5.24.83-10.17 2.49-8.75 2.94-8.18 12.09c.12 1.95.81 4 2.15 5.47q3.36 3.69 6.76 6.87 2.33 2.17 2.9 4.55.76 3.18-1.76 6.08" vector-effect="non-scaling-stroke"/><path stroke="#b56866" d="M234.27 55.88 189.9 11.39" vector-effect="non-scaling-stroke"/><path stroke="#c37e7e" d="M234.57 56.15q-.18-.08-.3-.27" vector-effect="non-scaling-stroke"/><path stroke="#ffb506" d="M234.57 56.15q-.9-.12-.94.45-6.61.86-12.3-2.03c-2.77-1.4-4.89-3.69-7.21-5.71q-3.96-3.47-8.6-5.24-6.96-2.66-8.55 2.48" vector-effect="non-scaling-stroke"/><path stroke="#ffd284" d="M196.97 46.1q-13.07-7.07-25.5-2.6-9.91 3.56-15.55 11.91c-7.63 11.27-6.66 27.11 2.61 37.25 10 10.93 25.81 13.57 38.78 5.7" vector-effect="non-scaling-stroke"/><path stroke="#ffb506" d="M197.31 98.36q1.21-.2.06 1.2-.31.38-.72.67-5.84 4.17-11.02 5.78-14.93 4.65-27.56-4.41c-2.36-1.7-4.21-4.11-6.53-5.76q-5.38-3.82-12.15-2.93c-7.59 1-12.49 5.86-15.06 13.08q-3.18 8.91-3.55 15.76-.14 2.56.29 10.75" vector-effect="non-scaling-stroke"/><path stroke="#b56866" d="m118.88 130.62-15.78-15.8m-1.15-10.05q1.25-16.55 10.14-30.14 5.77-8.82 12.99-16.56 4.57-4.89 9.71-9.84" vector-effect="non-scaling-stroke"/><path stroke="#ffe281" d="M196.97 46.1c19.57 12.49 19.9 39.24.34 52.26" vector-effect="non-scaling-stroke"/><path stroke="#80dbf8" d="M168.89 89.85a21.42 21.4 59.3 0 0 14.87 3.79 21.37 21.34 18 0 0 13.18-6.7 21.4 21.4 0 0 0 5.71-14.68 21.4 21.4 0 0 0-9.36-17.58" vector-effect="non-scaling-stroke"/><path stroke="#80c8e4" d="M193.29 54.68a21.41 21.41 0 0 0-21.07-1.7 21.39 21.38 78.7 0 0-12.35 18.54 21.4 21.38-71.2 0 0 9.02 18.33" vector-effect="non-scaling-stroke"/><path stroke="#00a4dc" d="M193.29 54.68q.2 4.62-3.79 4.82a.8.8 0 0 0-.68 1.15c.62 1.26 1.65 2.36 1.69 3.82q.1 3.61-3.41 4.63c-4.72 1.37-6.35-5.96-10.54-4.02-3.43 1.6-2.65 5.07-.41 7.22q2.69 2.59 5.23 5.11c1.39 1.38 2.25 3.1 1.47 5.09q-1.18 3-4.18 3.06c-1.88.04-3.19-1.14-4.69-2.07a1.31 1.28 54.1 0 0-.98-.17c-3.16.67-2.51 2.53-2.66 4.92q-.09 1.41-1.45 1.61" vector-effect="non-scaling-stroke"/><path stroke="#7fab65" d="M240.74 67.4q-14.29 28.67-35.78 51.87" vector-effect="non-scaling-stroke"/><path stroke="#b47862" d="M204.96 119.27c-15.28 15.63-32.82 31.07-55.89 32.34" vector-effect="non-scaling-stroke"/><path stroke="#7fab65" d="M149.07 151.61q-5.92.37-11.03-1.71" vector-effect="non-scaling-stroke"/><path stroke="#7941db" d="M78.43 80.73q1.42-5.62 5.74-5.34c2.46.16 3.76 2.47 5.89 3.41q4.12 1.82 6.83-.06 1.33-.93 4.02-5.1 9.58-14.82 26.37-23.66" vector-effect="non-scaling-stroke"/><path stroke="#00a4dc" d="M248.16 83.95q-.95-.35-1.5 1.5-.34 1.19-1 2.25-10.92 17.85-24.93 33.22-.72.8-.99 1.82-6.41 24.08-12.29 45.82c-2.96 10.92-15.28 13.96-23.8 6.89" vector-effect="non-scaling-stroke"/><path stroke="#4474de" d="M183.65 175.45c5.62-1.59 8.52-6.25 9.91-11.69q5.19-20.35 10.92-40.56a1.78 1.78 0 0 0 0-.98q-.14-.46.01-.7" vector-effect="non-scaling-stroke"/><path stroke="#355ec5" d="M204.49 121.52q.64-1.28.47-2.25" vector-effect="non-scaling-stroke"/><path stroke="#faf8f8" d="M31.1 90.97q.21 6.03-3.47 7.13-1.77.53-4.57-.3-8.7-2.57-16.84.9a.96.96 0 0 1-1.31-1.12Q6.5 91.3 8.65 85.06a1.12 1.11 29.8 0 0-.34-1.23q-.07-.05-.57.16" vector-effect="non-scaling-stroke"/><path stroke="#80c8e4" d="M31.1 90.97q8.48 11.37 3.89 25.3-1.24 3.79.51 7.24.74 1.46 4.56 4.95 3.48 3.17 5.98 7.24" vector-effect="non-scaling-stroke"/><path stroke="#faf8f8" d="M46.04 135.7q-.84.5-2.19.55a2.3 2.3 0 0 0-2.22 2.28q-.01 2.2 1.95 3.99c3.86 3.51 6.57 6.75 8.83 11.45 1.96 4.07 5.96 5.65 10.2 3.96a2.03 1.95 6.5 0 0 .85-.65q1.73-2.31 3.99-2.76" vector-effect="non-scaling-stroke"/><path stroke="#ffd284" d="M67.45 154.52q-7.58 11.16-9.59 21.8-.94 4.98-3 21.73" vector-effect="non-scaling-stroke"/><path stroke="#faf8f8" d="M54.86 198.05c-1.14 3.1-2.75 9.83 1.84 10.65q.35.06 4.09-.42 4.83-.61 9.46-1.24 15.65-2.13 28.05-11.73 6.4-4.95 9.49-10.53 3.09-5.57 1.78-11.64" vector-effect="non-scaling-stroke"/><path stroke="#ffe281" d="M109.57 173.14q4.77-11.49-2.02-22.69" vector-effect="non-scaling-stroke"/><path stroke="#80c8e4" d="M122.68 165.3q.65 15.44-9.38 26.65-2.75 3.06-3.12 4.68-.88 3.85 2.03 6.25 1.16.95 4.64 1.77 2.41.56 5.03 1.69" vector-effect="non-scaling-stroke"/><path stroke="#faf8f8" d="M121.88 206.34q-7.22 1.84-6.9 7.66c.16 2.8 2.38 5.28 5.2 5.84q12.66 2.48 20.68 12.89c3.37 4.35 8.27 5.43 13.63 4.43q6.25-1.16 14.97 3.2 2.7 1.35 5.65-2.23" vector-effect="non-scaling-stroke"/><path stroke="#80c8e4" d="M175.11 238.13q1.32 4.31 1.19 8.51" vector-effect="non-scaling-stroke"/><path stroke="#00a4dc" d="M230.68 204.35q1.43-7.54-2.5-12.28c-4.54-5.47-12.58-6.31-17.85-1.32q-7.94 7.52-17.51 14.13-4.32 2.98-9.09.73c-2.59-1.22-5 .48-5.38 3.17q-.67 4.76-5.22 6.74-7.37 3.2-15.61 6.24m-5.9-.6q-1.68-1.48-2.79-2.72-7.97-8.98-20.06-11.15-1.92-.34-3.2-2.51c-2.02-3.42-1.24-6.13 1.27-8.72q10.5-10.87 10.45-27.58 0-.46.33-.78l13.64-13.6" vector-effect="non-scaling-stroke"/><path stroke="#4487f2" d="M172.15 174.77q6.14 2.6 11.5.68" vector-effect="non-scaling-stroke"/><path stroke="#80dbf8" d="M152.17 203.07a5.11 5.11 0 0 0-5.11-5.11 5.11 5.11 0 0 0-5.11 5.11 5.11 5.11 0 0 0 5.11 5.11 5.11 5.11 0 0 0 5.11-5.11m14.14 5.21q2.2.18 3.17-1.55c1.03-1.84.15-4.37-2.19-4.54q-1.06-.08-1.95.05" vector-effect="non-scaling-stroke"/><path stroke="#00a4dc" d="M165.34 202.24q-4-2.05-6.62-.06c-2.6 1.97-2.77 5.71-.23 7.83q3.09 2.58 6.79-.39.39-.3.8-.57.4-.25.23-.77" vector-effect="non-scaling-stroke"/><path stroke="#80c8e4" d="M165.34 202.24c-2.53 2.16-2.08 4.88.97 6.04M51.39 112.17q-1.86 2.71-1.42 6.22" vector-effect="non-scaling-stroke"/><path stroke="#7bc1dc" d="M60.94 139.27q-.88.83-2.18 1.94c-2.76 2.35-6.47 2.33-9.2.04-1.55-1.3-2.45-3.68-3.52-5.55" vector-effect="non-scaling-stroke"/><path stroke="#7941db" d="M118.88 130.62q-3.73-1.19-4.89-1.26-6.77-.39-10.35 5.74-2.22 3.8-.79 10.26m101.64-23.84q-1.73 4.91-5.19 10.54c-4.83 7.85-11.5 15.36-19.4 19.86-4.31 2.45-7.98 5.51-5.72 11.05.84 2.04 3.07 3.17 3.5 5.37q.92 4.79-5.53 6.43" vector-effect="non-scaling-stroke"/><path stroke="#355ec5" d="M151.26 154.1q-1.35-.97-2.19-2.49" vector-effect="non-scaling-stroke"/><path stroke="#fadb79" d="M102.23 144.94q-.6.24-2.61-.98" vector-effect="non-scaling-stroke"/><path stroke="#facb7d" d="M99.62 143.96q-9.1-4.7-18.7-1.07c-4.19 1.58-8.07 4.77-10.76 8.27q-2.04 2.66-2.71 3.36" vector-effect="non-scaling-stroke"/><path stroke="#ffb506" d="M99.62 143.96q-.04 7.07-4.85 7.82-2.05.32-2.47.55c-1.85 1.03-1.83 3.23-.58 4.75 4.74 5.76-2.63 12.57-8.09 7.35-2.2-2.11-4.84-5.35-8.28-3.01-3.16 2.15-3.42 5.73-.79 8.33q3.47 3.43 6.25 6.19 1.37 1.36 1.99 2.88c1.24 3.06-.8 6.33-3.91 7.08-3.19.77-5.54-1.81-7.54-3.92-2.59-2.73-6.83-2.05-8.15 1.5q-1.13 3.07-1.56 7.1-.19 1.75-1.14 3.54-.8 1.52-1.72 3.2" vector-effect="non-scaling-stroke"/><path stroke="#fadb79" d="M109.57 173.14c-1.58 2.57-3.04 5.04-5.21 7.1q-12.48 11.82-29.6 15.03-4.41.83-15.98 2.05" vector-effect="non-scaling-stroke"/><path stroke="#7bc1dc" d="M151.62 221.16c-2.77.23-5.71.99-8.15.51-3.25-.64-5.76-2.29-7.83-4.9q-2.53-3.18-5.48-5.67-3.86-3.26-8.28-4.76m53.23 31.79q-.49-2.27-2.22-5.08-5.06-8.25-15.37-11.29" vector-effect="non-scaling-stroke"/></g><path fill="#00b7f0" d="M122.4 0h11.31q27.18 1.51 51.38 13.55-27.79 14.13-50.3 34.68-4.18.26-7.51 1.75-17.55 4.18-34.41 8.74-8.03 2.17-11.05 4.63-7.41 6.04-3.39 17.38.89 1.47 4.19 4.9 9.29 9.65 19.33 19.14l1.15 10.05-15.33 15.41q-14.82-1.22-26.83 9.04-2.63-4.1-8.77-9.71-4.95-4.53-2.2-11.17 2.5 4.66 6.27 4.65 4.94 0 6.36-4.23c2.34-6.97-5.75-12.16-11.21-6.64q-.25-2.29-.44-4.45c-1.07-12.32-9.99-21.27-22.46-23.08q-2.84-.41-3.71.41-6.83-4.38-15.87-3.98 9.91-24.82 27.84-42.82Q71.76 3.09 122.4 0ZM56.61 92.23a3.36 3.36 0 0 0-3.36-3.36 3.36 3.36 0 0 0-3.36 3.36 3.36 3.36 0 0 0 3.36 3.36 3.36 3.36 0 0 0 3.36-3.36Zm14.46 3.06a3.27 3.27 0 0 0-3.27-3.27 3.27 3.27 0 0 0-3.27 3.27 3.27 3.27 0 0 0 3.27 3.27 3.27 3.27 0 0 0 3.27-3.27Zm6.45 24.21a6.48 6.48 0 0 0-6.48-6.48 6.48 6.48 0 0 0-6.48 6.48 6.48 6.48 0 0 0 6.48 6.48 6.48 6.48 0 0 0 6.48-6.48Z"/><path fill="#6a2bc2" d="M248.15 9.46c-.23 4.26-.65 8.09-5.58 8.87q-5.24.83-10.17 2.49-8.75 2.94-8.18 12.09c.12 1.95.81 4 2.15 5.47q3.36 3.69 6.76 6.87 2.33 2.17 2.9 4.55.76 3.18-1.76 6.08L189.9 11.39q17.92-8.81 35.58-10.37 4.71-.42 10.77.86 7.5 1.59 11.9 7.58Z"/><path fill="#8757f3" d="M248.15 9.46q3.5 5.08 4.11 10.81c.47 4.39.44 9.38-.36 13.95q-2.65 15.26-9.65 29.54l-7.68-7.61q-.18-.08-.3-.27 2.52-2.9 1.76-6.08-.57-2.38-2.9-4.55-3.4-3.18-6.76-6.87c-1.34-1.47-2.03-3.52-2.15-5.47q-.57-9.15 8.18-12.09 4.93-1.66 10.17-2.49c4.93-.78 5.35-4.61 5.58-8.87Z"/><path fill="#ffa509" d="m189.9 11.39 44.37 44.49q.12.19.3.27-.9-.12-.94.45-6.61.86-12.3-2.03c-2.77-1.4-4.89-3.69-7.21-5.71q-3.96-3.47-8.6-5.24-6.96-2.66-8.55 2.48-13.07-7.07-25.5-2.6-9.91 3.56-15.55 11.91c-7.63 11.27-6.66 27.11 2.61 37.25 10 10.93 25.81 13.57 38.78 5.7q1.21-.2.06 1.2-.31.38-.72.67-5.84 4.17-11.02 5.78-14.93 4.65-27.56-4.41c-2.36-1.7-4.21-4.11-6.53-5.76q-5.38-3.82-12.15-2.93c-7.59 1-12.49 5.86-15.06 13.08q-3.18 8.91-3.55 15.76-.14 2.56.29 10.75l-2.19-1.88-15.78-15.8-1.15-10.05q1.25-16.55 10.14-30.14 5.77-8.82 12.99-16.56 4.57-4.89 9.71-9.84 22.51-20.55 50.3-34.68l4.81-2.16Z"/><path fill="#fff" d="M196.97 46.1c19.57 12.49 19.9 39.24.34 52.26-12.97 7.87-28.78 5.23-38.78-5.7-9.27-10.14-10.24-25.98-2.61-37.25q5.64-8.35 15.55-11.91 12.43-4.47 25.5 2.6Zm-28.08 43.75a21.42 21.4 59.3 0 0 14.87 3.79 21.37 21.34 18 0 0 13.18-6.7 21.4 21.4 0 0 0 5.71-14.68 21.4 21.4 0 0 0-9.36-17.58 21.41 21.41 0 0 0-21.07-1.7 21.39 21.38 78.7 0 0-12.35 18.54 21.4 21.38-71.2 0 0 9.02 18.33Z"/><path fill="#fec502" d="m234.57 56.15 7.68 7.61-1.51 3.64q-14.29 28.67-35.78 51.87c-15.28 15.63-32.82 31.07-55.89 32.34q-5.92.37-11.03-1.71l-16.97-17.4q-.43-8.19-.29-10.75.37-6.85 3.55-15.76c2.57-7.22 7.47-12.08 15.06-13.08q6.77-.89 12.15 2.93c2.32 1.65 4.17 4.06 6.53 5.76q12.63 9.06 27.56 4.41 5.18-1.61 11.02-5.78.41-.29.72-.67 1.15-1.4-.06-1.2c19.56-13.02 19.23-39.77-.34-52.26q1.59-5.14 8.55-2.48 4.64 1.77 8.6 5.24c2.32 2.02 4.44 4.31 7.21 5.71q5.69 2.89 12.3 2.03.04-.57.94-.45Z"/><path fill="#6a2bc2" d="M134.79 48.23q-5.14 4.95-9.71 9.84-7.22 7.74-12.99 16.56-8.89 13.59-10.14 30.14-10.04-9.49-19.33-19.14-3.3-3.43-4.19-4.9 1.42-5.62 5.74-5.34c2.46.16 3.76 2.47 5.89 3.41q4.12 1.82 6.83-.06 1.33-.93 4.02-5.1 9.58-14.82 26.37-23.66 3.33-1.49 7.51-1.75Z"/><path fill="#8757f3" d="M127.28 49.98q-16.79 8.84-26.37 23.66-2.69 4.17-4.02 5.1-2.71 1.88-6.83.06c-2.13-.94-3.43-3.25-5.89-3.41q-4.32-.28-5.74 5.34-4.02-11.34 3.39-17.38 3.02-2.46 11.05-4.63 16.86-4.56 34.41-8.74Z"/><path fill="#0091c8" d="M193.29 54.68q.2 4.62-3.79 4.82a.8.8 0 0 0-.68 1.15c.62 1.26 1.65 2.36 1.69 3.82q.1 3.61-3.41 4.63c-4.72 1.37-6.35-5.96-10.54-4.02-3.43 1.6-2.65 5.07-.41 7.22q2.69 2.59 5.23 5.11c1.39 1.38 2.25 3.1 1.47 5.09q-1.18 3-4.18 3.06c-1.88.04-3.19-1.14-4.69-2.07a1.31 1.28 54.1 0 0-.98-.17c-3.16.67-2.51 2.53-2.66 4.92q-.09 1.41-1.45 1.61a21.4 21.38-71.2 0 1-9.02-18.33 21.39 21.38 78.7 0 1 12.35-18.54 21.41 21.41 0 0 1 21.07 1.7Z"/><path fill="#00b7f0" d="M193.29 54.68a21.4 21.4 0 0 1 9.36 17.58 21.4 21.4 0 0 1-5.71 14.68 21.37 21.34 18 0 1-13.18 6.7 21.42 21.4 59.3 0 1-14.87-3.79q1.36-.2 1.45-1.61c.15-2.39-.5-4.25 2.66-4.92a1.31 1.28 54.1 0 1 .98.17c1.5.93 2.81 2.11 4.69 2.07q3-.06 4.18-3.06c.78-1.99-.08-3.71-1.47-5.09q-2.54-2.52-5.23-5.11c-2.24-2.15-3.02-5.62.41-7.22 4.19-1.94 5.82 5.39 10.54 4.02q3.51-1.02 3.41-4.63c-.04-1.46-1.07-2.56-1.69-3.82a.8.8 0 0 1 .68-1.15q3.99-.2 3.79-4.82Z"/><path fill="#0091c8" d="M240.74 67.4q4.59 8.43 7.42 16.55-.95-.35-1.5 1.5-.34 1.19-1 2.25-10.92 17.85-24.93 33.22-.72.8-.99 1.82-6.41 24.08-12.29 45.82c-2.96 10.92-15.28 13.96-23.8 6.89 5.62-1.59 8.52-6.25 9.91-11.69q5.19-20.35 10.92-40.56a1.78 1.78 0 0 0 0-.98q-.14-.46.01-.7.64-1.28.47-2.25 21.49-23.2 35.78-51.87Z"/><path fill="#f5f0f0" d="M8.91 81.07q9.04-.4 15.87 3.98l6.32 5.92q.21 6.03-3.47 7.13-1.77.53-4.57-.3-8.7-2.57-16.84.9a.96.96 0 0 1-1.31-1.12Q6.5 91.3 8.65 85.06a1.12 1.11 29.8 0 0-.34-1.23q-.07-.05-.57.16l1.17-2.92Z"/><path fill="#fff" d="M7.74 83.99q.5-.21.57-.16a1.12 1.11 29.8 0 1 .34 1.23Q6.5 91.3 4.91 97.58a.96.96 0 0 0 1.31 1.12q8.14-3.47 16.84-.9 2.8.83 4.57.3 3.68-1.1 3.47-7.13 8.48 11.37 3.89 25.3-1.24 3.79.51 7.24.74 1.46 4.56 4.95 3.48 3.17 5.98 7.24-.84.5-2.19.55a2.3 2.3 0 0 0-2.22 2.28q-.01 2.2 1.95 3.99c3.86 3.51 6.57 6.75 8.83 11.45 1.96 4.07 5.96 5.65 10.2 3.96a2.03 1.95 6.5 0 0 .85-.65q1.73-2.31 3.99-2.76-7.58 11.16-9.59 21.8-.94 4.98-3 21.73c-1.14 3.1-2.75 9.83 1.84 10.65q.35.06 4.09-.42 4.83-.61 9.46-1.24 15.65-2.13 28.05-11.73 6.4-4.95 9.49-10.53 3.09-5.57 1.78-11.64 4.77-11.49-2.02-22.69l15.13 14.85q.65 15.44-9.38 26.65-2.75 3.06-3.12 4.68-.88 3.85 2.03 6.25 1.16.95 4.64 1.77 2.41.56 5.03 1.69-7.22 1.84-6.9 7.66c.16 2.8 2.38 5.28 5.2 5.84q12.66 2.48 20.68 12.89c3.37 4.35 8.27 5.43 13.63 4.43q6.25-1.16 14.97 3.2 2.7 1.35 5.65-2.23 1.32 4.31 1.19 8.51-20.5 8.02-42.69 9.36h-11.33q-47.38-2.82-80.94-33.84Q3.3 186.99 0 133.61v-11.35q.46-3.24.74-6.5 1.41-16.4 7-31.77Z"/><path fill="#00b7f0" d="M248.16 83.95q6.7 18.62 7.84 38.44v11.31q-2.22 39.3-25.32 70.65 1.43-7.54-2.5-12.28c-4.54-5.47-12.58-6.31-17.85-1.32q-7.94 7.52-17.51 14.13-4.32 2.98-9.09.73c-2.59-1.22-5 .48-5.38 3.17q-.67 4.76-5.22 6.74-7.37 3.2-15.61 6.24l-5.9-.6q-1.68-1.48-2.79-2.72-7.97-8.98-20.06-11.15-1.92-.34-3.2-2.51c-2.02-3.42-1.24-6.13 1.27-8.72q10.5-10.87 10.45-27.58 0-.46.33-.78l13.64-13.6 20.89 20.67q6.14 2.6 11.5.68c8.52 7.07 20.84 4.03 23.8-6.89q5.88-21.74 12.29-45.82.27-1.02.99-1.82 14.01-15.37 24.93-33.22.66-1.06 1-2.25.55-1.85 1.5-1.5Zm-95.99 119.12a5.11 5.11 0 0 0-5.11-5.11 5.11 5.11 0 0 0-5.11 5.11 5.11 5.11 0 0 0 5.11 5.11 5.11 5.11 0 0 0 5.11-5.11Zm14.14 5.21q2.2.18 3.17-1.55c1.03-1.84.15-4.37-2.19-4.54q-1.06-.08-1.95.05-4-2.05-6.62-.06c-2.6 1.97-2.77 5.71-.23 7.83q3.09 2.58 6.79-.39.39-.3.8-.57.4-.25.23-.77Z"/><path fill="#0091c8" d="M51.39 112.17q-1.86 2.71-1.42 6.22-2.75 6.64 2.2 11.17 6.14 5.61 8.77 9.71-.88.83-2.18 1.94c-2.76 2.35-6.47 2.33-9.2.04-1.55-1.3-2.45-3.68-3.52-5.55q-2.5-4.07-5.98-7.24-3.82-3.49-4.56-4.95-1.75-3.45-.51-7.24 4.59-13.93-3.89-25.3l-6.32-5.92q.87-.82 3.71-.41c12.47 1.81 21.39 10.76 22.46 23.08q.19 2.16.44 4.45Z"/><circle cx="53.25" cy="92.23" r="3.36" fill="#fff"/><circle cx="67.8" cy="95.29" r="3.27" fill="#0091c8"/><path fill="#fff" d="M49.97 118.39q-.44-3.51 1.42-6.22c5.46-5.52 13.55-.33 11.21 6.64q-1.42 4.23-6.36 4.23-3.77.01-6.27-4.65Z"/><circle cx="71.04" cy="119.5" r="6.48" fill="#0091c8"/><path fill="#6a2bc2" d="m103.1 114.82 15.78 15.8q-3.73-1.19-4.89-1.26-6.77-.39-10.35 5.74-2.22 3.8-.79 10.26l-15.08-15.13 15.33-15.41Zm101.86 4.45q.17.97-.47 2.25-1.73 4.91-5.19 10.54c-4.83 7.85-11.5 15.36-19.4 19.86-4.31 2.45-7.98 5.51-5.72 11.05.84 2.04 3.07 3.17 3.5 5.37q.92 4.79-5.53 6.43l-20.89-20.67q-1.35-.97-2.19-2.49c23.07-1.27 40.61-16.71 55.89-32.34Z"/><path fill="#8757f3" d="M204.49 121.52q-.15.24-.01.7a1.78 1.78 0 0 1 0 .98q-5.73 20.21-10.92 40.56c-1.39 5.44-4.29 10.1-9.91 11.69q-5.36 1.92-11.5-.68 6.45-1.64 5.53-6.43c-.43-2.2-2.66-3.33-3.5-5.37-2.26-5.54 1.41-8.6 5.72-11.05 7.9-4.5 14.57-12.01 19.4-19.86q3.46-5.63 5.19-10.54Zm-85.61 9.1 2.19 1.88 16.97 17.4-15.36 15.4-15.13-14.85-5.32-5.51.62.42q-1.43-6.46.79-10.26 3.58-6.13 10.35-5.74 1.16.07 4.89 1.26Z"/><path fill="#f5f0f0" d="m87.77 130.23 15.08 15.13-.62-.42q-.6.24-2.61-.98-9.1-4.7-18.7-1.07c-4.19 1.58-8.07 4.77-10.76 8.27q-2.04 2.66-2.71 3.36-2.26.45-3.99 2.76a2.03 1.95 6.5 0 1-.85.65c-4.24 1.69-8.24.11-10.2-3.96-2.26-4.7-4.97-7.94-8.83-11.45q-1.96-1.79-1.95-3.99a2.3 2.3 0 0 1 2.22-2.28q1.35-.05 2.19-.55c1.07 1.87 1.97 4.25 3.52 5.55 2.73 2.29 6.44 2.31 9.2-.04q1.3-1.11 2.18-1.94 12.01-10.26 26.83-9.04Z"/><path fill="#ffa509" d="M99.62 143.96q-.04 7.07-4.85 7.82-2.05.32-2.47.55c-1.85 1.03-1.83 3.23-.58 4.75 4.74 5.76-2.63 12.57-8.09 7.35-2.2-2.11-4.84-5.35-8.28-3.01-3.16 2.15-3.42 5.73-.79 8.33q3.47 3.43 6.25 6.19 1.37 1.36 1.99 2.88c1.24 3.06-.8 6.33-3.91 7.08-3.19.77-5.54-1.81-7.54-3.92-2.59-2.73-6.83-2.05-8.15 1.5q-1.13 3.07-1.56 7.1-.19 1.75-1.14 3.54-.8 1.52-1.72 3.2l-3.92.73q2.06-16.75 3-21.73 2.01-10.64 9.59-21.8.67-.7 2.71-3.36c2.69-3.5 6.57-6.69 10.76-8.27q9.6-3.63 18.7 1.07Z"/><path fill="#fec502" d="M99.62 143.96q2.01 1.22 2.61.98l5.32 5.51q6.79 11.2 2.02 22.69c-1.58 2.57-3.04 5.04-5.21 7.1q-12.48 11.82-29.6 15.03-4.41.83-15.98 2.05.92-1.68 1.72-3.2.95-1.79 1.14-3.54.43-4.03 1.56-7.1c1.32-3.55 5.56-4.23 8.15-1.5 2 2.11 4.35 4.69 7.54 3.92 3.11-.75 5.15-4.02 3.91-7.08q-.62-1.52-1.99-2.88-2.78-2.76-6.25-6.19c-2.63-2.6-2.37-6.18.79-8.33 3.44-2.34 6.08.9 8.28 3.01 5.46 5.22 12.83-1.59 8.09-7.35-1.25-1.52-1.27-3.72.58-4.75q.42-.23 2.47-.55 4.81-.75 4.85-7.82Z"/><path fill="#0091c8" d="M138.04 149.9q5.11 2.08 11.03 1.71.84 1.52 2.19 2.49l-13.64 13.6q-.33.32-.33.78.05 16.71-10.45 27.58c-2.51 2.59-3.29 5.3-1.27 8.72q1.28 2.17 3.2 2.51 12.09 2.17 20.06 11.15 1.11 1.24 2.79 2.72c-2.77.23-5.71.99-8.15.51-3.25-.64-5.76-2.29-7.83-4.9q-2.53-3.18-5.48-5.67-3.86-3.26-8.28-4.76-2.62-1.13-5.03-1.69-3.48-.82-4.64-1.77-2.91-2.4-2.03-6.25.37-1.62 3.12-4.68 10.03-11.21 9.38-26.65l15.36-15.4Z"/><path fill="#f5f0f0" d="M109.57 173.14q1.31 6.07-1.78 11.64-3.09 5.58-9.49 10.53-12.4 9.6-28.05 11.73-4.63.63-9.46 1.24-3.74.48-4.09.42c-4.59-.82-2.98-7.55-1.84-10.65l3.92-.73q11.57-1.22 15.98-2.05 17.12-3.21 29.6-15.03c2.17-2.06 3.63-4.53 5.21-7.1Z"/><path fill="#0091c8" d="M230.68 204.35q-21.36 28.46-54.38 42.29.13-4.2-1.19-8.51-.49-2.27-2.22-5.08-5.06-8.25-15.37-11.29 8.24-3.04 15.61-6.24 4.55-1.98 5.22-6.74c.38-2.69 2.79-4.39 5.38-3.17q4.77 2.25 9.09-.73 9.57-6.61 17.51-14.13c5.27-4.99 13.31-4.15 17.85 1.32q3.93 4.74 2.5 12.28Z"/><circle cx="147.06" cy="203.07" r="5.11" fill="#fff"/><path fill="#0091c8" d="M165.34 202.24c-2.53 2.16-2.08 4.88.97 6.04q.17.52-.23.77-.41.27-.8.57-3.7 2.97-6.79.39c-2.54-2.12-2.37-5.86.23-7.83q2.62-1.99 6.62.06Z"/><path fill="#fff" d="M165.34 202.24q.89-.13 1.95-.05c2.34.17 3.22 2.7 2.19 4.54q-.97 1.73-3.17 1.55c-3.05-1.16-3.5-3.88-.97-6.04Z"/><path fill="#f5f0f0" d="M121.88 206.34q4.42 1.5 8.28 4.76 2.95 2.49 5.48 5.67c2.07 2.61 4.58 4.26 7.83 4.9 2.44.48 5.38-.28 8.15-.51l5.9.6q10.31 3.04 15.37 11.29 1.73 2.81 2.22 5.08-2.95 3.58-5.65 2.23-8.72-4.36-14.97-3.2c-5.36 1-10.26-.08-13.63-4.43q-8.02-10.41-20.68-12.89c-2.82-.56-5.04-3.04-5.2-5.84q-.32-5.82 6.9-7.66Z"/></svg>