<?xml version="1.0" encoding="utf-8"?>
<!-- Generator: Adobe Illustrator 24.2.0, SVG Export Plug-In . SVG Version: 6.00 Build 0)  -->
<svg version="1.1" id="katman_1" xmlns="http://www.w3.org/2000/svg" xmlns:xlink="http://www.w3.org/1999/xlink" x="0px" y="0px"
	 viewBox="0 0 22.6 22.6" style="enable-background:new 0 0 22.6 22.6;" xml:space="preserve">
<style type="text/css">
	.st0{fill:#2C374B;}
	.st1{fill-rule:evenodd;clip-rule:evenodd;fill:#FFFFFF;}
	.st2{fill:#24A2EE;}
	.st3{fill-rule:evenodd;clip-rule:evenodd;fill:#98BCDC;}
	.st4{fill:#FFFFFF;}
</style>
<path class="st0" d="M11.3,22.6c6.3,0,11.3-5.1,11.3-11.3C22.6,5,17.5,0,11.3,0C5,0,0,5.1,0,11.3C0,17.5,5.1,22.6,11.3,22.6z"/>
<path class="st1" d="M17.5,7.2c-0.1-0.1-5-3-5.6-3.2c-0.2-0.1-0.7-0.2-1-0.1C10.6,4,5.4,7,5.2,7.2C5.1,7.3,5,7.5,4.9,7.6
	c-0.1,0.2-0.1,0.3-0.1,3.8V15l0.7,0.4c0.4,0.2,0.7,0.4,0.7,0.4c0.1,0,4.8-7.5,4.8-7.6s-1.1-0.1-1.4,0C9.2,8.3,8.9,8.5,8.7,8.7
	C8.6,8.8,8,9.8,7.2,10.9C6.5,12,5.9,13,5.9,13s0-1,0-2.4V8.1L6,8c0.2-0.2,5.3-3.1,5.5-3.1c0.1,0,0.2,0,1.4,0.7
	c0.4,0.2,1.5,0.8,2.4,1.4c0.9,0.5,1.7,1,1.8,1.1l0.1,0.1v5.2l-2.5-3.9c-0.1-0.2-0.2-0.4-0.3-0.5l0,0l0,0l0,0c0,0-0.1,0.2-0.7,1.2
	c-0.1,0.1-0.2,0.3-0.2,0.4l-0.1,0.2l0,0l0,0l0.1,0.1l0.1,0.1c0,0,0,0.1,0.1,0.1l0.2,0.3c0,0,0,0.1,0.1,0.1c0.1,0.1,0.2,0.3,0.2,0.4
	c0,0,0,0,0,0.1l2.1,3.4l-0.2,0.1c-0.1,0.1-0.2,0.1-0.3,0.1l-2.6-4l-0.1-0.1l-0.2,0.4l0,0l-1,1.6l0,0l2,3.2c-0.3,0.2-2,1.4-2.1,1.4
	s-2.4-1.5-2.3-1.6c0,0,0.7-1.2,1.5-2.6l0,0c0.7-1.2,1.6-2.7,2.2-3.7c0.7-1.2,1-1.8,1-1.8s-0.5,0-1.1,0h-1l-2.3,3.8
	c-0.8,1.4-1.6,2.7-2,3.4l0,0c-0.7,0.1-0.9,0.3-0.9,0.3l-0.1,0.2l1.8,1c1,0.6,1.9,1.1,2.1,1.2c0.3,0.2,0.8,0.2,1,0.2
	c0.2-0.1,5.4-3.1,5.7-3.3c0.1-0.1,0.2-0.2,0.3-0.4l0.1-0.3v-3.3V7.9l-0.1-0.2C17.7,7.5,17.5,7.3,17.5,7.2z M16.9,13.3L16.9,13.3
	L16.9,13.3L16.9,13.3z"/>
<path class="st2" d="M17,13.3l-3-4.6l-1.1,1.8l2.9,4.7l1.3-0.6L17,13.3z"/>
<path class="st2" d="M15.6,15.8l-3-4.6l-1.3,2l2.4,3.8l1.5-0.6L15.6,15.8z"/>
<path class="st3" d="M5.8,8.1l5.5-3.2l5.5,3.2v6.4l-5.5,3.2l-4.1-2.3l-0.5,0.9l4.5,2.6c0.1,0.1,0.2,0.1,0.3,0l6.3-3.6
	c0.1-0.1,0.2-0.2,0.2-0.3V7.8c0-0.1-0.1-0.2-0.2-0.3l-6.3-3.6c-0.1-0.1-0.2-0.1-0.3,0L4.9,7.4C4.8,7.5,4.7,7.6,4.7,7.7v7.2
	c0,0.1,0.1,0.2,0.2,0.3l1.3,0.7L6.8,15l-0.9-0.5V8.1H5.8z"/>
<path class="st4" d="M13.7,8.1h-2.1l-4.9,8l1.7,1L13.7,8.1z"/>
<path class="st4" d="M8.4,8.9c0.5-0.8,1.9-0.8,2.5-0.7l-4.8,7.7c-0.2-0.1-0.6-0.3-0.9-0.5c-0.4-0.2-0.5-0.2-0.5-0.5v-0.4
	C5.8,12.9,7.9,9.7,8.4,8.9z"/>
</svg>
