<svg xmlns="http://www.w3.org/2000/svg" viewBox="0 0 1109.69993 1109.69993"><rect width="1109.69993" height="1109.69993" style="fill:#f963b8"/><path d="M540.3,491.7c-35-28.3-69.9-56.6-102.9-87.3-40.7-37.9-97.6-60-153.4-54.4-96.6,9.8-172.4,93.9-172.4,190.9a191.70668,191.70668,0,0,0,7.7,53.8A195.52474,195.52474,0,0,0,141.6,644c40.6,63.5,93.3,92.5,168,88.9,40.1-1.9,77.2-18.9,120.5-66.3l-21.2-23c-33.3,31.1-74.4,45.2-108.9,45-49.2-.3-66.7-15.4-84.7-31.3-29.8-26.4-40.9-70.4-36.4-110.1,6.3-55.1,47.3-108.1,99.3-119.6a116.53571,116.53571,0,0,1,25.2-2.8c41.9,0,79.5,28.1,109.2,54.4,5.4,4.7,35.2,30,70.7,60M541.1,587.7c29.3,24.6,56,46.9,70,58.4,11.3,9.2,22.4,19,33.7,28.5,30.3,25.5,62.1,49.1,102.4,55.9,74.7,12.6,151.5-22.9,192.1-86.4a191.87069,191.87069,0,0,0,30.1-103c0-5.2-.2-10.5-.6-15.7-5.8-71.9-53.4-135.9-120.3-162.6C768.9,331,694,375.3,671.6,397l31.5,35c22.9-17.8,71.8-30.5,100.4-25.9,55.1,9,100.5,64.2,100.5,120.7,0,39.5-33.4,91.3-65.9,112.8-20,13.3-40.5,17.6-60.5,15.8-31.7-2.7-62.5-20.6-89.3-41.6-2.2-1.8-4.4-3.5-6.6-5.3q-41.1-34.05-82.1-68.2" transform="translate(14.9 14.90001)" style="fill:#fff"/><path d="M797.1,732.1c-55.8,5.7-112.8-16.4-153.4-54.4-20.8-19.4-90.2-79-141.9-123.1-6.2-5.2-12.3-10.4-18.3-15.4-35.5-29.9-65.3-55.2-70.7-60-29.7-26.3-67.3-54.4-109.2-54.4a115.83918,115.83918,0,0,0-25.2,2.8c-40.5-3.1-76.2,9.5-116.1,49.9-32,32.5-41.1,80.9-42.9,117.3a191.18677,191.18677,0,0,1-7.7-53.8c0-97,75.8-181.1,172.4-190.9,55.8-5.7,112.8,16.4,153.4,54.4,15.8,14.8,32.1,28.9,48.6,42.8h0c1.7,1.4,3.4,2.9,5.2,4.4,16.2,13.5,32.6,26.8,49.1,40.1,14.8,12,29.7,24,44.4,36.2,2,1.7,4,3.3,6.1,5,3,2.5,5.9,4.9,8.9,7.4q40.95,34.2,82.1,68.2c2.2,1.8,4.4,3.6,6.6,5.3,0,0,59.4,51.7,114.3,40.7,40.5,3.1,76.2-9.5,116.1-49.9,32-32.5,41.1-80.9,42.9-117.3a191.1877,191.1877,0,0,1,7.7,53.8C969.5,638.2,893.6,722.3,797.1,732.1Z" transform="translate(14.9 14.90001)" style="fill:#fff"/><path d="M615.7,495.4C630.2,479,650,462.2,650,462.2l-18.5-23.9s-21.3,15-40.8,24.9a16.07938,16.07938,0,0,0-8.1,9.6,130.88992,130.88992,0,0,1-14.9,31.1c-1.6,2.3.3,4.5,2.7,3.5a129.01146,129.01146,0,0,1,33.8-6.6A16.08633,16.08633,0,0,0,615.7,495.4Z" transform="translate(14.9 14.90001)" style="fill:#fff"/><path d="M693.9,380.3s-18.6,11.8-35.3,23.8c-12,8.7-23.7,17.8-33.8,22.1a2.37348,2.37348,0,0,0-1.2,3c2.8,7.7,13.6,21.8,14.9,23.3,1.2,1.6,11.3,14.7,18.1,19.4a2.33341,2.33341,0,0,0,3.2-.4c16-20.9,62.5-50.8,62.5-50.8Z" transform="translate(14.9 14.90001)" style="fill:#fff"/><path d="M401.3,650.2a52.69478,52.69478,0,0,0,5.6-5l26.2-26.8a4.35661,4.35661,0,0,1,2.9-1.1,4.005,4.005,0,0,1,2.9,1.2l16.4,16.2a3.86653,3.86653,0,0,1,.1,5.6h0l-31.1,32.9-8.6,8.6-23.8-24.3Z" transform="translate(14.9 14.90001)" style="fill:#fff"/><path d="M461.2,640a27.14765,27.14765,0,0,0,27.4-26.6,3.63129,3.63129,0,0,0-1.2-2.8,3.83255,3.83255,0,0,0-2.9-1c-8.1.6-10-2.8-13.2-8.5a22.72541,22.72541,0,0,0-22-14.2h0a3.99824,3.99824,0,0,0-2.6,1,36.49073,36.49073,0,0,0-13.1,24.7A27.61252,27.61252,0,0,0,461.2,640Z" transform="translate(14.9 14.90001)" style="fill:#fff"/><path d="M445.8,592.1a3.81242,3.81242,0,0,0,3.5,2.4,15.27047,15.27047,0,0,1,15.4,10.3A19.14389,19.14389,0,0,0,485,617.1a3.63819,3.63819,0,0,0,3.3-2.6c.1-.6.2-1.2.3-1.9a45.80182,45.80182,0,0,1,8.7-23.3c3.6-5.9,6.4-10.6,3.6-14.5a9.03967,9.03967,0,0,0-8.3-3,116.86288,116.86288,0,0,0-22.1,3.4A51.40335,51.40335,0,0,0,446.8,588,3.72692,3.72692,0,0,0,445.8,592.1Z" transform="translate(14.9 14.90001)" style="fill:#fff"/></svg>