<?xml version="1.0" encoding="UTF-8" standalone="no"?>
<!DOCTYPE svg PUBLIC "-//W3C//DTD SVG 1.1//EN" "http://www.w3.org/Graphics/SVG/1.1/DTD/svg11.dtd">
<svg xmlns="http://www.w3.org/2000/svg" version="1.1" viewBox="0.00 0.00 638.00 638.00">
<g stroke-width="2.00" fill="none" stroke-linecap="butt">
<path stroke="#898989" vector-effect="non-scaling-stroke" d="
  M 518.91 169.03
  A 67.43 67.43 0.0 0 0 451.48 101.60
  A 67.43 67.43 0.0 0 0 384.05 169.03
  A 67.43 67.43 0.0 0 0 451.48 236.46
  A 67.43 67.43 0.0 0 0 518.91 169.03"
/>
<path stroke="#898989" vector-effect="non-scaling-stroke" d="
  M 121.62 168.81
  Q 121.46 168.73 121.28 168.72
  Q 120.75 168.69 120.75 169.23
  L 120.75 517.00
  Q 120.75 517.50 121.25 517.50
  L 451.00 517.50
  Q 451.50 517.50 451.50 517.00
  L 451.50 450.25
  A 0.50 0.50 0.0 0 0 451.00 449.75
  L 197.00 449.75
  A 0.50 0.50 0.0 0 1 196.50 449.25
  L 196.50 169.51
  Q 196.50 169.00 196.00 169.00
  Q 159.03 169.01 122.17 168.94
  Q 121.88 168.94 121.62 168.81"
/>
</g>
<path fill="#121212" d="
  M 309.09 0.00
  L 328.80 0.00
  Q 441.16 4.98 525.77 76.12
  C 594.74 134.10 634.43 219.61 638.00 309.07
  L 638.00 328.79
  C 631.18 498.32 498.56 631.46 328.67 638.00
  L 309.47 638.00
  C 139.57 631.48 6.81 498.45 0.00 328.92
  L 0.00 309.21
  C 6.56 139.51 139.63 6.84 309.09 0.00
  Z
  M 518.91 169.03
  A 67.43 67.43 0.0 0 0 451.48 101.60
  A 67.43 67.43 0.0 0 0 384.05 169.03
  A 67.43 67.43 0.0 0 0 451.48 236.46
  A 67.43 67.43 0.0 0 0 518.91 169.03
  Z
  M 121.62 168.81
  Q 121.46 168.73 121.28 168.72
  Q 120.75 168.69 120.75 169.23
  L 120.75 517.00
  Q 120.75 517.50 121.25 517.50
  L 451.00 517.50
  Q 451.50 517.50 451.50 517.00
  L 451.50 450.25
  A 0.50 0.50 0.0 0 0 451.00 449.75
  L 197.00 449.75
  A 0.50 0.50 0.0 0 1 196.50 449.25
  L 196.50 169.51
  Q 196.50 169.00 196.00 169.00
  Q 159.03 169.01 122.17 168.94
  Q 121.88 168.94 121.62 168.81
  Z"
/>
<circle fill="#ffffff" cx="451.48" cy="169.03" r="67.43"/>
<path fill="#ffffff" d="
  M 122.17 168.94
  Q 159.03 169.01 196.00 169.00
  Q 196.50 169.00 196.50 169.51
  L 196.50 449.25
  A 0.50 0.50 0.0 0 0 197.00 449.75
  L 451.00 449.75
  A 0.50 0.50 0.0 0 1 451.50 450.25
  L 451.50 517.00
  Q 451.50 517.50 451.00 517.50
  L 121.25 517.50
  Q 120.75 517.50 120.75 517.00
  L 120.75 169.23
  Q 120.75 168.69 121.28 168.72
  Q 121.46 168.73 121.62 168.81
  Q 121.88 168.94 122.17 168.94
  Z"
/>
</svg>
