<?xml version="1.0" encoding="UTF-8" standalone="no"?>
<!DOCTYPE svg PUBLIC "-//W3C//DTD SVG 1.1//EN" "http://www.w3.org/Graphics/SVG/1.1/DTD/svg11.dtd">
<svg xmlns="http://www.w3.org/2000/svg" version="1.1" viewBox="0.00 0.00 146.00 146.00">
<g stroke-width="2.00" fill="none" stroke-linecap="butt">
<path stroke="#5267fe" vector-effect="non-scaling-stroke" d="
  M 85.48 6.17
  Q 85.45 6.88 85.10 7.19
  Q 84.78 7.48 85.15 7.71
  Q 85.41 7.88 85.58 7.90
  A 0.62 0.59 7.8 0 1 86.11 8.56
  Q 85.96 9.80 85.21 10.65
  Q 84.88 11.03 84.86 11.53
  L 84.25 25.57"
/>
<path stroke="#4791fd" vector-effect="non-scaling-stroke" d="
  M 64.68 24.98
  Q 64.41 21.56 63.58 18.26
  Q 63.40 17.57 63.69 17.22
  Q 63.97 16.87 63.93 16.42
  L 63.05 5.75"
/>
<path stroke="#45b3f4" vector-effect="non-scaling-stroke" d="
  M 53.07 28.53
  Q 52.17 23.49 49.39 19.54
  Q 49.02 19.00 48.92 18.36
  Q 48.60 16.17 47.07 14.98
  Q 46.65 14.65 46.54 14.13
  L 45.77 10.71"
/>
<path stroke="#683bfe" vector-effect="non-scaling-stroke" d="
  M 103.30 12.14
  Q 100.68 20.44 100.16 26.75
  Q 99.86 30.34 99.39 32.02"
/>
<path stroke="#4cc7de" vector-effect="non-scaling-stroke" d="
  M 46.38 32.19
  L 42.86 23.83
  Q 42.66 23.36 42.21 23.17
  Q 41.10 22.69 41.19 21.29
  A 1.69 1.68 -60.1 0 0 40.92 20.28
  L 37.52 15.01"
/>
<path stroke="#683bfe" vector-effect="non-scaling-stroke" d="
  M 96.23 136.88
  Q 96.45 134.90 95.59 129.76
  Q 95.05 126.60 96.14 115.89"
/>
<path stroke="#5075fe" vector-effect="non-scaling-stroke" d="
  M 64.46 120.99
  L 63.91 122.10
  Q 63.70 122.51 63.92 122.91
  Q 64.24 123.50 63.73 123.99
  Q 63.42 126.75 62.86 129.46
  Q 62.84 129.51 61.33 133.85
  Q 60.25 136.97 61.51 139.99"
/>
<path stroke="#5fe8a2" vector-effect="non-scaling-stroke" d="
  M 24.26 71.76
  L 15.73 76.46
  A 1.36 1.35 31.7 0 1 15.00 76.63
  Q 8.70 76.35 5.35 79.64"
/>
<path stroke="#69f487" vector-effect="non-scaling-stroke" d="
  M 25.39 62.50
  Q 23.97 60.96 22.55 64.37
  A 1.13 1.11 89.5 0 1 21.99 64.95
  L 18.07 66.75
  Q 17.55 66.98 17.26 67.47
  Q 16.58 68.61 15.48 69.09
  Q 11.42 70.87 5.02 72.93"
/>
<path stroke="#595bfe" vector-effect="non-scaling-stroke" d="
  M 80.72 140.53
  Q 81.33 137.63 80.88 134.19
  Q 80.85 133.94 80.62 133.83
  Q 80.44 133.75 80.43 133.50
  Q 80.21 127.05 81.67 120.95"
/>
<path stroke="#4cc7de" vector-effect="non-scaling-stroke" d="
  M 30.41 96.68
  Q 29.24 96.76 28.95 97.79
  Q 28.84 98.16 28.51 98.37
  L 26.02 99.87
  Q 25.55 100.16 24.99 100.15
  Q 23.88 100.12 23.49 101.25
  A 1.85 1.84 -81.2 0 1 21.81 102.49
  Q 20.20 102.55 19.09 103.40
  A 1.23 1.18 26.0 0 1 18.28 103.66
  Q 15.91 103.58 13.78 106.37"
/>
<path stroke="#56d9be" vector-effect="non-scaling-stroke" d="
  M 25.82 85.29
  Q 22.59 87.74 20.99 88.13
  Q 19.72 88.45 18.97 88.92
  Q 17.75 89.69 17.71 89.70
  C 16.67 90.13 15.60 90.22 14.63 90.74
  Q 11.64 92.33 7.99 92.84"
/>
<path stroke="#56d9be" vector-effect="non-scaling-stroke" d="
  M 41.20 36.07
  Q 40.82 32.59 38.52 30.70
  Q 38.10 30.36 37.99 29.82
  Q 37.83 29.04 37.05 28.92
  A 1.03 1.02 78.9 0 1 36.31 28.42
  Q 34.95 26.12 33.92 23.27
  Q 33.52 22.13 31.26 19.34"
/>
<path stroke="#45b3f4" vector-effect="non-scaling-stroke" d="
  M 35.75 104.41
  Q 32.85 107.89 29.12 110.02
  Q 28.86 110.17 28.36 110.97
  Q 28.15 111.29 28.18 111.62
  Q 28.23 112.19 27.75 112.49
  L 23.66 115.07
  Q 23.40 115.23 23.12 115.10
  Q 22.93 115.01 22.74 114.95
  Q 22.39 114.83 22.14 115.11
  Q 21.35 115.98 20.22 115.83"
/>
<path stroke="#5fe8a2" vector-effect="non-scaling-stroke" d="
  M 36.92 40.24
  L 33.14 32.00
  Q 32.91 31.49 32.40 31.23
  Q 31.15 30.59 30.83 29.14
  A 1.83 1.78 20.0 0 0 30.45 28.35
  L 26.42 23.49"
/>
<path stroke="#69f487" vector-effect="non-scaling-stroke" d="
  M 29.02 51.96
  L 29.63 44.03
  Q 29.68 43.47 29.33 43.03
  Q 28.04 41.39 27.69 38.97
  Q 27.38 36.78 26.43 34.92
  Q 24.60 31.34 22.14 27.90"
/>
<path stroke="#4697fd" vector-effect="non-scaling-stroke" d="
  M 45.85 113.45
  Q 43.66 115.08 43.02 117.22
  Q 42.83 117.86 41.58 118.98
  Q 41.27 119.25 41.69 119.23
  Q 41.98 119.21 41.87 119.88
  Q 41.81 120.26 41.59 120.59
  L 39.10 124.27
  Q 38.84 124.65 39.06 125.06
  Q 39.15 125.23 39.12 125.41
  Q 39.06 125.82 38.78 126.11
  Q 37.25 127.73 37.98 129.63
  Q 38.20 130.19 37.67 129.89
  Q 37.60 129.85 37.51 129.84
  Q 37.36 129.81 37.36 129.96
  Q 37.36 130.09 37.26 130.19
  Q 37.22 130.24 37.17 130.20
  Q 36.34 129.63 36.47 130.32"
/>
</g>
<path fill="#4a7afe" d="
  M 85.48 6.17
  Q 85.45 6.88 85.10 7.19
  Q 84.78 7.48 85.15 7.71
  Q 85.41 7.88 85.58 7.90
  A 0.62 0.59 7.8 0 1 86.11 8.56
  Q 85.96 9.80 85.21 10.65
  Q 84.88 11.03 84.86 11.53
  L 84.25 25.57
  Q 74.26 23.35 64.68 24.98
  Q 64.41 21.56 63.58 18.26
  Q 63.40 17.57 63.69 17.22
  Q 63.97 16.87 63.93 16.42
  L 63.05 5.75
  A 67.85 67.84 46.1 0 1 85.48 6.17
  Z"
/>
<path fill="#43a7fb" d="
  M 63.05 5.75
  L 63.93 16.42
  Q 63.97 16.87 63.69 17.22
  Q 63.40 17.57 63.58 18.26
  Q 64.41 21.56 64.68 24.98
  Q 58.40 26.12 53.07 28.53
  Q 52.17 23.49 49.39 19.54
  Q 49.02 19.00 48.92 18.36
  Q 48.60 16.17 47.07 14.98
  Q 46.65 14.65 46.54 14.13
  L 45.77 10.71
  A 68.13 68.13 0.0 0 1 63.05 5.75
  Z"
/>
<path fill="#5a53fe" d="
  M 85.48 6.17
  A 67.93 67.78 -26.4 0 1 103.30 12.14
  Q 100.68 20.44 100.16 26.75
  Q 99.86 30.34 99.39 32.02
  Q 92.35 27.59 84.25 25.57
  L 84.86 11.53
  Q 84.88 11.03 85.21 10.65
  Q 85.96 9.80 86.11 8.56
  A 0.62 0.59 7.8 0 0 85.58 7.90
  Q 85.41 7.88 85.15 7.71
  Q 84.78 7.48 85.10 7.19
  Q 85.45 6.88 85.48 6.17
  Z"
/>
<path fill="#47beec" d="
  M 45.77 10.71
  L 46.54 14.13
  Q 46.65 14.65 47.07 14.98
  Q 48.60 16.17 48.92 18.36
  Q 49.02 19.00 49.39 19.54
  Q 52.17 23.49 53.07 28.53
  L 46.38 32.19
  L 42.86 23.83
  Q 42.66 23.36 42.21 23.17
  Q 41.10 22.69 41.19 21.29
  A 1.69 1.68 -60.1 0 0 40.92 20.28
  L 37.52 15.01
  A 65.79 62.90 -29.1 0 1 45.77 10.71
  Z"
/>
<path fill="#7522fe" d="
  M 103.30 12.14
  A 68.01 67.97 -7.0 0 1 124.68 28.83
  A 67.96 67.93 -61.8 0 1 140.47 81.25
  A 67.98 67.94 -15.7 0 1 115.11 126.36
  A 67.97 67.87 15.8 0 1 96.23 136.88
  Q 96.45 134.90 95.59 129.76
  Q 95.05 126.60 96.14 115.89
  C 128.30 97.81 130.89 52.77 99.39 32.02
  Q 99.86 30.34 100.16 26.75
  Q 100.68 20.44 103.30 12.14
  Z"
/>
<path fill="#50d0d0" d="
  M 37.52 15.01
  L 40.92 20.28
  A 1.69 1.68 -60.1 0 1 41.19 21.29
  Q 41.10 22.69 42.21 23.17
  Q 42.66 23.36 42.86 23.83
  L 46.38 32.19
  L 41.20 36.07
  Q 40.82 32.59 38.52 30.70
  Q 38.10 30.36 37.99 29.82
  Q 37.83 29.04 37.05 28.92
  A 1.03 1.02 78.9 0 1 36.31 28.42
  Q 34.95 26.12 33.92 23.27
  Q 33.52 22.13 31.26 19.34
  A 53.82 42.33 -35.0 0 1 37.52 15.01
  Z"
/>
<path fill="#5be1ac" d="
  M 31.26 19.34
  Q 33.52 22.13 33.92 23.27
  Q 34.95 26.12 36.31 28.42
  A 1.03 1.02 78.9 0 0 37.05 28.92
  Q 37.83 29.04 37.99 29.82
  Q 38.10 30.36 38.52 30.70
  Q 40.82 32.59 41.20 36.07
  L 36.92 40.24
  L 33.14 32.00
  Q 32.91 31.49 32.40 31.23
  Q 31.15 30.59 30.83 29.14
  A 1.83 1.78 20.0 0 0 30.45 28.35
  L 26.42 23.49
  A 45.08 30.40 -40.3 0 1 31.26 19.34
  Z"
/>
<path fill="#63ee98" d="
  M 26.42 23.49
  L 30.45 28.35
  A 1.83 1.78 20.0 0 1 30.83 29.14
  Q 31.15 30.59 32.40 31.23
  Q 32.91 31.49 33.14 32.00
  L 36.92 40.24
  Q 32.28 45.37 29.02 51.96
  L 29.63 44.03
  Q 29.68 43.47 29.33 43.03
  Q 28.04 41.39 27.69 38.97
  Q 27.38 36.78 26.43 34.92
  Q 24.60 31.34 22.14 27.90
  A 43.48 28.89 -47.6 0 1 26.42 23.49
  Z"
/>
<path fill="#6ef976" d="
  M 22.14 27.90
  Q 24.60 31.34 26.43 34.92
  Q 27.38 36.78 27.69 38.97
  Q 28.04 41.39 29.33 43.03
  Q 29.68 43.47 29.63 44.03
  L 29.02 51.96
  L 25.39 62.50
  Q 23.97 60.96 22.55 64.37
  A 1.13 1.11 89.5 0 1 21.99 64.95
  L 18.07 66.75
  Q 17.55 66.98 17.26 67.47
  Q 16.58 68.61 15.48 69.09
  Q 11.42 70.87 5.02 72.93
  A 67.99 67.98 65.8 0 1 22.14 27.90
  Z"
/>
<path fill="#63ee98" d="
  M 25.39 62.50
  L 24.26 71.76
  L 15.73 76.46
  A 1.36 1.35 31.7 0 1 15.00 76.63
  Q 8.70 76.35 5.35 79.64
  A 47.51 32.92 86.2 0 1 5.02 72.93
  Q 11.42 70.87 15.48 69.09
  Q 16.58 68.61 17.26 67.47
  Q 17.55 66.98 18.07 66.75
  L 21.99 64.95
  A 1.13 1.11 89.5 0 0 22.55 64.37
  Q 23.97 60.96 25.39 62.50
  Z"
/>
<path fill="#5be1ac" d="
  M 24.26 71.76
  Q 24.19 78.66 25.82 85.29
  Q 22.59 87.74 20.99 88.13
  Q 19.72 88.45 18.97 88.92
  Q 17.75 89.69 17.71 89.70
  C 16.67 90.13 15.60 90.22 14.63 90.74
  Q 11.64 92.33 7.99 92.84
  A 67.78 67.58 33.8 0 1 5.35 79.64
  Q 8.70 76.35 15.00 76.63
  A 1.36 1.35 31.7 0 0 15.73 76.46
  L 24.26 71.76
  Z"
/>
<path fill="#50d0d0" d="
  M 25.82 85.29
  Q 27.45 91.27 30.41 96.68
  Q 29.24 96.76 28.95 97.79
  Q 28.84 98.16 28.51 98.37
  L 26.02 99.87
  Q 25.55 100.16 24.99 100.15
  Q 23.88 100.12 23.49 101.25
  A 1.85 1.84 -81.2 0 1 21.81 102.49
  Q 20.20 102.55 19.09 103.40
  A 1.23 1.18 26.0 0 1 18.28 103.66
  Q 15.91 103.58 13.78 106.37
  A 68.13 68.09 -68.2 0 1 7.99 92.84
  Q 11.64 92.33 14.63 90.74
  C 15.60 90.22 16.67 90.13 17.71 89.70
  Q 17.75 89.69 18.97 88.92
  Q 19.72 88.45 20.99 88.13
  Q 22.59 87.74 25.82 85.29
  Z"
/>
<path fill="#47beec" d="
  M 30.41 96.68
  L 35.75 104.41
  Q 32.85 107.89 29.12 110.02
  Q 28.86 110.17 28.36 110.97
  Q 28.15 111.29 28.18 111.62
  Q 28.23 112.19 27.75 112.49
  L 23.66 115.07
  Q 23.40 115.23 23.12 115.10
  Q 22.93 115.01 22.74 114.95
  Q 22.39 114.83 22.14 115.11
  Q 21.35 115.98 20.22 115.83
  A 68.22 67.95 10.9 0 1 13.78 106.37
  Q 15.91 103.58 18.28 103.66
  A 1.23 1.18 26.0 0 0 19.09 103.40
  Q 20.20 102.55 21.81 102.49
  A 1.85 1.84 -81.2 0 0 23.49 101.25
  Q 23.88 100.12 24.99 100.15
  Q 25.55 100.16 26.02 99.87
  L 28.51 98.37
  Q 28.84 98.16 28.95 97.79
  Q 29.24 96.76 30.41 96.68
  Z"
/>
<path fill="#43a7fb" d="
  M 35.75 104.41
  Q 40.18 109.60 45.85 113.45
  Q 43.66 115.08 43.02 117.22
  Q 42.83 117.86 41.58 118.98
  Q 41.27 119.25 41.69 119.23
  Q 41.98 119.21 41.87 119.88
  Q 41.81 120.26 41.59 120.59
  L 39.10 124.27
  Q 38.84 124.65 39.06 125.06
  Q 39.15 125.23 39.12 125.41
  Q 39.06 125.82 38.78 126.11
  Q 37.25 127.73 37.98 129.63
  Q 38.20 130.19 37.67 129.89
  Q 37.60 129.85 37.51 129.84
  Q 37.36 129.81 37.36 129.96
  Q 37.36 130.09 37.26 130.19
  Q 37.22 130.24 37.17 130.20
  Q 36.34 129.63 36.47 130.32
  A 68.11 68.04 -3.2 0 1 20.22 115.83
  Q 21.35 115.98 22.14 115.11
  Q 22.39 114.83 22.74 114.95
  Q 22.93 115.01 23.12 115.10
  Q 23.40 115.23 23.66 115.07
  L 27.75 112.49
  Q 28.23 112.19 28.18 111.62
  Q 28.15 111.29 28.36 110.97
  Q 28.86 110.17 29.12 110.02
  Q 32.85 107.89 35.75 104.41
  Z"
/>
<path fill="#4986fe" d="
  M 45.85 113.45
  Q 54.31 119.09 64.46 120.99
  L 63.91 122.10
  Q 63.70 122.51 63.92 122.91
  Q 64.24 123.50 63.73 123.99
  Q 63.42 126.75 62.86 129.46
  Q 62.84 129.51 61.33 133.85
  Q 60.25 136.97 61.51 139.99
  A 67.99 67.87 66.1 0 1 36.47 130.32
  Q 36.34 129.63 37.17 130.20
  Q 37.22 130.24 37.26 130.19
  Q 37.36 130.09 37.36 129.96
  Q 37.36 129.81 37.51 129.84
  Q 37.60 129.85 37.67 129.89
  Q 38.20 130.19 37.98 129.63
  Q 37.25 127.73 38.78 126.11
  Q 39.06 125.82 39.12 125.41
  Q 39.15 125.23 39.06 125.06
  Q 38.84 124.65 39.10 124.27
  L 41.59 120.59
  Q 41.81 120.26 41.87 119.88
  Q 41.98 119.21 41.69 119.23
  Q 41.27 119.25 41.58 118.98
  Q 42.83 117.86 43.02 117.22
  Q 43.66 115.08 45.85 113.45
  Z"
/>
<path fill="#5a53fe" d="
  M 96.14 115.89
  Q 95.05 126.60 95.59 129.76
  Q 96.45 134.90 96.23 136.88
  A 68.01 67.98 -58.2 0 1 80.72 140.53
  Q 81.33 137.63 80.88 134.19
  Q 80.85 133.94 80.62 133.83
  Q 80.44 133.75 80.43 133.50
  Q 80.21 127.05 81.67 120.95
  Q 89.69 119.37 96.14 115.89
  Z"
/>
<path fill="#5763fe" d="
  M 64.46 120.99
  Q 73.43 122.42 81.67 120.95
  Q 80.21 127.05 80.43 133.50
  Q 80.44 133.75 80.62 133.83
  Q 80.85 133.94 80.88 134.19
  Q 81.33 137.63 80.72 140.53
  A 68.14 67.97 46.5 0 1 61.51 139.99
  Q 60.25 136.97 61.33 133.85
  Q 62.84 129.51 62.86 129.46
  Q 63.42 126.75 63.73 123.99
  Q 64.24 123.50 63.92 122.91
  Q 63.70 122.51 63.91 122.10
  L 64.46 120.99
  Z"
/>
</svg>
