<?xml version="1.0" encoding="UTF-8"?>
<!-- Generator: visioncortex VTracer 0.6.3 -->
<svg version="1.1" xmlns="http://www.w3.org/2000/svg" width="1280" height="1280">
<path d="M0 0 C0.66 0.33 1.32 0.66 2 1 C3.34 0.69 4.67 0.35 6 0 C7.46 -0.09 8.92 -0.13 10.38 -0.13 C11.25 -0.13 12.12 -0.13 13.01 -0.14 C13.96 -0.13 14.9 -0.13 15.88 -0.13 C16.88 -0.13 17.88 -0.13 18.91 -0.13 C22.23 -0.14 25.54 -0.14 28.85 -0.13 C31.15 -0.13 33.45 -0.13 35.75 -0.14 C40.56 -0.14 45.38 -0.14 50.2 -0.13 C56.38 -0.12 62.57 -0.13 68.75 -0.13 C73.5 -0.14 78.25 -0.14 82.99 -0.13 C85.27 -0.13 87.55 -0.13 89.84 -0.14 C93.02 -0.14 96.2 -0.13 99.38 -0.13 C100.33 -0.13 101.28 -0.13 102.26 -0.14 C103.12 -0.13 103.99 -0.13 104.88 -0.13 C106 -0.13 106 -0.13 107.16 -0.13 C109 -0 109 -0 111 1 C112.65 1.19 114.3 1.32 115.96 1.43 C116.98 1.5 118 1.57 119.05 1.65 C120.15 1.72 121.24 1.8 122.38 1.88 C132.98 2.66 143.4 3.92 153.88 5.66 C156.89 6.15 159.92 6.57 162.94 7 C168.12 7.8 173.18 8.92 178.27 10.14 C184.52 11.58 190.82 12.79 197.11 14.04 C197.91 14.19 198.7 14.35 199.53 14.51 C201.24 14.85 202.95 15.18 204.66 15.52 C208.82 16.33 212.9 17.15 216.94 18.44 C220.3 19.48 223.66 20.47 227.06 21.38 C239.4 24.73 251.54 28.45 263.62 32.62 C264.74 33.01 265.85 33.39 267 33.79 C272.43 35.68 277.74 37.69 283 40 C284.51 40.54 286.03 41.07 287.56 41.56 C288.32 41.81 289.07 42.05 289.84 42.3 C290.56 42.53 291.27 42.76 292 43 C294 43.67 296 44.33 298 45 C298 45.66 298 46.32 298 47 C298.83 47.08 299.65 47.16 300.5 47.25 C304.11 48.02 306.72 49.26 309.95 50.97 C312.43 52.21 315 53.09 317.6 54.02 C322.04 55.83 326.27 58.09 330.54 60.28 C333.98 61.99 337.46 63.5 341 65 C342.42 65.69 343.84 66.4 345.25 67.12 C347.52 68.3 349.55 69.18 352 70 C352 70.66 352 71.32 352 72 C354.47 72.5 354.47 72.5 357 73 C357 73.66 357 74.32 357 75 C357.74 75.12 358.47 75.24 359.23 75.36 C361.95 75.99 363.84 76.81 366.25 78.19 C367.41 78.85 367.41 78.85 368.59 79.52 C371.83 81.51 374.95 83.66 378.05 85.86 C380.06 87.25 380.06 87.25 383 87 C383.33 87.66 383.66 88.32 384 89 C385.97 90.05 387.98 91.05 390 92 C392.52 93.22 394.65 94.43 397 96 C397 96.66 397 97.32 397 98 C397.89 98.27 398.77 98.54 399.69 98.81 C402.82 99.93 405.22 101.19 408 103 C408.95 103.6 409.9 104.2 410.88 104.81 C413.92 106.95 416.64 109.24 419.39 111.73 C421.09 113.22 421.09 113.22 424 114 C424 114.66 424 115.32 424 116 C424.6 116.1 425.2 116.21 425.81 116.31 C428.32 117.1 429.17 118.17 431 120 C433.1 120.71 433.1 120.71 435 121 C435 121.66 435 122.32 435 123 C435.99 123.33 436.98 123.66 438 124 C438.66 124.99 439.32 125.98 440 127 C441.17 127.46 441.17 127.46 442.36 127.93 C445.44 129.18 446.94 130.7 449.19 133.12 C450.42 134.45 451.69 135.75 453 137 C453.66 137 454.32 137 455 137 C455 137.66 455 138.32 455 139 C455.8 139.27 456.61 139.54 457.44 139.81 C458.28 140.2 459.13 140.6 460 141 C460.33 141.99 460.66 142.98 461 144 C463.02 144.73 463.02 144.73 465 145 C465 145.66 465 146.32 465 147 C465.8 147.31 466.61 147.62 467.44 147.94 C471.71 150.03 474.64 153.51 477.85 156.94 C479.87 158.88 481.52 159.8 484 161 C484.45 161.8 484.91 162.61 485.38 163.44 C487.44 166.7 489.55 167.35 493 169 C495.31 171.13 495.31 171.13 498 174 C500.4 176.34 502.8 178.68 505.21 181.01 C507 183 507 183 507 185 C507.96 185.4 507.96 185.4 508.94 185.81 C511 187 511 187 512 190 C513.31 190.7 514.65 191.37 516 192 C520.48 195.79 524.13 200.26 527.54 205.01 C531.86 210.92 536.82 215.83 542.13 220.83 C547.83 226.37 547.83 226.37 548 231 C548.99 230.67 549.98 230.34 551 230 C551.4 230.61 551.8 231.23 552.21 231.86 C553 233.08 553 233.08 553.81 234.31 C554.33 235.11 554.86 235.91 555.39 236.74 C556.81 238.73 558.26 240.3 560 242 C560.4 242.9 560.4 242.9 560.81 243.81 C562.01 246.03 563.18 247.22 565 248.94 C567.65 251.47 568.68 253.57 570 257 C571.65 258.69 573.31 260.35 575 262 C576.03 263.65 577.03 265.32 578 267 C579.33 268.67 580.66 270.34 582 272 C586 277.44 586 277.44 586 282 C586.99 282.33 587.98 282.66 589 283 C589 283.66 589 284.32 589 285 C589.66 285 590.32 285 591 285 C591.45 285.97 591.91 286.94 592.38 287.94 C593.66 291.07 593.66 291.07 596 292 C596.27 292.74 596.54 293.49 596.81 294.25 C597.88 297.19 597.88 297.19 600.5 299.5 C603.06 302.06 603.85 303.63 605 307 C605.77 308.49 605.77 308.49 606.56 310 C607.88 312.74 608.56 315.01 609 318 C609.62 318.05 610.23 318.1 610.87 318.16 C613 319 613 319 614.2 321.47 C614.5 322.47 614.81 323.47 615.12 324.5 C615.7 326.35 616.32 328.19 617 330 C617.66 330.33 618.32 330.66 619 331 C619.67 332.67 620.33 334.33 621 336 C621.66 336.33 622.32 336.66 623 337 C623.38 338.32 623.7 339.66 624 341 C624.33 341.82 624.66 342.65 625 343.5 C626 346 626 346 626.5 348.25 C626.75 349.12 626.75 349.12 627 350 C627.66 350.33 628.32 350.66 629 351 C629.69 352.66 630.35 354.33 631 356 C631.49 356.82 631.99 357.65 632.5 358.5 C634.44 361.73 635.67 365.12 637 368.64 C637.33 369.5 637.66 370.36 638 371.25 C638.33 372.12 638.66 372.99 639 373.89 C639.81 376.16 639.81 376.16 642 377 C642.72 378.87 643.35 380.77 643.94 382.69 C645.32 387.03 646.85 390.97 649 395 C650.02 397.33 651.01 399.66 652 402 C652.49 403.09 652.99 404.19 653.5 405.31 C655.05 409.12 656.18 412.91 657.25 416.86 C657.89 419.18 657.89 419.18 660 421 C660.62 423.15 661.15 425.32 661.62 427.5 C661.89 428.67 662.15 429.83 662.41 431.03 C663 434 663 434 663 436 C663.66 436 664.32 436 665 436 C665.29 437.01 665.58 438.02 665.88 439.06 C666.06 439.7 666.24 440.33 666.43 440.98 C666.81 442.31 667.18 443.65 667.54 444.99 C668.25 448.26 668.25 448.26 670 451 C670.28 453.29 670.45 455.57 670.62 457.87 C670.83 460.21 670.83 460.21 673 462 C673.68 464.33 674.34 466.66 675 469 C675.66 469.99 676.32 470.98 677 472 C677.43 474.72 677.79 477.39 678.06 480.12 C678.16 484.95 678.16 484.95 680 489 C680.23 490.85 680.41 492.7 680.56 494.56 C680.65 495.57 680.73 496.59 680.82 497.63 C680.88 498.41 680.94 499.19 681 500 C681.66 500 682.32 500 683 500 C683.06 500.78 683.12 501.56 683.18 502.37 C683.27 503.38 683.35 504.39 683.44 505.44 C683.52 506.45 683.6 507.46 683.68 508.5 C683.73 510.94 683.73 510.94 685 512 C685.23 514.18 685.41 516.37 685.56 518.56 C685.65 519.76 685.73 520.96 685.82 522.19 C685.88 523.12 685.94 524.05 686 525 C686.66 525 687.32 525 688 525 C688.05 525.95 688.1 526.91 688.15 527.89 C688.22 529.14 688.3 530.4 688.38 531.69 C688.48 533.55 688.48 533.55 688.59 535.45 C688.97 538.75 689.77 540.96 691 544 C691.26 546.24 691.44 548.5 691.56 550.75 C691.44 554.69 691.44 554.69 693 558 C693.12 559.7 693.18 561.4 693.21 563.1 C693.25 564.67 693.25 564.67 693.3 566.28 C693.35 568.49 693.39 570.69 693.43 572.9 C693.46 573.96 693.49 575.01 693.52 576.1 C693.54 577.06 693.56 578.03 693.58 579.02 C693.86 582.11 693.86 582.11 695.5 585.05 C697.54 589.7 697.42 594.15 697.39 599.15 C697.39 600.15 697.4 601.15 697.4 602.17 C697.42 605.45 697.41 608.73 697.4 612 C697.4 614.29 697.4 616.57 697.41 618.86 C697.41 623.64 697.41 628.42 697.39 633.2 C697.37 639.33 697.38 645.46 697.4 651.58 C697.41 656.3 697.41 661.01 697.4 665.73 C697.4 667.99 697.4 670.25 697.41 672.5 C697.42 675.66 697.4 678.82 697.39 681.97 C697.39 682.91 697.4 683.84 697.41 684.79 C697.36 690.01 696.72 693.4 694 698 C693.53 700.58 693.53 700.58 693.52 703.14 C693.49 704.07 693.46 704.99 693.43 705.94 C693.41 706.89 693.39 707.84 693.38 708.81 C693.32 710.71 693.27 712.62 693.21 714.52 C693.19 715.36 693.18 716.19 693.16 717.05 C693 719 693 719 692 720 C691.76 723.55 691.6 727.1 691.48 730.65 C691.3 734.71 690.92 737.39 689 741 C688.63 744.37 688.5 747.72 688.34 751.1 C688 754 688 754 686 756 C685.86 758.26 686 760.45 686.12 762.71 C685.98 765.32 685.16 766.69 684 769 C683.55 771.81 683.55 771.81 683.38 774.75 C683.26 776.23 683.26 776.23 683.15 777.73 C683.1 778.48 683.05 779.23 683 780 C682.34 780 681.68 780 681 780 C680.91 781.17 680.91 781.17 680.82 782.37 C680.73 783.38 680.65 784.39 680.56 785.44 C680.48 786.45 680.4 787.46 680.32 788.5 C680 791 680 791 679 792 C678.77 794.03 678.55 796.06 678.38 798.09 C678 800 678 800 676 802 C675.65 803.93 675.65 803.93 675.56 806.12 C675.16 810.64 674.34 816.66 671 820 C670.77 821.51 670.59 823.04 670.44 824.56 C670.31 825.8 670.31 825.8 670.18 827.07 C670.09 828.02 670.09 828.02 670 829 C669.34 829 668.68 829 668 829 C668.06 830.39 668.06 830.39 668.12 831.81 C668 835 668 835 666 838 C665.61 839.99 665.27 841.99 665 844 C664.34 844 663.68 844 663 844 C663.06 845.39 663.06 845.39 663.12 846.81 C663 850 663 850 661 853 C660.54 854.64 660.54 854.64 660.06 856.31 C659.04 859.85 657.64 862.72 656 866 C655.67 867.15 655.34 868.31 655 869.5 C654.01 872.96 652.63 875.8 651 879 C650.71 879.89 650.42 880.77 650.12 881.69 C649.09 884.74 647.86 887.52 646.5 890.44 C644.58 894.59 643.09 898.56 642 903 C641.34 903 640.68 903 640 903 C639.82 903.66 639.64 904.33 639.45 905.01 C638.09 909.77 636.77 913.85 634 918 C633.51 918.99 633.01 919.98 632.5 921 C631 924 631 924 629.44 926.56 C628 929 626.99 931.36 626 934 C625.33 935.67 624.67 937.33 624 939 C623.34 939 622.68 939 622 939 C621.81 940.08 621.81 940.08 621.62 941.19 C621.01 943.96 620.12 946.4 619 949 C618.34 949 617.68 949 617 949 C616.6 950.36 616.6 950.36 616.19 951.75 C615.09 954.75 613.95 956.54 612 959 C611.67 959.99 611.34 960.98 611 962 C610.34 962 609.68 962 609 962 C608.88 963.08 608.88 963.08 608.75 964.19 C607.85 967.58 606.25 969.34 604 972 C602.49 974.62 601.63 977.05 601 980 C600.34 980 599.68 980 599 980 C598.6 980.84 598.6 980.84 598.19 981.69 C594.52 988.83 594.52 988.83 591 990 C591.06 990.76 591.12 991.53 591.19 992.31 C591 995 591 995 589.62 996.81 C588 998 588 998 586 998 C585.88 999.11 585.88 999.11 585.75 1000.25 C584.85 1003.56 583.43 1004.64 581 1007 C580.47 1008.33 580.47 1008.33 579.94 1009.69 C579.63 1010.45 579.32 1011.21 579 1012 C578.01 1012.33 577.02 1012.66 576 1013 C575.71 1013.89 575.42 1014.77 575.12 1015.69 C573.78 1019.64 571.73 1021.88 569 1025 C568.57 1025.78 568.13 1026.57 567.69 1027.38 C566 1030 564.23 1031.83 562 1034 C559.07 1036.85 557.04 1039.45 555 1043 C553.28 1045.02 551.51 1046.98 549.72 1048.94 C547.94 1050.94 547.94 1050.94 546.77 1053.27 C543.64 1058.1 539.22 1061.82 535.07 1065.77 C530.84 1069.88 527.53 1074.01 524.37 1078.99 C522.54 1081.68 520.37 1083.67 517.88 1085.75 C514.47 1088.62 511.76 1091.51 509 1095 C507.72 1096.18 506.41 1097.33 505.06 1098.44 C502.55 1100.57 500.63 1102.46 498.56 1105.06 C496.28 1107.68 494.73 1108.91 491.85 1110.67 C486.84 1113.94 482.91 1117.85 478.81 1122.19 C474.44 1126.81 470.88 1130.36 465 1133 C463.05 1134.67 463.05 1134.67 461.44 1136.5 C459.49 1138.54 458.01 1140 455.56 1141.44 C452.91 1143.05 451.2 1144.77 449.06 1147 C445.92 1150.24 443.13 1152.12 439 1154 C437.65 1155.31 436.31 1156.65 435 1158 C433.35 1159.02 431.68 1160.03 430 1161 C429.34 1161.66 428.68 1162.32 428 1163 C427.22 1163.29 426.43 1163.58 425.62 1163.88 C422.88 1164.85 422.88 1164.85 420.94 1167.12 C419 1169 419 1169 415 1169 C414.75 1169.61 414.49 1170.22 414.23 1170.84 C412.82 1173.31 411.69 1174.1 409.25 1175.5 C408.54 1175.92 407.83 1176.34 407.1 1176.77 C406.06 1177.38 406.06 1177.38 405 1178 C402.13 1179.82 399.42 1181.58 397 1184 C395.79 1184.46 395.79 1184.46 394.56 1184.94 C392.03 1185.78 392.03 1185.78 390.75 1187.37 C388.27 1189.68 385.52 1190.79 382.44 1192.19 C380.7 1192.98 380.7 1192.98 378.93 1193.79 C376 1195 376 1195 374 1195 C373.67 1195.99 373.34 1196.98 373 1198 C369.44 1199.19 369.44 1199.19 366 1200 C366 1200.66 366 1201.32 366 1202 C362.7 1202.99 359.4 1203.98 356 1205 C356 1205.66 356 1206.32 356 1207 C352.68 1208.42 349.56 1209.39 346 1210 C346 1210.66 346 1211.32 346 1212 C345.28 1212.27 344.56 1212.54 343.81 1212.81 C340.99 1213.93 340.99 1213.93 338.5 1215.5 C336.03 1216.98 333.69 1217.96 331 1219 C328.66 1220.05 326.32 1221.12 323.99 1222.2 C322 1223 322 1223 320 1223 C320 1223.66 320 1224.32 320 1225 C319.21 1225.24 318.43 1225.48 317.62 1225.73 C310.76 1227.85 310.76 1227.85 304.38 1231.06 C300.72 1233.16 297.29 1234.22 293.23 1235.29 C290.75 1235.97 290.75 1235.97 288 1238 C285.45 1238.83 282.87 1239.52 280.28 1240.22 C277.84 1240.87 277.84 1240.87 276 1243 C274.04 1243.56 272.05 1244.06 270.06 1244.5 C266.39 1245.32 264.16 1245.89 261 1248 C258.68 1248.71 256.34 1249.37 254 1250 C249.65 1250.87 249.65 1250.87 246 1253 C243.71 1253.28 241.43 1253.45 239.13 1253.62 C236.79 1253.83 236.79 1253.83 235 1256 C230.29 1257.63 225.88 1258.31 220.92 1258.66 C218.77 1258.85 218.77 1258.85 217 1261 C215.09 1261.38 215.09 1261.38 212.94 1261.56 C209.23 1261.56 209.23 1261.56 208 1263 C206.15 1263.23 204.3 1263.41 202.44 1263.56 C201.43 1263.65 200.41 1263.73 199.37 1263.82 C198.59 1263.88 197.81 1263.94 197 1264 C197 1264.66 197 1265.32 197 1266 C196.22 1266.06 195.44 1266.12 194.63 1266.18 C193.62 1266.27 192.61 1266.35 191.56 1266.44 C190.55 1266.52 189.54 1266.6 188.5 1266.68 C186.06 1266.73 186.06 1266.73 185 1268 C182.82 1268.23 180.63 1268.41 178.44 1268.56 C177.24 1268.65 176.04 1268.73 174.81 1268.82 C173.88 1268.88 172.95 1268.94 172 1269 C172 1269.66 172 1270.32 172 1271 C171.01 1271.06 170.03 1271.12 169.01 1271.18 C167.73 1271.27 166.45 1271.35 165.12 1271.44 C163.85 1271.52 162.57 1271.6 161.26 1271.68 C158.12 1271.79 158.12 1271.79 156 1273 C152.59 1273.47 149.18 1273.87 145.77 1274.25 C141.76 1274.66 141.76 1274.66 138 1276 C136.34 1276.12 134.68 1276.18 133.02 1276.21 C132.02 1276.24 131.02 1276.27 129.99 1276.3 C127.89 1276.35 125.79 1276.39 123.69 1276.43 C122.69 1276.46 121.68 1276.49 120.64 1276.52 C119.73 1276.54 118.82 1276.56 117.87 1276.58 C114.87 1276.87 114.87 1276.87 111.96 1278.5 C107.31 1280.53 102.85 1280.42 97.85 1280.39 C96.85 1280.39 95.85 1280.4 94.83 1280.4 C91.55 1280.42 88.27 1280.41 85 1280.4 C82.71 1280.4 80.43 1280.4 78.14 1280.41 C73.36 1280.41 68.58 1280.41 63.8 1280.39 C57.67 1280.37 51.54 1280.38 45.42 1280.4 C40.7 1280.41 35.99 1280.41 31.27 1280.4 C29.01 1280.4 26.75 1280.4 24.5 1280.41 C21.34 1280.42 18.18 1280.4 15.03 1280.39 C14.09 1280.39 13.16 1280.4 12.21 1280.41 C6.99 1280.36 3.6 1279.72 -1 1277 C-3.58 1276.53 -3.58 1276.53 -6.14 1276.52 C-7.07 1276.49 -7.99 1276.46 -8.94 1276.43 C-9.89 1276.41 -10.84 1276.39 -11.81 1276.38 C-13.71 1276.32 -15.62 1276.27 -17.52 1276.21 C-18.36 1276.19 -19.19 1276.18 -20.05 1276.16 C-22 1276 -22 1276 -23 1275 C-25.21 1274.81 -27.41 1274.68 -29.62 1274.56 C-34.75 1274.24 -39.07 1273.41 -44 1272 C-47.69 1271.7 -51.38 1271.5 -55.09 1271.34 C-56.05 1271.23 -57.01 1271.12 -58 1271 C-58.33 1270.34 -58.66 1269.68 -59 1269 C-61.78 1268.57 -61.78 1268.57 -65 1268.44 C-70.9 1268.1 -70.9 1268.1 -72 1267 C-73.85 1266.77 -75.7 1266.59 -77.56 1266.44 C-79.08 1266.31 -79.08 1266.31 -80.63 1266.18 C-81.8 1266.09 -81.8 1266.09 -83 1266 C-83 1265.34 -83 1264.68 -83 1264 C-84.17 1263.91 -84.17 1263.91 -85.37 1263.82 C-86.89 1263.69 -86.89 1263.69 -88.44 1263.56 C-89.45 1263.48 -90.46 1263.4 -91.5 1263.32 C-94 1263 -94 1263 -95 1262 C-98.12 1261.55 -101.23 1261.18 -104.37 1260.84 C-107.99 1260.4 -110.84 1259.83 -114 1258 C-116.09 1257.19 -118.19 1256.44 -120.29 1255.68 C-122 1255 -122 1255 -123 1254 C-124.51 1253.77 -126.04 1253.59 -127.56 1253.44 C-128.8 1253.31 -128.8 1253.31 -130.07 1253.18 C-131.02 1253.09 -131.02 1253.09 -132 1253 C-132 1252.34 -132 1251.68 -132 1251 C-133.15 1250.9 -134.31 1250.79 -135.5 1250.69 C-140 1250.13 -143.83 1248.71 -148 1247 C-151.85 1245.5 -155.64 1244.1 -159.62 1243 C-163.01 1242 -165.85 1240.58 -169 1239 C-170.15 1238.67 -171.31 1238.34 -172.5 1238 C-175.96 1237.01 -178.79 1235.6 -182 1234 C-183.18 1233.67 -184.35 1233.34 -185.56 1233 C-188.86 1232.04 -191.12 1230.82 -194 1229 C-197.89 1227.26 -201.89 1226.13 -206 1225 C-206 1224.34 -206 1223.68 -206 1223 C-206.7 1222.81 -207.4 1222.61 -208.12 1222.41 C-209.03 1222.15 -209.94 1221.89 -210.88 1221.62 C-211.78 1221.37 -212.68 1221.11 -213.62 1220.85 C-216 1220 -216 1220 -218 1218 C-219.31 1217.45 -220.65 1216.96 -222 1216.5 C-224.74 1215.57 -225.91 1215.09 -228 1213 C-230.07 1212.36 -230.07 1212.36 -232 1212 C-232 1211.34 -232 1210.68 -232 1210 C-232.72 1209.88 -233.44 1209.75 -234.19 1209.62 C-236.96 1209.01 -239.4 1208.12 -242 1207 C-242 1206.34 -242 1205.68 -242 1205 C-246.95 1203.51 -246.95 1203.51 -252 1202 C-252 1201.34 -252 1200.68 -252 1200 C-253.13 1199.73 -254.27 1199.46 -255.44 1199.19 C-257.2 1198.6 -257.2 1198.6 -259 1198 C-259.33 1197.01 -259.66 1196.02 -260 1195 C-260.93 1195.31 -260.93 1195.31 -261.88 1195.62 C-262.58 1195.75 -263.28 1195.87 -264 1196 C-266 1194 -266 1194 -267 1192 C-268.18 1191.54 -268.18 1191.54 -269.38 1191.06 C-272 1190 -272 1190 -273.4 1188.54 C-275.25 1186.76 -276.78 1186.14 -279.19 1185.31 C-279.9 1185.06 -280.62 1184.81 -281.36 1184.55 C-281.9 1184.37 -282.44 1184.19 -283 1184 C-283 1183.34 -283 1182.68 -283 1182 C-285.02 1180.92 -286.74 1180.05 -289 1179.62 C-291.75 1178.77 -293.01 1177.05 -295 1175 C-295.89 1174.48 -296.77 1173.97 -297.69 1173.44 C-300 1172 -300 1172 -301 1169 C-301.7 1168.9 -302.4 1168.79 -303.12 1168.69 C-309.23 1167.23 -312.65 1164.35 -317 1160 C-319.01 1158.66 -321.05 1157.42 -323.13 1156.21 C-325.03 1154.98 -326.43 1153.61 -328 1152 C-329.08 1151.41 -329.08 1151.41 -330.19 1150.81 C-333.64 1148.59 -336.16 1145.85 -338.94 1142.84 C-341.2 1140.82 -343.19 1140.08 -346 1139 C-347.8 1137.56 -347.8 1137.56 -349.31 1136 C-349.82 1135.48 -350.34 1134.97 -350.86 1134.44 C-352 1133 -352 1133 -352 1131 C-352.86 1130.79 -353.73 1130.59 -354.62 1130.38 C-358.84 1128.66 -361.08 1126.3 -364.12 1123 C-367.21 1119.71 -369.89 1116.97 -374 1115 C-374.33 1114.01 -374.66 1113.02 -375 1112 C-376.62 1110.78 -376.62 1110.78 -378.62 1109.74 C-383.06 1107.08 -386.51 1103.91 -390.12 1100.24 C-390.76 1099.61 -391.39 1098.97 -392.04 1098.32 C-393.36 1097 -394.68 1095.67 -395.99 1094.34 C-398.01 1092.3 -400.05 1090.27 -402.08 1088.24 C-403.37 1086.95 -404.65 1085.66 -405.94 1084.36 C-406.55 1083.75 -407.16 1083.15 -407.78 1082.52 C-412 1078.23 -412 1078.23 -412 1076 C-412.66 1076 -413.32 1076 -414 1076 C-414.39 1075.11 -414.78 1074.23 -415.19 1073.31 C-417.11 1069.79 -419.12 1067.77 -422 1065 C-424.11 1062.96 -426.21 1060.92 -428.31 1058.88 C-428.86 1058.35 -429.41 1057.83 -429.98 1057.29 C-431.38 1055.91 -432.7 1054.46 -434 1053 C-434 1052.01 -434 1051.02 -434 1050 C-434.99 1049.67 -435.98 1049.34 -437 1049 C-438.54 1047.48 -438.54 1047.48 -440.06 1045.62 C-440.57 1045.02 -441.08 1044.41 -441.6 1043.79 C-443.59 1041.25 -444.97 1039.08 -446 1036 C-446.99 1035.67 -447.98 1035.34 -449 1035 C-450.04 1033.36 -451.04 1031.69 -452 1030 C-452.77 1029.29 -452.77 1029.29 -453.56 1028.56 C-455 1027 -455 1027 -456 1023.88 C-456.5 1022.45 -456.5 1022.45 -457 1021 C-457.99 1020.67 -458.98 1020.34 -460 1020 C-460 1019.34 -460 1018.68 -460 1018 C-460.66 1018 -461.32 1018 -462 1018 C-462.23 1017.3 -462.45 1016.6 -462.69 1015.88 C-463.94 1012.8 -463.94 1012.8 -466.56 1009.94 C-468.82 1007.21 -469.28 1006.23 -470 1003 C-470.99 1002.67 -471.98 1002.34 -473 1002 C-473.14 1001.4 -473.29 1000.8 -473.44 1000.19 C-473.84 997.84 -473.84 997.84 -475.88 996.12 C-478.38 993.62 -479.41 991.18 -481 988 C-482.75 985.42 -484.55 982.89 -486.38 980.37 C-488 978 -488 978 -489.03 975.82 C-490 973.66 -490 973.66 -493 972 C-493.36 970.34 -493.7 968.67 -494 967 C-494.66 966.67 -495.32 966.34 -496 966 C-497.07 963.67 -498.06 961.38 -499 959 C-499.59 957.55 -499.59 957.55 -500.19 956.06 C-500.46 955.38 -500.72 954.7 -501 954 C-501.66 954 -502.32 954 -503 954 C-503.4 952.93 -503.4 952.93 -503.81 951.84 C-505.02 948.95 -506.45 946.34 -508 943.62 C-510.33 939.43 -511.96 935.67 -513 931 C-513.66 931 -514.32 931 -515 931 C-515.31 930.21 -515.63 929.43 -515.95 928.62 C-518.78 921.61 -518.78 921.61 -522.31 914.94 C-524 912 -524 912 -524 909 C-524.66 909 -525.32 909 -526 909 C-526.3 908.2 -526.61 907.4 -526.92 906.58 C-529.45 899.95 -532.06 893.38 -534.81 886.84 C-536.26 883.38 -537.66 879.9 -539.04 876.41 C-539.67 874.82 -540.31 873.23 -540.96 871.65 C-543.44 865.57 -545.66 859.42 -547.85 853.23 C-548.7 850.85 -549.58 848.48 -550.5 846.12 C-556.71 829.69 -562.77 811.58 -565.94 794.31 C-566.88 789.41 -568.07 784.59 -569.32 779.76 C-570.57 774.69 -571.1 770.24 -571 765 C-571.66 764.67 -572.32 764.34 -573 764 C-573.56 761.51 -573.56 761.51 -574 758.24 C-574.16 757.06 -574.33 755.88 -574.5 754.66 C-574.66 753.45 -574.83 752.25 -575 751 C-575.33 748.86 -575.66 746.71 -576 744.57 C-581.01 712.31 -581.01 712.31 -581.75 698.14 C-581.89 695.18 -581.89 695.18 -582.51 693.08 C-583.03 690.86 -583.13 688.91 -583.13 686.64 C-583.14 685.34 -583.14 685.34 -583.15 684.01 C-583.15 683.07 -583.15 682.13 -583.15 681.15 C-583.15 680.16 -583.15 679.16 -583.16 678.13 C-583.16 674.82 -583.17 671.52 -583.17 668.22 C-583.17 665.92 -583.17 663.63 -583.18 661.34 C-583.18 656.53 -583.19 651.72 -583.19 646.91 C-583.19 640.74 -583.2 634.58 -583.22 628.41 C-583.23 623.67 -583.23 618.94 -583.23 614.2 C-583.23 611.92 -583.23 609.65 -583.24 607.38 C-583.25 604.2 -583.25 601.02 -583.24 597.85 C-583.25 596.9 -583.25 595.96 -583.26 594.99 C-583.26 594.12 -583.25 593.26 -583.25 592.36 C-583.25 591.61 -583.25 590.86 -583.25 590.09 C-582.96 587.71 -582.18 586.07 -581 584 C-581.66 583.67 -582.32 583.34 -583 583 C-582.34 583 -581.68 583 -581 583 C-581.01 581.83 -581.02 580.66 -581.04 579.46 C-581.04 577.91 -581.05 576.36 -581.06 574.81 C-581.08 573.66 -581.08 573.66 -581.09 572.48 C-581.11 568.49 -580.86 564.92 -580 561 C-579.74 557.49 -579.56 553.99 -579.38 550.47 C-579 547.04 -578.11 544.26 -577 541 C-576.77 539.03 -576.6 537.05 -576.5 535.06 C-576.18 530.44 -575.39 526.43 -574 522 C-573.63 519.67 -573.29 517.34 -573 515 C-572.34 515 -571.68 515 -571 515 C-571.5 513.51 -571.5 513.51 -572 512 C-571.61 507.13 -570.81 503.52 -569 499 C-568.78 497.61 -568.6 496.21 -568.44 494.81 C-568 491 -568 491 -567 489 C-566.86 487.89 -566.71 486.77 -566.56 485.62 C-566.06 482.4 -565.41 480.82 -564 478 C-563.65 475.67 -563.32 473.34 -563 471 C-562.1 467.62 -561.11 464.32 -560 461 C-559.34 461 -558.68 461 -558 461 C-558.04 459.74 -558.08 458.48 -558.12 457.19 C-558.24 453.71 -558.06 453.09 -556 450 C-555.42 448.02 -554.91 446.01 -554.44 444 C-553.71 440.94 -552.99 437.98 -552 435 C-551.34 435 -550.68 435 -550 435 C-550.04 434.13 -550.08 433.27 -550.12 432.38 C-550 428.88 -549.24 426.25 -548 423 C-547.34 423 -546.68 423 -546 423 C-545.9 422.03 -545.79 421.06 -545.69 420.06 C-545.05 415.51 -543.55 411.31 -542 407 C-541.34 407 -540.68 407 -540 407 C-539.88 406.32 -539.75 405.64 -539.62 404.94 C-538.59 400.06 -537.48 395.62 -534.94 391.31 C-533.41 388.69 -532.47 386.93 -532 384 C-531.34 384 -530.68 384 -530 384 C-530.02 383.05 -530.04 382.1 -530.06 381.12 C-530 378 -530 378 -529 376 C-528.34 376 -527.68 376 -527 376 C-526.88 375.28 -526.75 374.56 -526.62 373.81 C-526.01 371.04 -525.12 368.6 -524 366 C-523.34 366 -522.68 366 -522 366 C-521.88 365.27 -521.75 364.54 -521.62 363.79 C-521.02 361.09 -520.19 358.92 -519 356.43 C-518.61 355.59 -518.22 354.76 -517.81 353.9 C-517.4 353.05 -516.99 352.19 -516.56 351.31 C-516.15 350.45 -515.75 349.58 -515.33 348.69 C-512.26 342.26 -512.26 342.26 -510 340 C-509.36 337.93 -509.36 337.93 -509 336 C-508.34 336 -507.68 336 -507 336 C-506.94 335.34 -506.88 334.68 -506.81 334 C-505.87 330.51 -504.29 328.11 -502.32 325.11 C-501.06 323.1 -500.02 321.08 -499 318.94 C-497.65 316.14 -496.15 313.69 -494.31 311.19 C-491.9 308.2 -491.9 308.2 -491 305 C-490.34 305 -489.68 305 -489 305 C-488.81 303.86 -488.81 303.86 -488.62 302.69 C-488 300 -488 300 -486 297 C-485.34 297 -484.68 297 -484 297 C-483.9 296.24 -483.79 295.47 -483.69 294.69 C-482.91 291.65 -482.2 291.12 -480 289 C-479.05 287.33 -478.1 285.65 -477.18 283.96 C-475.88 281.8 -474.42 279.86 -472.88 277.88 C-470.66 275 -469.27 272.41 -468 269 C-466.5 267.19 -466.5 267.19 -465 266 C-464.34 266 -463.68 266 -463 266 C-462.94 265.28 -462.88 264.56 -462.81 263.81 C-461.75 260.14 -459.72 258.65 -457 256 C-456.57 255.07 -456.13 254.14 -455.69 253.19 C-453.64 249.32 -450.98 246.88 -447.85 243.88 C-445.77 241.76 -444.45 239.58 -443 237 C-441.12 234.56 -439.22 232.14 -437 230 C-436.34 230 -435.68 230 -435 230 C-434.92 229.26 -434.83 228.52 -434.74 227.76 C-433.84 224.42 -432.61 223.18 -430.11 220.82 C-429.31 220.06 -428.52 219.29 -427.71 218.5 C-426.88 217.72 -426.04 216.93 -425.19 216.12 C-418.78 210.33 -418.78 210.33 -413.83 203.34 C-411.61 199.29 -408.88 196.54 -405.56 193.38 C-405 192.83 -404.44 192.28 -403.87 191.72 C-402.76 190.64 -401.66 189.57 -400.55 188.5 C-397.66 185.7 -394.83 182.84 -392.01 179.97 C-381.5 169.32 -381.5 169.32 -376.79 166.84 C-371.81 163.56 -367.96 158.95 -363.88 154.63 C-363.2 153.92 -362.52 153.22 -361.81 152.49 C-361.2 151.85 -360.59 151.2 -359.96 150.53 C-357.65 148.73 -355.88 148.36 -353 148 C-353 147.34 -353 146.68 -353 146 C-349.67 142.57 -345.93 139.61 -341.94 137 C-339.37 135.25 -337.56 133.6 -335.44 131.38 C-332.73 128.57 -330.66 127.37 -327 126 C-325.17 124.55 -323.45 123.01 -321.71 121.46 C-319.63 119.68 -317.35 118.38 -315 117 C-314.67 116.34 -314.34 115.68 -314 115 C-313.22 114.69 -312.43 114.38 -311.62 114.06 C-308.95 112.98 -307.96 112.04 -306 110 C-301.44 107 -301.44 107 -299 107 C-299 106.34 -299 105.68 -299 105 C-298.09 104.57 -297.19 104.13 -296.25 103.69 C-293.54 102.28 -291.39 100.85 -289 99 C-288.13 98.48 -287.27 97.97 -286.38 97.44 C-283.92 96.08 -283.92 96.08 -282 94 C-280.68 94 -279.36 94 -278 94 C-277.79 93.4 -277.59 92.8 -277.38 92.19 C-275.43 89.1 -273.34 88.49 -270 87 C-268.27 86.18 -266.54 85.34 -264.81 84.5 C-263.55 83.9 -263.55 83.9 -262.27 83.28 C-260.09 82.05 -258.71 80.8 -257 79 C-253.73 77.45 -250.56 76.61 -247 76 C-247 75.34 -247 74.68 -247 74 C-243.68 72.58 -240.56 71.61 -237 71 C-237 70.34 -237 69.68 -237 69 C-233.27 66.97 -231.33 66 -227 66 C-227 65.34 -227 64.68 -227 64 C-220.38 61 -220.38 61 -217 61 C-217 60.34 -217 59.68 -217 59 C-215.02 58.67 -213.04 58.34 -211 58 C-211 57.34 -211 56.68 -211 56 C-207.68 54.58 -204.56 53.61 -201 53 C-201 52.34 -201 51.68 -201 51 C-199.93 50.77 -198.86 50.55 -197.75 50.31 C-192.89 49.11 -188.44 47.15 -183.86 45.18 C-180.6 43.84 -177.41 42.85 -174 42 C-174 41.34 -174 40.68 -174 40 C-172.99 39.73 -171.98 39.46 -170.94 39.19 C-167.85 38.31 -165.03 37.11 -162.1 35.79 C-158.37 34.39 -154.46 33.61 -150.57 32.75 C-147.86 32.18 -147.86 32.18 -146 30 C-143.29 29.22 -140.62 28.51 -137.88 27.88 C-137.12 27.69 -136.37 27.51 -135.59 27.32 C-133.73 26.88 -131.86 26.44 -130 26 C-130 25.67 -130 25.34 -130 25 C-127.36 25 -124.72 25 -122 25 C-122 24.34 -122 23.68 -122 23 C-115.76 20.52 -110.72 19.68 -104 20 C-104 19.34 -104 18.68 -104 18 C-103.22 17.87 -102.44 17.73 -101.63 17.6 C-100.11 17.33 -100.11 17.33 -98.56 17.06 C-97.55 16.89 -96.54 16.71 -95.5 16.54 C-93.07 16.25 -93.07 16.25 -92 15 C-88.91 14.42 -85.8 13.97 -82.69 13.5 C-80.09 13.28 -80.09 13.28 -79 12 C-77.32 11.77 -75.63 11.59 -73.94 11.44 C-73.02 11.35 -72.1 11.27 -71.15 11.18 C-70.44 11.12 -69.73 11.06 -69 11 C-69 10.67 -69 10.34 -69 10 C-68.35 9.95 -67.7 9.9 -67.02 9.85 C-66.15 9.78 -65.28 9.7 -64.38 9.62 C-63.52 9.56 -62.66 9.49 -61.77 9.41 C-58.93 9.07 -58.93 9.07 -56.04 7.99 C-52.91 6.97 -50.33 6.7 -47.06 6.56 C-40.76 6.17 -34.77 5.06 -28.61 3.72 C-21.66 2.33 -15.06 1.86 -8 1.94 C-7.23 1.94 -6.45 1.95 -5.65 1.95 C-3.77 1.96 -1.88 1.98 0 2 C0 1.34 0 0.68 0 0 Z " fill="#005640" transform="translate(583,0)"/>
<path d="M0 0 C1.32 0.01 1.32 0.01 2.66 0.02 C4.05 0.01 4.05 0.01 5.48 0.01 C8.63 0 11.79 0.01 14.94 0.02 C17.21 0.02 19.48 0.02 21.75 0.02 C28.02 0.01 34.29 0.02 40.55 0.03 C46.61 0.04 52.66 0.04 58.72 0.03 C71.11 0.03 83.5 0.04 95.89 0.05 C108.17 0.06 120.44 0.07 132.71 0.07 C133.86 0.07 133.86 0.07 135.02 0.07 C138.89 0.07 142.77 0.07 146.64 0.07 C174.08 0.08 201.52 0.09 228.96 0.11 C255.62 0.13 282.28 0.14 308.95 0.15 C310.18 0.15 310.18 0.15 311.44 0.15 C319.69 0.16 327.93 0.16 336.18 0.16 C352.99 0.17 369.8 0.17 386.6 0.18 C387.76 0.18 387.76 0.18 388.94 0.18 C440.57 0.2 492.2 0.23 543.82 0.26 C544.72 4.11 544.95 7.66 544.95 11.61 C544.95 12.9 544.95 14.19 544.95 15.51 C544.95 16.94 544.95 18.37 544.94 19.8 C544.94 21.31 544.94 22.83 544.95 24.35 C544.95 28.52 544.94 32.7 544.94 36.87 C544.93 41.37 544.94 45.87 544.94 50.37 C544.94 58.16 544.93 65.96 544.93 73.76 C544.92 85.03 544.92 96.3 544.92 107.57 C544.91 125.86 544.91 144.15 544.9 162.44 C544.89 180.2 544.88 197.97 544.88 215.74 C544.88 216.83 544.88 217.93 544.88 219.06 C544.88 224.55 544.87 230.04 544.87 235.53 C544.86 281.11 544.84 326.69 544.82 372.26 C532.19 372.15 519.56 372.04 506.93 371.92 C501.07 371.87 495.2 371.81 489.34 371.76 C483.69 371.72 478.03 371.66 472.38 371.61 C470.22 371.59 468.05 371.57 465.89 371.55 C462.87 371.53 459.86 371.5 456.84 371.47 C455.94 371.46 455.03 371.46 454.1 371.45 C447.94 371.38 447.94 371.38 446.82 370.26 C446.71 367.72 446.67 365.21 446.66 362.66 C446.66 361.86 446.65 361.05 446.65 360.22 C446.63 357.5 446.63 354.78 446.62 352.06 C446.61 350.12 446.6 348.18 446.59 346.24 C446.56 340.95 446.54 335.67 446.52 330.38 C446.5 324.86 446.47 319.34 446.44 313.82 C446.39 303.37 446.35 292.91 446.3 282.45 C446.26 270.55 446.2 258.64 446.15 246.74 C446.03 222.25 445.92 197.75 445.82 173.26 C444.55 174.21 443.28 175.16 442.02 176.1 C441.31 176.63 440.6 177.16 439.87 177.7 C437.09 179.82 434.43 182.05 431.76 184.32 C430.94 185.02 430.94 185.02 430.11 185.73 C425.14 189.97 420.21 194.26 415.28 198.56 C410.72 202.52 406.06 206.35 401.37 210.15 C398.79 212.29 396.3 214.51 393.82 216.76 C389.6 220.61 385.23 224.23 380.79 227.83 C371.82 235.18 363.12 242.87 354.36 250.47 C349.82 254.41 345.25 258.3 340.66 262.17 C336.72 265.5 332.8 268.84 328.88 272.2 C328.31 272.7 327.73 273.19 327.13 273.7 C324.15 276.26 321.18 278.81 318.21 281.37 C312.88 285.96 307.54 290.52 302.07 294.95 C298.56 297.8 295.16 300.72 291.82 303.76 C287.6 307.6 283.24 311.22 278.81 314.82 C271.03 321.19 263.41 327.76 256.01 334.57 C252.16 338.11 248.21 341.35 244.05 344.5 C241.64 346.41 239.39 348.43 237.13 350.51 C233.23 354.08 229.2 357.36 225.01 360.57 C219.57 364.77 214.5 369.22 209.5 373.92 C205.41 377.76 201.15 381.33 196.78 384.84 C191.23 389.38 185.86 394.12 180.47 398.83 C179.09 400.03 177.71 401.22 176.33 402.4 C172.62 405.6 169.12 408.92 165.7 412.42 C163.88 414.2 162.01 415.85 160.07 417.5 C155.91 421.11 152.13 424.98 148.38 429.01 C147.73 429.71 147.08 430.41 146.41 431.13 C135.22 443.24 125.5 456.24 116.82 470.26 C116.33 471.01 115.84 471.77 115.33 472.54 C107.39 485.05 102.11 498.92 98.36 513.2 C97.83 515.24 97.27 517.28 96.7 519.32 C93.78 530.12 91.82 541.03 91.82 552.26 C208.97 552.59 326.12 552.92 446.82 553.26 C446.82 525.54 446.82 497.82 446.82 469.26 C450.23 465.85 451.46 465.91 456.09 465.88 C456.94 465.89 457.8 465.9 458.68 465.91 C459.59 465.9 460.5 465.9 461.43 465.9 C464.43 465.9 467.43 465.91 470.42 465.93 C472.5 465.94 474.58 465.94 476.66 465.94 C481.02 465.94 485.37 465.96 489.73 465.98 C495.32 466.01 500.92 466.02 506.52 466.02 C510.81 466.03 515.1 466.04 519.39 466.05 C521.46 466.06 523.52 466.06 525.59 466.06 C528.46 466.07 531.34 466.09 534.22 466.1 C535.08 466.1 535.94 466.1 536.83 466.1 C542.71 466.15 542.71 466.15 543.82 467.26 C543.93 469.63 543.98 471.96 543.98 474.33 C543.99 475.08 543.99 475.83 544 476.6 C544.01 479.12 544.02 481.65 544.03 484.17 C544.04 485.98 544.05 487.78 544.06 489.58 C544.08 494.49 544.11 499.41 544.13 504.32 C544.15 509.44 544.17 514.57 544.2 519.7 C544.25 529.41 544.3 539.12 544.34 548.84 C544.39 559.9 544.44 570.95 544.5 582.01 C544.61 604.76 544.72 627.51 544.82 650.26 C492.21 650.28 439.6 650.3 386.99 650.3 C385.82 650.3 385.82 650.3 384.63 650.3 C367.72 650.31 350.82 650.31 333.91 650.31 C325.62 650.31 317.33 650.32 309.04 650.32 C308.21 650.32 307.39 650.32 306.54 650.32 C279.77 650.32 253.01 650.33 226.24 650.34 C198.75 650.35 171.25 650.35 143.76 650.36 C139.88 650.36 136 650.36 132.12 650.36 C131.36 650.36 130.59 650.36 129.81 650.36 C117.49 650.36 105.18 650.36 92.86 650.37 C80.5 650.37 68.13 650.38 55.77 650.38 C49.06 650.37 42.36 650.38 35.65 650.38 C29.52 650.39 23.4 650.39 17.27 650.38 C15.04 650.38 12.81 650.38 10.59 650.39 C7.58 650.39 4.57 650.39 1.57 650.39 C0.68 650.39 -0.2 650.39 -1.11 650.39 C-7.06 650.38 -7.06 650.38 -8.18 649.26 C-8.29 646.98 -8.33 644.69 -8.34 642.41 C-8.34 641.69 -8.35 640.97 -8.35 640.23 C-8.37 637.82 -8.38 635.41 -8.38 633 C-8.38 632.17 -8.39 631.33 -8.39 630.47 C-8.4 626.01 -8.41 621.55 -8.42 617.09 C-8.42 613.48 -8.44 609.87 -8.46 606.25 C-8.97 525.64 4.97 452.61 55.63 387.79 C56.7 386.42 57.76 385.05 58.82 383.67 C63.96 377.08 69.59 371 75.3 364.9 C77.24 362.81 79.16 360.7 81.08 358.58 C88.22 350.72 95.55 343.08 103.64 336.16 C105.83 334.25 107.97 332.29 110.1 330.31 C115.3 325.48 120.64 320.9 126.17 316.44 C128.8 314.28 131.31 312.05 133.82 309.76 C138.04 305.92 142.4 302.3 146.83 298.71 C154.33 292.57 161.68 286.25 168.82 279.7 C172.64 276.23 176.61 273.04 180.7 269.89 C185.87 265.9 190.73 261.7 195.5 257.24 C199.48 253.54 203.62 250.11 207.85 246.7 C211.34 243.84 214.74 240.91 218.13 237.95 C218.77 237.4 219.41 236.84 220.06 236.27 C221.35 235.15 222.63 234.03 223.92 232.91 C231.87 226.01 239.89 219.2 247.93 212.41 C251.91 209.04 255.87 205.66 259.82 202.26 C276.91 187.6 276.91 187.6 285.38 180.76 C289.87 177.12 294.12 173.28 298.35 169.35 C302.4 165.6 306.62 162.1 310.92 158.63 C316.04 154.45 321.02 150.12 326.02 145.81 C328.95 143.29 331.89 140.78 334.82 138.26 C335.99 137.26 337.16 136.26 338.32 135.26 C340.66 133.26 342.99 131.26 345.32 129.26 C345.9 128.77 346.48 128.27 347.07 127.76 C348.24 126.76 349.4 125.77 350.56 124.77 C353.53 122.23 356.5 119.68 359.46 117.12 C360.67 116.08 361.87 115.05 363.07 114.01 C363.65 113.51 364.23 113.02 364.83 112.5 C369.13 108.81 373.54 105.26 378.03 101.79 C379.93 100.37 379.93 100.37 380.82 98.26 C343.9 98.24 306.97 98.22 270.04 98.21 C265.69 98.21 261.33 98.21 256.98 98.21 C256.11 98.21 255.24 98.21 254.35 98.21 C240.29 98.2 226.23 98.19 212.18 98.18 C197.76 98.18 183.35 98.17 168.94 98.17 C160.03 98.17 151.13 98.16 142.23 98.15 C136.14 98.15 130.04 98.15 123.95 98.15 C120.42 98.15 116.9 98.15 113.38 98.14 C109.57 98.14 105.76 98.14 101.95 98.14 C100.83 98.14 99.7 98.14 98.54 98.13 C97.02 98.14 97.02 98.14 95.47 98.14 C94.15 98.14 94.15 98.14 92.81 98.14 C90.82 98.04 90.82 98.04 89.82 99.26 C89.7 101.94 89.64 104.59 89.62 107.27 C89.61 108.11 89.6 108.95 89.59 109.81 C89.56 112.6 89.53 115.39 89.51 118.17 C89.49 120.1 89.46 122.03 89.44 123.95 C89.39 129.03 89.34 134.12 89.29 139.2 C89.24 144.38 89.18 149.56 89.13 154.74 C89.02 164.91 88.92 175.09 88.82 185.26 C76.32 185.29 63.82 185.3 51.32 185.31 C45.52 185.32 39.72 185.33 33.91 185.34 C28.32 185.35 22.72 185.35 17.13 185.36 C14.99 185.36 12.85 185.36 10.71 185.37 C7.72 185.37 4.73 185.38 1.75 185.38 C0.85 185.38 -0.04 185.38 -0.96 185.39 C-7.06 185.38 -7.06 185.38 -8.18 184.26 C-8.28 181.91 -8.32 179.59 -8.31 177.25 C-8.31 176.5 -8.32 175.76 -8.32 175 C-8.32 172.49 -8.32 169.98 -8.32 167.47 C-8.33 165.68 -8.33 163.89 -8.33 162.1 C-8.34 157.23 -8.34 152.35 -8.34 147.48 C-8.35 143.41 -8.35 139.35 -8.35 135.29 C-8.36 125.7 -8.36 116.12 -8.36 106.54 C-8.36 96.64 -8.37 86.73 -8.39 76.83 C-8.4 68.35 -8.41 59.86 -8.41 51.37 C-8.41 46.3 -8.41 41.22 -8.42 36.15 C-8.43 31.38 -8.43 26.61 -8.42 21.84 C-8.42 20.08 -8.42 18.32 -8.43 16.57 C-8.44 14.18 -8.43 11.79 -8.42 9.41 C-8.43 8.7 -8.44 8 -8.44 7.28 C-8.39 0.57 -6.45 0.04 0 0 Z " fill="#FAFCFC" transform="translate(358.177661716938,313.7379830479622)"/>
<path d="M0 0 C4.62 0 9.24 0 14 0 C14 0.33 14 0.66 14 1 C9.38 1 4.76 1 0 1 C0 0.67 0 0.34 0 0 Z " fill="#000100" transform="translate(698,1277)"/>
<path d="M0 0 C4.62 0 9.24 0 14 0 C14 0.33 14 0.66 14 1 C9.38 1 4.76 1 0 1 C0 0.67 0 0.34 0 0 Z " fill="#000100" transform="translate(568,1277)"/>
<path d="M0 0 C0.33 0 0.66 0 1 0 C1 4.62 1 9.24 1 14 C0.67 14 0.34 14 0 14 C0 9.38 0 4.76 0 0 Z " fill="#000100" transform="translate(1277,698)"/>
<path d="M0 0 C0.33 0 0.66 0 1 0 C1 4.62 1 9.24 1 14 C0.67 14 0.34 14 0 14 C0 9.38 0 4.76 0 0 Z " fill="#000100" transform="translate(1277,568)"/>
<path d="M0 0 C2.64 0 5.28 0 8 0 C8 0.33 8 0.66 8 1 C5.36 1 2.72 1 0 1 C0 0.67 0 0.34 0 0 Z " fill="#000100" transform="translate(531,1272)"/>
<path d="M0 0 C0.33 0 0.66 0 1 0 C1 2.64 1 5.28 1 8 C0.67 8 0.34 8 0 8 C0 5.36 0 2.72 0 0 Z " fill="#000100" transform="translate(1272,741)"/>
<path d="M0 0 C2.31 0 4.62 0 7 0 C7 0.33 7 0.66 7 1 C4.69 1 2.38 1 0 1 C0 0.67 0 0.34 0 0 Z " fill="#000100" transform="translate(727,1274)"/>
<path d="M0 0 C2.31 0 4.62 0 7 0 C7 0.33 7 0.66 7 1 C4.69 1 2.38 1 0 1 C0 0.67 0 0.34 0 0 Z " fill="#000100" transform="translate(741,1272)"/>
<path d="M0 0 C2.31 0 4.62 0 7 0 C7 0.33 7 0.66 7 1 C4.69 1 2.38 1 0 1 C0 0.67 0 0.34 0 0 Z " fill="#000100" transform="translate(757,1269)"/>
<path d="M0 0 C2.31 0 4.62 0 7 0 C7 0.33 7 0.66 7 1 C4.69 1 2.38 1 0 1 C0 0.67 0 0.34 0 0 Z " fill="#000100" transform="translate(517,1269)"/>
<path d="M0 0 C0.33 0 0.66 0 1 0 C1 2.31 1 4.62 1 7 C0.67 7 0.34 7 0 7 C0 4.69 0 2.38 0 0 Z " fill="#000100" transform="translate(1269,756)"/>
<path d="M0 0 C0.33 0 0.66 0 1 0 C1 2.31 1 4.62 1 7 C0.67 7 0.34 7 0 7 C0 4.69 0 2.38 0 0 Z " fill="#000100" transform="translate(1272,532)"/>
<path d="M0 0 C0.33 0 0.66 0 1 0 C1 2.31 1 4.62 1 7 C0.67 7 0.34 7 0 7 C0 4.69 0 2.38 0 0 Z " fill="#000100" transform="translate(1269,516)"/>
<path d="M0 0 C1.98 0 3.96 0 6 0 C6 0.33 6 0.66 6 1 C4.02 1 2.04 1 0 1 C0 0.67 0 0.34 0 0 Z " fill="#000100" transform="translate(554,1275)"/>
<path d="M0 0 C1.98 0 3.96 0 6 0 C6 0.33 6 0.66 6 1 C4.02 1 2.04 1 0 1 C0 0.67 0 0.34 0 0 Z " fill="#000100" transform="translate(802,1259)"/>
<path d="M0 0 C0.33 0 0.66 0 1 0 C1 1.98 1 3.96 1 6 C0.67 6 0.34 6 0 6 C0 4.02 0 2.04 0 0 Z " fill="#000100" transform="translate(1275,720)"/>
<path d="M0 0 C1.65 0 3.3 0 5 0 C5 0.33 5 0.66 5 1 C3.35 1 1.7 1 0 1 C0 0.67 0 0.34 0 0 Z " fill="#000100" transform="translate(769,1267)"/>
<path d="M0 0 C1.65 0 3.3 0 5 0 C5 0.33 5 0.66 5 1 C3.35 1 1.7 1 0 1 C0 0.67 0 0.34 0 0 Z " fill="#000100" transform="translate(506,1267)"/>
<path d="M0 0 C1.65 0 3.3 0 5 0 C5 0.33 5 0.66 5 1 C3.35 1 1.7 1 0 1 C0 0.67 0 0.34 0 0 Z " fill="#000100" transform="translate(782,1264)"/>
<path d="M0 0 C1.65 0 3.3 0 5 0 C5 0.33 5 0.66 5 1 C3.35 1 1.7 1 0 1 C0 0.67 0 0.34 0 0 Z " fill="#000100" transform="translate(493,1264)"/>
<path d="M0 0 C1.65 0 3.3 0 5 0 C5 0.33 5 0.66 5 1 C3.35 1 1.7 1 0 1 C0 0.67 0 0.34 0 0 Z " fill="#000100" transform="translate(820,1254)"/>
<path d="M0 0 C1.65 0 3.3 0 5 0 C5 0.33 5 0.66 5 1 C3.35 1 1.7 1 0 1 C0 0.67 0 0.34 0 0 Z " fill="#000100" transform="translate(455,1254)"/>
<path d="M0 0 C0.33 0 0.66 0 1 0 C1 1.65 1 3.3 1 5 C0.67 5 0.34 5 0 5 C0 3.35 0 1.7 0 0 Z " fill="#000100" transform="translate(1254,820)"/>
<path d="M0 0 C0.33 0 0.66 0 1 0 C1 1.65 1 3.3 1 5 C0.67 5 0.34 5 0 5 C0 3.35 0 1.7 0 0 Z " fill="#000100" transform="translate(1259,802)"/>
<path d="M0 0 C0.33 0 0.66 0 1 0 C1 1.65 1 3.3 1 5 C0.67 5 0.34 5 0 5 C0 3.35 0 1.7 0 0 Z " fill="#000100" transform="translate(1264,782)"/>
<path d="M0 0 C0.33 0 0.66 0 1 0 C1 1.65 1 3.3 1 5 C0.67 5 0.34 5 0 5 C0 3.35 0 1.7 0 0 Z " fill="#000100" transform="translate(1267,769)"/>
<path d="M0 0 C0.33 0 0.66 0 1 0 C1 1.65 1 3.3 1 5 C0.67 5 0.34 5 0 5 C0 3.35 0 1.7 0 0 Z " fill="#000100" transform="translate(1267,506)"/>
<path d="M0 0 C0.33 0 0.66 0 1 0 C1 1.65 1 3.3 1 5 C0.67 5 0.34 5 0 5 C0 3.35 0 1.7 0 0 Z " fill="#000100" transform="translate(1264,493)"/>
<path d="M0 0 C0.33 0 0.66 0 1 0 C1 1.65 1 3.3 1 5 C0.67 5 0.34 5 0 5 C0 3.35 0 1.7 0 0 Z " fill="#000100" transform="translate(1254,455)"/>
<path d="M0 0 C4 1 4 1 4 1 Z " fill="#000100" transform="translate(723,1275)"/>
<path d="M0 0 C4 1 4 1 4 1 Z " fill="#000100" transform="translate(379,1226)"/>
<path d="M0 0 C1 4 1 4 1 4 Z " fill="#000100" transform="translate(1226,897)"/>
<path d="M0 0 C1 4 1 4 1 4 Z " fill="#000100" transform="translate(1275,553)"/>
<path d="M0 0 C3 1 3 1 3 1 Z " fill="#000100" transform="translate(792,1262)"/>
<path d="M0 0 C3 1 3 1 3 1 Z " fill="#000100" transform="translate(485,1262)"/>
<path d="M0 0 C3 1 3 1 3 1 Z " fill="#000100" transform="translate(446,1251)"/>
<path d="M0 0 C3 1 3 1 3 1 Z " fill="#000100" transform="translate(838,1249)"/>
<path d="M0 0 C3 1 3 1 3 1 Z " fill="#000100" transform="translate(431,1246)"/>
<path d="M0 0 C3 1 3 1 3 1 Z " fill="#000100" transform="translate(866,1239)"/>
<path d="M0 0 C3 1 3 1 3 1 Z " fill="#000100" transform="translate(403,1236)"/>
<path d="M0 0 C3 1 3 1 3 1 Z " fill="#000100" transform="translate(893,1228)"/>
<path d="M0 0 C3 1 3 1 3 1 Z " fill="#000100" transform="translate(362,1218)"/>
<path d="M0 0 C3 1 3 1 3 1 Z " fill="#000100" transform="translate(352,1213)"/>
<path d="M0 0 C3 1 3 1 3 1 Z " fill="#000100" transform="translate(305,1187)"/>
<path d="M0 0 C0.33 0.66 0.66 1.32 1 2 C0.34 1.67 -0.32 1.34 -1 1 C-0.67 0.67 -0.34 0.34 0 0 Z " fill="#000100" transform="translate(1188,970)"/>
<path d="" fill="#000100" transform="translate(0,0)"/>
<path d="" fill="#000100" transform="translate(0,0)"/>
<path d="" fill="#000100" transform="translate(0,0)"/>
<path d="" fill="#000100" transform="translate(0,0)"/>
<path d="" fill="#000100" transform="translate(0,0)"/>
<path d="" fill="#000100" transform="translate(0,0)"/>
<path d="" fill="#000100" transform="translate(0,0)"/>
<path d="" fill="#000100" transform="translate(0,0)"/>
<path d="" fill="#000100" transform="translate(0,0)"/>
<path d="" fill="#000100" transform="translate(0,0)"/>
<path d="" fill="#000100" transform="translate(0,0)"/>
<path d="" fill="#000100" transform="translate(0,0)"/>
<path d="M0 0 C2 1 2 1 2 1 Z " fill="#000100" transform="translate(812,1257)"/>
<path d="M0 0 C2 1 2 1 2 1 Z " fill="#000100" transform="translate(466,1257)"/>
<path d="M0 0 C2 1 2 1 2 1 Z " fill="#000100" transform="translate(440,1249)"/>
<path d="M0 0 C2 1 2 1 2 1 Z " fill="#000100" transform="translate(847,1246)"/>
<path d="M0 0 C2 1 2 1 2 1 Z " fill="#000100" transform="translate(853,1244)"/>
<path d="M0 0 C2 1 2 1 2 1 Z " fill="#000100" transform="translate(425,1244)"/>
<path d="M0 0 C2 1 2 1 2 1 Z " fill="#000100" transform="translate(861,1241)"/>
<path d="M0 0 C2 1 2 1 2 1 Z " fill="#000100" transform="translate(417,1241)"/>
<path d="M0 0 C2 1 2 1 2 1 Z " fill="#000100" transform="translate(412,1239)"/>
<path d="M0 0 C2 1 2 1 2 1 Z " fill="#000100" transform="translate(874,1236)"/>
<path d="M0 0 C2 1 2 1 2 1 Z " fill="#000100" transform="translate(879,1234)"/>
<path d="M0 0 C2 1 2 1 2 1 Z " fill="#000100" transform="translate(399,1234)"/>
<path d="M0 0 C2 1 2 1 2 1 Z " fill="#000100" transform="translate(887,1231)"/>
<path d="M0 0 C2 1 2 1 2 1 Z " fill="#000100" transform="translate(391,1231)"/>
<path d="M0 0 C2 1 2 1 2 1 Z " fill="#000100" transform="translate(905,1223)"/>
<path d="M0 0 C2 1 2 1 2 1 Z " fill="#000100" transform="translate(915,1218)"/>
<path d="M0 0 C2 1 2 1 2 1 Z " fill="#000100" transform="translate(358,1216)"/>
<path d="M0 0 C2 1 2 1 2 1 Z " fill="#000100" transform="translate(925,1213)"/>
<path d="M0 0 C2 1 2 1 2 1 Z " fill="#000100" transform="translate(935,1208)"/>
<path d="M0 0 C2 1 2 1 2 1 Z " fill="#000100" transform="translate(343,1208)"/>
<path d="M0 0 C2 1 2 1 2 1 Z " fill="#000100" transform="translate(941,1205)"/>
<path d="M0 0 C2 1 2 1 2 1 Z " fill="#000100" transform="translate(333,1203)"/>
<path d="M0 0 C2 1 2 1 2 1 Z " fill="#000100" transform="translate(959,1195)"/>
<path d="M0 0 C2 1 2 1 2 1 Z " fill="#000100" transform="translate(976,1185)"/>
<path d="M0 0 C2 1 2 1 2 1 Z " fill="#000100" transform="translate(294,1180)"/>
<path d="M0 0 C2 1 2 1 2 1 Z " fill="#000100" transform="translate(1007,1164)"/>
<path d="M0 0 C2 1 2 1 2 1 Z " fill="#000100" transform="translate(1038,1141)"/>
<path d="M0 0 C2 1 2 1 2 1 Z " fill="#000100" transform="translate(240,1141)"/>
<path d="" fill="#000100" transform="translate(0,0)"/>
<path d="" fill="#000100" transform="translate(0,0)"/>
<path d="" fill="#000100" transform="translate(0,0)"/>
<path d="" fill="#000100" transform="translate(0,0)"/>
<path d="" fill="#000100" transform="translate(0,0)"/>
<path d="" fill="#000100" transform="translate(0,0)"/>
<path d="" fill="#000100" transform="translate(0,0)"/>
<path d="" fill="#000100" transform="translate(0,0)"/>
<path d="" fill="#000100" transform="translate(0,0)"/>
<path d="" fill="#000100" transform="translate(0,0)"/>
<path d="" fill="#000100" transform="translate(0,0)"/>
<path d="" fill="#000100" transform="translate(0,0)"/>
<path d="" fill="#000100" transform="translate(0,0)"/>
<path d="" fill="#000100" transform="translate(0,0)"/>
<path d="" fill="#000100" transform="translate(0,0)"/>
<path d="" fill="#000100" transform="translate(0,0)"/>
<path d="" fill="#000100" transform="translate(0,0)"/>
<path d="" fill="#000100" transform="translate(0,0)"/>
<path d="" fill="#000100" transform="translate(0,0)"/>
<path d="" fill="#000100" transform="translate(0,0)"/>
<path d="" fill="#000100" transform="translate(0,0)"/>
<path d="" fill="#000100" transform="translate(0,0)"/>
<path d="" fill="#000100" transform="translate(0,0)"/>
<path d="" fill="#000100" transform="translate(0,0)"/>
<path d="M0 0 C2 1 2 1 2 1 Z " fill="#000100" transform="translate(1210,349)"/>
<path d="" fill="#000100" transform="translate(0,0)"/>
<path d="" fill="#000100" transform="translate(0,0)"/>
<path d="" fill="#000100" transform="translate(0,0)"/>
<path d="" fill="#000100" transform="translate(0,0)"/>
<path d="" fill="#000100" transform="translate(0,0)"/>
<path d="" fill="#000100" transform="translate(0,0)"/>
<path d="" fill="#000100" transform="translate(0,0)"/>
<path d="" fill="#000100" transform="translate(0,0)"/>
<path d="" fill="#000100" transform="translate(0,0)"/>
<path d="" fill="#000100" transform="translate(0,0)"/>
<path d="" fill="#000100" transform="translate(0,0)"/>
<path d="" fill="#000100" transform="translate(0,0)"/>
<path d="" fill="#000100" transform="translate(0,0)"/>
<path d="" fill="#000100" transform="translate(0,0)"/>
<path d="" fill="#000100" transform="translate(0,0)"/>
<path d="" fill="#000100" transform="translate(0,0)"/>
<path d="" fill="#000100" transform="translate(0,0)"/>
<path d="" fill="#000100" transform="translate(0,0)"/>
<path d="" fill="#000100" transform="translate(0,0)"/>
<path d="" fill="#000100" transform="translate(0,0)"/>
<path d="" fill="#000100" transform="translate(0,0)"/>
<path d="" fill="#000100" transform="translate(0,0)"/>
<path d="" fill="#000100" transform="translate(0,0)"/>
<path d="" fill="#000100" transform="translate(0,0)"/>
<path d="" fill="#000100" transform="translate(0,0)"/>
<path d="" fill="#000100" transform="translate(0,0)"/>
<path d="" fill="#000100" transform="translate(0,0)"/>
<path d="" fill="#000100" transform="translate(0,0)"/>
<path d="" fill="#000100" transform="translate(0,0)"/>
<path d="" fill="#000100" transform="translate(0,0)"/>
<path d="" fill="#000100" transform="translate(0,0)"/>
<path d="" fill="#000100" transform="translate(0,0)"/>
<path d="" fill="#000100" transform="translate(0,0)"/>
<path d="" fill="#000100" transform="translate(0,0)"/>
<path d="" fill="#000100" transform="translate(0,0)"/>
<path d="" fill="#000100" transform="translate(0,0)"/>
<path d="" fill="#000100" transform="translate(0,0)"/>
<path d="" fill="#000100" transform="translate(0,0)"/>
<path d="" fill="#000100" transform="translate(0,0)"/>
<path d="" fill="#000100" transform="translate(0,0)"/>
<path d="" fill="#000100" transform="translate(0,0)"/>
<path d="" fill="#000100" transform="translate(0,0)"/>
<path d="" fill="#000100" transform="translate(0,0)"/>
<path d="" fill="#000100" transform="translate(0,0)"/>
<path d="" fill="#000100" transform="translate(0,0)"/>
<path d="" fill="#000100" transform="translate(0,0)"/>
<path d="" fill="#000100" transform="translate(0,0)"/>
<path d="" fill="#000100" transform="translate(0,0)"/>
<path d="" fill="#000100" transform="translate(0,0)"/>
<path d="" fill="#000100" transform="translate(0,0)"/>
<path d="" fill="#000100" transform="translate(0,0)"/>
<path d="" fill="#000100" transform="translate(0,0)"/>
<path d="" fill="#000100" transform="translate(0,0)"/>
<path d="" fill="#000100" transform="translate(0,0)"/>
<path d="" fill="#000100" transform="translate(0,0)"/>
<path d="" fill="#000100" transform="translate(0,0)"/>
<path d="" fill="#000100" transform="translate(0,0)"/>
<path d="" fill="#000100" transform="translate(0,0)"/>
<path d="" fill="#000100" transform="translate(0,0)"/>
<path d="" fill="#000100" transform="translate(0,0)"/>
<path d="" fill="#000100" transform="translate(0,0)"/>
<path d="" fill="#000100" transform="translate(0,0)"/>
<path d="" fill="#005741" transform="translate(0,0)"/>
<path d="" fill="#000100" transform="translate(0,0)"/>
<path d="" fill="#000100" transform="translate(0,0)"/>
<path d="" fill="#000100" transform="translate(0,0)"/>
<path d="" fill="#000100" transform="translate(0,0)"/>
<path d="" fill="#000100" transform="translate(0,0)"/>
<path d="" fill="#000100" transform="translate(0,0)"/>
<path d="" fill="#000100" transform="translate(0,0)"/>
<path d="" fill="#000100" transform="translate(0,0)"/>
<path d="" fill="#000100" transform="translate(0,0)"/>
<path d="" fill="#000100" transform="translate(0,0)"/>
<path d="" fill="#000100" transform="translate(0,0)"/>
<path d="" fill="#000100" transform="translate(0,0)"/>
<path d="" fill="#000100" transform="translate(0,0)"/>
<path d="" fill="#000100" transform="translate(0,0)"/>
<path d="" fill="#000100" transform="translate(0,0)"/>
<path d="" fill="#000100" transform="translate(0,0)"/>
<path d="" fill="#000100" transform="translate(0,0)"/>
<path d="" fill="#000100" transform="translate(0,0)"/>
<path d="" fill="#000100" transform="translate(0,0)"/>
<path d="" fill="#005741" transform="translate(0,0)"/>
<path d="" fill="#005741" transform="translate(0,0)"/>
<path d="" fill="#005741" transform="translate(0,0)"/>
</svg>
