<?xml version="1.0" encoding="utf-8"?>
<!-- Generator: Adobe Illustrator 24.2.0, SVG Export Plug-In . SVG Version: 6.00 Build 0)  -->
<svg preserveAspectRatio="none" version="1.1" id="Layer_1" xmlns="http://www.w3.org/2000/svg" xmlns:xlink="http://www.w3.org/1999/xlink" x="0px" y="0px"
	 viewBox="0 0 6860 4000" style="enable-background:new 0 0 6860 4000;" xml:space="preserve">
<style type="text/css">
	.st0{clip-path:url(#SVGID_2_);fill:url(#SVGID_3_);}
	.st1{filter:url(#Adobe_OpacityMaskFilter);}
	.st2{fill:url(#SVGID_5_);}
	.st3{mask:url(#SVGID_4_);fill-rule:evenodd;clip-rule:evenodd;fill:#003780;}
	.st4{filter:url(#Adobe_OpacityMaskFilter_1_);}
	.st5{fill:url(#SVGID_7_);}
	.st6{mask:url(#SVGID_6_);fill-rule:evenodd;clip-rule:evenodd;fill:#FDE3A7;}
	.st7{filter:url(#Adobe_OpacityMaskFilter_2_);}
	.st8{fill:url(#SVGID_9_);}
	.st9{mask:url(#SVGID_8_);fill-rule:evenodd;clip-rule:evenodd;fill:#004790;}
	.st10{filter:url(#Adobe_OpacityMaskFilter_3_);}
	.st11{fill:url(#SVGID_11_);}
	.st12{mask:url(#SVGID_10_);fill-rule:evenodd;clip-rule:evenodd;fill:#FDE3A7;}
	.st13{filter:url(#Adobe_OpacityMaskFilter_4_);}
	.st14{fill:url(#SVGID_13_);}
	.st15{mask:url(#SVGID_12_);fill-rule:evenodd;clip-rule:evenodd;fill:#003780;}
</style>
<g>
	<g>
		<defs>
			<rect id="SVGID_1_" x="0" width="6860" height="4000"/>
		</defs>
		<clipPath id="SVGID_2_">
			<use xlink:href="#SVGID_1_"  style="overflow:visible;"/>
		</clipPath>
		<linearGradient id="SVGID_3_" gradientUnits="userSpaceOnUse" x1="269.33" y1="-178.2493" x2="6689.9624" y2="4246.6792">
			<stop  offset="0" style="stop-color:#FFCF4B"/>
			<stop  offset="0.55" style="stop-color:#AE16DD"/>
			<stop  offset="1" style="stop-color:#004790"/>
		</linearGradient>
		<rect x="0" class="st0" width="6860" height="4000"/>
	</g>
	<defs>
		<filter id="Adobe_OpacityMaskFilter" filterUnits="userSpaceOnUse" x="2386.5" y="0" width="4473.5" height="4000">
			<feColorMatrix  type="matrix" values="1 0 0 0 0  0 1 0 0 0  0 0 1 0 0  0 0 0 1 0"/>
		</filter>
	</defs>
	<mask maskUnits="userSpaceOnUse" x="2386.5" y="0" width="4473.5" height="4000" id="SVGID_4_">
		<g class="st1">
			
				<linearGradient id="SVGID_5_" gradientUnits="userSpaceOnUse" x1="1292.1814" y1="-494.0643" x2="3009.8286" y2="2921.0225" gradientTransform="matrix(1 0 0 1 2076.6804 0)">
				<stop  offset="0" style="stop-color:#FFFFFF"/>
				<stop  offset="1" style="stop-color:#000000"/>
			</linearGradient>
			<rect x="2386.5" class="st2" width="4473.5" height="4000"/>
		</g>
	</mask>
	<path class="st3" d="M6860,4000V0C4095.1,894.4,4835.3,3016.6,2386.5,4000H6860z"/>
	<defs>
		<filter id="Adobe_OpacityMaskFilter_1_" filterUnits="userSpaceOnUse" x="0" y="0" width="2975.3" height="2555.7">
			<feColorMatrix  type="matrix" values="1 0 0 0 0  0 1 0 0 0  0 0 1 0 0  0 0 0 1 0"/>
		</filter>
	</defs>
	<mask maskUnits="userSpaceOnUse" x="0" y="0" width="2975.3" height="2555.7" id="SVGID_6_">
		<g class="st4">
			
				<linearGradient id="SVGID_7_" gradientUnits="userSpaceOnUse" x1="146.1836" y1="3489.0625" x2="-601.4981" y2="670.1002" gradientTransform="matrix(1 0 0 1 1899.5284 -107.2094)">
				<stop  offset="0" style="stop-color:#FFFFFF"/>
				<stop  offset="1" style="stop-color:#000000"/>
			</linearGradient>
			<rect x="0" class="st5" width="2975.3" height="2555.7"/>
		</g>
	</mask>
	<path class="st6" d="M0,2555.7C266.2,1546.8,2116.7,1400.8,2975.3,0H0V2555.7z"/>
	<defs>
		<filter id="Adobe_OpacityMaskFilter_2_" filterUnits="userSpaceOnUse" x="0" y="0" width="6860" height="4000">
			<feColorMatrix  type="matrix" values="1 0 0 0 0  0 1 0 0 0  0 0 1 0 0  0 0 0 1 0"/>
		</filter>
	</defs>
	<mask maskUnits="userSpaceOnUse" x="0" y="0" width="6860" height="4000" id="SVGID_8_">
		<g class="st7">
			
				<linearGradient id="SVGID_9_" gradientUnits="userSpaceOnUse" x1="-395.3633" y1="-1737.2637" x2="1645.6058" y2="2223.4287" gradientTransform="matrix(1 0 0 1 1899.5284 0)">
				<stop  offset="0" style="stop-color:#FFFFFF"/>
				<stop  offset="1" style="stop-color:#000000"/>
			</linearGradient>
			<rect x="0" class="st8" width="6860" height="4000"/>
		</g>
	</mask>
	<path class="st9" d="M4652.5,0C2650.5,696.4,2528.7,3665.2,0,4000h2386.5C4835.3,3016.6,4095.1,894.4,6860,0H4652.5z"/>
	<defs>
		<filter id="Adobe_OpacityMaskFilter_3_" filterUnits="userSpaceOnUse" x="0" y="0" width="6860" height="4000">
			<feColorMatrix  type="matrix" values="1 0 0 0 0  0 1 0 0 0  0 0 1 0 0  0 0 0 1 0"/>
		</filter>
	</defs>
	<mask maskUnits="userSpaceOnUse" x="0" y="0" width="6860" height="4000" id="SVGID_10_">
		<g class="st10">
			
				<linearGradient id="SVGID_11_" gradientUnits="userSpaceOnUse" x1="4076.3384" y1="4337.5039" x2="1732.3898" y2="2185.3926" gradientTransform="matrix(1 0 0 1 1899.5284 0)">
				<stop  offset="0" style="stop-color:#FFFFFF"/>
				<stop  offset="1" style="stop-color:#000000"/>
			</linearGradient>
			<rect x="0" class="st11" width="6860" height="4000"/>
		</g>
	</mask>
	<path class="st12" d="M4652.5,0C2650.5,696.4,2528.7,3665.2,0,4000h2386.5C4835.3,3016.6,4095.1,894.4,6860,0H4652.5z"/>
	<defs>
		<filter id="Adobe_OpacityMaskFilter_4_" filterUnits="userSpaceOnUse" x="3514.4" y="0" width="3345.6" height="4000">
			<feColorMatrix  type="matrix" values="1 0 0 0 0  0 1 0 0 0  0 0 1 0 0  0 0 0 1 0"/>
		</filter>
	</defs>
	<mask maskUnits="userSpaceOnUse" x="3514.4" y="0" width="3345.6" height="4000" id="SVGID_12_">
		<g class="st13">
			
				<linearGradient id="SVGID_13_" gradientUnits="userSpaceOnUse" x1="-1872.6549" y1="2528.1921" x2="3563.1934" y2="1942.1711" gradientTransform="matrix(1 0 0 1 2160.3972 0)">
				<stop  offset="0" style="stop-color:#FFFFFF"/>
				<stop  offset="1" style="stop-color:#000000"/>
			</linearGradient>
			<rect x="3514.4" class="st14" width="3345.6" height="4000"/>
		</g>
	</mask>
	<path class="st15" d="M5450.7,0c380.1,2251.7-895.3,3287.3-1936.4,4000H6860V0H5450.7z"/>
</g>
</svg>
