<?xml version="1.0" encoding="UTF-8" standalone="no"?>
<!DOCTYPE svg PUBLIC "-//W3C//DTD SVG 1.1//EN" "http://www.w3.org/Graphics/SVG/1.1/DTD/svg11.dtd">
<svg xmlns="http://www.w3.org/2000/svg" version="1.1" viewBox="0.00 0.00 512.00 512.00">
<g stroke-width="2.00" fill="none" stroke-linecap="butt">
<path stroke="#9fa3a8" vector-effect="non-scaling-stroke" d="
  M 415.99 258.45
  A 157.53 157.53 0.0 0 0 258.46 100.92
  A 157.53 157.53 0.0 0 0 100.93 258.45
  A 157.53 157.53 0.0 0 0 258.46 415.98
  A 157.53 157.53 0.0 0 0 415.99 258.45"
/>
<path stroke="#99abe0" vector-effect="non-scaling-stroke" d="
  M 273.19 140.30
  A 14.73 14.73 0.0 0 0 258.46 125.57
  A 14.73 14.73 0.0 0 0 243.73 140.30
  A 14.73 14.73 0.0 0 0 258.46 155.03
  A 14.73 14.73 0.0 0 0 273.19 140.30"
/>
<path stroke="#eca2ab" vector-effect="non-scaling-stroke" d="
  M 233.81 258.18
  Q 234.11 258.48 233.81 258.78
  Q 197.81 294.78 197.81 294.79
  A 0.62 0.61 -58.2 0 0 197.95 295.43
  Q 209.04 306.42 221.59 319.06
  A 0.48 0.48 0.0 0 0 222.27 319.06
  L 258.22 283.12
  A 0.37 0.37 0.0 0 1 258.75 283.12
  L 294.76 319.13
  A 0.37 0.36 -44.4 0 0 295.27 319.13
  L 318.95 295.43
  Q 319.39 295.00 318.95 294.56
  L 283.17 258.79
  A 0.46 0.46 0.0 0 1 283.17 258.15
  L 318.95 222.37
  Q 319.41 221.91 318.95 221.45
  L 295.48 197.96
  A 0.60 0.59 45.3 0 0 294.64 197.95
  L 258.92 233.68
  A 0.62 0.62 0.0 0 1 258.06 233.68
  L 222.07 197.68
  A 0.23 0.23 0.0 0 0 221.74 197.69
  L 197.89 221.55
  Q 197.54 221.90 197.89 222.26
  L 233.81 258.18"
/>
<path stroke="#99abe0" vector-effect="non-scaling-stroke" d="
  M 155.04 258.46
  A 14.73 14.73 0.0 0 0 140.31 243.73
  A 14.73 14.73 0.0 0 0 125.58 258.46
  A 14.73 14.73 0.0 0 0 140.31 273.19
  A 14.73 14.73 0.0 0 0 155.04 258.46"
/>
<path stroke="#99abe0" vector-effect="non-scaling-stroke" d="
  M 391.34 258.46
  A 14.73 14.73 0.0 0 0 376.61 243.73
  A 14.73 14.73 0.0 0 0 361.88 258.46
  A 14.73 14.73 0.0 0 0 376.61 273.19
  A 14.73 14.73 0.0 0 0 391.34 258.46"
/>
<path stroke="#99abe0" vector-effect="non-scaling-stroke" d="
  M 273.19 376.61
  A 14.73 14.73 0.0 0 0 258.46 361.88
  A 14.73 14.73 0.0 0 0 243.73 376.61
  A 14.73 14.73 0.0 0 0 258.46 391.34
  A 14.73 14.73 0.0 0 0 273.19 376.61"
/>
</g>
<circle fill="#757d8c" cx="128.00" cy="44.30" r="7.34"/>
<circle fill="#757d8c" cx="359.38" cy="59.07" r="7.34"/>
<circle fill="#f88f19" cx="445.54" cy="76.31" r="19.65"/>
<path fill="#3f4751" d="
  M 455.36 258.45
  A 196.90 196.90 0.0 0 1 258.46 455.35
  A 196.90 196.90 0.0 0 1 61.56 258.45
  A 196.90 196.90 0.0 0 1 258.46 61.55
  A 196.90 196.90 0.0 0 1 455.36 258.45
  Z
  M 415.99 258.45
  A 157.53 157.53 0.0 0 0 258.46 100.92
  A 157.53 157.53 0.0 0 0 100.93 258.45
  A 157.53 157.53 0.0 0 0 258.46 415.98
  A 157.53 157.53 0.0 0 0 415.99 258.45
  Z"
/>
<path fill="#ffffff" d="
  M 415.99 258.45
  A 157.53 157.53 0.0 0 1 258.46 415.98
  A 157.53 157.53 0.0 0 1 100.93 258.45
  A 157.53 157.53 0.0 0 1 258.46 100.92
  A 157.53 157.53 0.0 0 1 415.99 258.45
  Z
  M 273.19 140.30
  A 14.73 14.73 0.0 0 0 258.46 125.57
  A 14.73 14.73 0.0 0 0 243.73 140.30
  A 14.73 14.73 0.0 0 0 258.46 155.03
  A 14.73 14.73 0.0 0 0 273.19 140.30
  Z
  M 233.81 258.18
  Q 234.11 258.48 233.81 258.78
  Q 197.81 294.78 197.81 294.79
  A 0.62 0.61 -58.2 0 0 197.95 295.43
  Q 209.04 306.42 221.59 319.06
  A 0.48 0.48 0.0 0 0 222.27 319.06
  L 258.22 283.12
  A 0.37 0.37 0.0 0 1 258.75 283.12
  L 294.76 319.13
  A 0.37 0.36 -44.4 0 0 295.27 319.13
  L 318.95 295.43
  Q 319.39 295.00 318.95 294.56
  L 283.17 258.79
  A 0.46 0.46 0.0 0 1 283.17 258.15
  L 318.95 222.37
  Q 319.41 221.91 318.95 221.45
  L 295.48 197.96
  A 0.60 0.59 45.3 0 0 294.64 197.95
  L 258.92 233.68
  A 0.62 0.62 0.0 0 1 258.06 233.68
  L 222.07 197.68
  A 0.23 0.23 0.0 0 0 221.74 197.69
  L 197.89 221.55
  Q 197.54 221.90 197.89 222.26
  L 233.81 258.18
  Z
  M 155.04 258.46
  A 14.73 14.73 0.0 0 0 140.31 243.73
  A 14.73 14.73 0.0 0 0 125.58 258.46
  A 14.73 14.73 0.0 0 0 140.31 273.19
  A 14.73 14.73 0.0 0 0 155.04 258.46
  Z
  M 391.34 258.46
  A 14.73 14.73 0.0 0 0 376.61 243.73
  A 14.73 14.73 0.0 0 0 361.88 258.46
  A 14.73 14.73 0.0 0 0 376.61 273.19
  A 14.73 14.73 0.0 0 0 391.34 258.46
  Z
  M 273.19 376.61
  A 14.73 14.73 0.0 0 0 258.46 361.88
  A 14.73 14.73 0.0 0 0 243.73 376.61
  A 14.73 14.73 0.0 0 0 258.46 391.34
  A 14.73 14.73 0.0 0 0 273.19 376.61
  Z"
/>
<circle fill="#3256c1" cx="258.46" cy="140.30" r="14.73"/>
<circle fill="#757d8c" cx="54.15" cy="137.84" r="7.34"/>
<path fill="#d94556" d="
  M 233.81 258.18
  L 197.89 222.26
  Q 197.54 221.90 197.89 221.55
  L 221.74 197.69
  A 0.23 0.23 0.0 0 1 222.07 197.68
  L 258.06 233.68
  A 0.62 0.62 0.0 0 0 258.92 233.68
  L 294.64 197.95
  A 0.60 0.59 45.3 0 1 295.48 197.96
  L 318.95 221.45
  Q 319.41 221.91 318.95 222.37
  L 283.17 258.15
  A 0.46 0.46 0.0 0 0 283.17 258.79
  L 318.95 294.56
  Q 319.39 295.00 318.95 295.43
  L 295.27 319.13
  A 0.37 0.36 -44.4 0 1 294.76 319.13
  L 258.75 283.12
  A 0.37 0.37 0.0 0 0 258.22 283.12
  L 222.27 319.06
  A 0.48 0.48 0.0 0 1 221.59 319.06
  Q 209.04 306.42 197.95 295.43
  A 0.62 0.61 -58.2 0 1 197.81 294.79
  Q 197.81 294.78 233.81 258.78
  Q 234.11 258.48 233.81 258.18
  Z"
/>
<circle fill="#3256c1" cx="140.31" cy="258.46" r="14.73"/>
<circle fill="#3256c1" cx="376.61" cy="258.46" r="14.73"/>
<circle fill="#757d8c" cx="49.23" cy="364.30" r="7.34"/>
<circle fill="#3256c1" cx="258.46" cy="376.61" r="14.73"/>
<circle fill="#757d8c" cx="462.76" cy="379.07" r="7.34"/>
<circle fill="#f88f19" cx="76.31" cy="445.53" r="29.50"/>
<circle fill="#757d8c" cx="403.69" cy="457.84" r="7.34"/>
<circle fill="#757d8c" cx="177.23" cy="467.69" r="7.34"/>
</svg>
