<svg class="no_record__icon--dark" xmlns="http://www.w3.org/2000/svg" width="160" height="160" viewBox="0 0 160 160" fill="none"><path d="M116.667 88.3333H126.667V129.072C126.667 130.504 125.506 131.664 124.075 131.664H119.117C117.764 131.664 116.667 130.567 116.667 129.214V88.3333Z" fill="#202533"></path><path fill-rule="evenodd" clip-rule="evenodd" d="M116.667 28.3333H31.6667V123.667C31.6667 128.085 35.2484 131.667 39.6667 131.667H116.667H120.59C120.59 131.667 118.822 131.162 117.744 129.748C116.667 128.333 116.667 125 116.667 125V28.3333Z" fill="#2C3347"></path><path fill-rule="evenodd" clip-rule="evenodd" d="M60.3386 48.3333H51.6667V57.0049H60.3386V48.3333ZM51.6667 69.0495H96.6667V74.0495H51.6667V69.0495ZM51.6667 87.7474H75.9859V92.7474H51.6667V87.7474Z" fill="#1A1E29"></path><rect x="42.5" y="141.667" width="8.33333" height="8.33333" fill="#333B52"></rect><rect x="5.83331" y="23.3333" width="11.6667" height="11.6667" fill="#333B52"></rect><rect x="140.833" y="63.3333" width="13.3333" height="13.3333" fill="#333B52"></rect><defs><linearGradient id="paint0_linear_11820_106" x1="116.667" y1="89.9304" x2="126.667" y2="140.303" gradientUnits="userSpaceOnUse"><stop stop-color="#202533"></stop><stop offset="1" stop-color="#1D2333"></stop></linearGradient><linearGradient id="paint1_linear_11820_106" x1="31.6667" y1="28.3333" x2="120.591" y2="143.733" gradientUnits="userSpaceOnUse"><stop stop-color="#2C3347"></stop><stop offset="1" stop-color="#262D42" stop-opacity="0.8"></stop></linearGradient></defs></svg>