<?xml version="1.0" encoding="utf-8"?>
<!-- Generator: Adobe Illustrator 24.2.0, SVG Export Plug-In . SVG Version: 6.00 Build 0)  -->
<svg version="1.1" id="Layer_1" xmlns="http://www.w3.org/2000/svg" xmlns:xlink="http://www.w3.org/1999/xlink" x="0px" y="0px"
	 viewBox="0 0 210.2 211.3" style="enable-background:new 0 0 210.2 211.3;" xml:space="preserve">
<style type="text/css">
	.st0{fill:#008C6B;}
	.st1{opacity:0.2;fill:#101D10;enable-background:new    ;}
	.st2{opacity:0.4;fill:#25A249;enable-background:new    ;}
	.st3{fill:#7DCAA9;}
	.st4{opacity:0.3;fill:#18743A;enable-background:new    ;}
	.st5{opacity:0.6;fill:#5DC1A3;enable-background:new    ;}
	.st6{opacity:0.5;fill:url(#SVGID_1_);enable-background:new    ;}
	.st7{fill:#FDBB11;}
	.st8{opacity:0.5;fill:url(#SVGID_2_);enable-background:new    ;}
	.st9{opacity:0.3;fill:url(#SVGID_3_);enable-background:new    ;}
	.st10{opacity:0.1;fill:#EE4036;enable-background:new    ;}
	.st11{fill:#98D9F3;}
	.st12{opacity:0.3;fill:#6ABD45;enable-background:new    ;}
	.st13{opacity:0.2;fill:url(#SVGID_4_);enable-background:new    ;}
	.st14{opacity:0.5;fill:#5DC1A3;enable-background:new    ;}
	.st15{opacity:0.3;fill:#D9E9B5;enable-background:new    ;}
	.st16{fill:#00B9B0;}
	.st17{opacity:0.6;fill:#9FD39F;enable-background:new    ;}
	.st18{fill:#45BA84;}
</style>
<g>
	<path class="st0" d="M210.2,113.2c-0.9,2.7-1.9,5.3-3,7.8c-3.9,7.4-10.3,13.3-18,16.5c-17.9,7.6-38.4-0.3-46-17.5
		c-1-2.6-1.8-5.3-2.3-8.1c-0.2-1.1-0.3-2.1-0.5-3.2c0-0.7-0.1-1.3-0.1-2c0,0.1-0.1,0.2-0.1,0.2c-0.8-12.1,6.2-26.6,13.9-35.5
		c-4,0.9-31.8,2.5-31.8,2.5s-28.2,35.2-15.8,78.8c3.5,12.3,11.7,28.3,19.1,33.6c0.6,0,1.3,0,1.9,0h0.2c0.3,0,0.6,0,0.9,0h0.3
		c0.3,0,0.7,0,1,0h0.2c0.8,0,1.5,0,2.3-0.1c0.1,0,0.2,0,0.3,0c0.3,0,0.6,0,0.9-0.1c0.1,0,0.2,0,0.3,0c0.3,0,0.6,0,0.9-0.1
		c0.1,0,0.1,0,0.2,0c0.8-0.1,1.5-0.1,2.3-0.2c0.1,0,0.2,0,0.3,0c0.3,0,0.6-0.1,0.9-0.1c0.1,0,0.2,0,0.3,0c0.3,0,0.6-0.1,0.9-0.1
		c0.1,0,0.2,0,0.2,0c0.4-0.1,0.8-0.1,1.2-0.2h0c0.4-0.1,0.7-0.1,1.1-0.2c0.1,0,0.2,0,0.3-0.1c0.3,0,0.6-0.1,0.8-0.1
		c0.1,0,0.2,0,0.3-0.1c0.3-0.1,0.6-0.1,0.9-0.2c0.1,0,0.2,0,0.3-0.1c0.4-0.1,0.8-0.2,1.1-0.2c0,0,0,0,0,0c0.4-0.1,0.7-0.2,1.1-0.2
		c0.1,0,0.2,0,0.3-0.1c0.3-0.1,0.5-0.1,0.8-0.2c0.1,0,0.2-0.1,0.4-0.1c0.3-0.1,0.6-0.1,0.8-0.2c0.1,0,0.2-0.1,0.3-0.1
		c0.4-0.1,0.8-0.2,1.1-0.3c0,0,0,0,0,0c0.4-0.1,0.7-0.2,1.1-0.3c0.1,0,0.2-0.1,0.3-0.1c0.3-0.1,0.5-0.2,0.8-0.2
		c0.1,0,0.3-0.1,0.4-0.1c0.3-0.1,0.5-0.2,0.8-0.3c0.1,0,0.2-0.1,0.3-0.1c0.4-0.1,0.7-0.3,1.1-0.4c0,0,0,0,0,0
		c0.4-0.1,0.7-0.3,1.1-0.4c0.1,0,0.2-0.1,0.3-0.1c0.3-0.1,0.5-0.2,0.8-0.3c0.1,0,0.3-0.1,0.4-0.1c0.3-0.1,0.5-0.2,0.8-0.3
		c0.1,0,0.2-0.1,0.3-0.1c0.4-0.1,0.7-0.3,1.1-0.4c0.5-0.2,1-0.4,1.5-0.6c0.2-0.1,0.3-0.1,0.5-0.2c0.3-0.1,0.7-0.3,1-0.5
		c0.2-0.1,0.4-0.2,0.5-0.3c0.3-0.1,0.6-0.3,0.9-0.4c0.2-0.1,0.4-0.2,0.5-0.3c0.3-0.2,0.6-0.3,0.9-0.5c0.2-0.1,0.3-0.2,0.5-0.3
		c0.3-0.2,0.7-0.4,1-0.5c0.1-0.1,0.3-0.1,0.4-0.2c0.5-0.3,0.9-0.5,1.4-0.8c0.1,0,0.1-0.1,0.2-0.1c0.4-0.2,0.8-0.4,1.1-0.7
		c0.1-0.1,0.3-0.2,0.4-0.3c0.3-0.2,0.6-0.4,0.9-0.6c0.2-0.1,0.3-0.2,0.5-0.3c0.3-0.2,0.6-0.4,0.8-0.5c0.2-0.1,0.3-0.2,0.5-0.3
		c0.3-0.2,0.6-0.4,0.9-0.6c0.1-0.1,0.3-0.2,0.4-0.3c0.4-0.2,0.7-0.5,1.1-0.7c0.1,0,0.1-0.1,0.2-0.1c0.4-0.3,0.8-0.6,1.3-0.9
		c0.1-0.1,0.2-0.1,0.2-0.2c0.3-0.2,0.7-0.5,1-0.7c0.1-0.1,0.3-0.2,0.4-0.3c0.3-0.2,0.6-0.4,0.8-0.7c0.1-0.1,0.3-0.2,0.4-0.3
		c0.3-0.2,0.5-0.4,0.8-0.7c0.1-0.1,0.3-0.2,0.4-0.3c0.3-0.2,0.6-0.5,0.9-0.7c0.1-0.1,0.2-0.2,0.3-0.3c0.8-0.7,1.5-1.4,2.3-2.1
		c0.1-0.1,0.2-0.1,0.2-0.2c0.3-0.3,0.6-0.6,0.9-0.8c0.1-0.1,0.2-0.2,0.3-0.3c0.3-0.3,0.5-0.5,0.8-0.8c0.1-0.1,0.2-0.2,0.3-0.3
		c0.3-0.3,0.5-0.5,0.8-0.8c0.1-0.1,0.2-0.2,0.3-0.3c0.3-0.3,0.6-0.6,0.8-0.9c0.1-0.1,0.1-0.1,0.2-0.2c0.7-0.8,1.3-1.5,2-2.3
		c0.1-0.1,0.1-0.2,0.2-0.3c0.2-0.3,0.5-0.6,0.7-0.9c0.1-0.1,0.2-0.2,0.3-0.3c0.2-0.3,0.5-0.6,0.7-0.9c0.1-0.1,0.2-0.2,0.3-0.3
		c0.2-0.3,0.5-0.6,0.7-0.9c0.1-0.1,0.1-0.2,0.2-0.3c0.3-0.4,0.5-0.7,0.8-1.1c0,0,0-0.1,0.1-0.1c0.3-0.4,0.6-0.8,0.9-1.3
		c0,0,0,0,0-0.1c0.3-0.4,0.5-0.8,0.8-1.2c0.1-0.1,0.1-0.2,0.2-0.3c0.2-0.3,0.4-0.6,0.6-0.9c0.1-0.1,0.2-0.2,0.2-0.4
		c0.2-0.3,0.4-0.6,0.6-0.9c0-0.1,0.1-0.1,0.1-0.2l0,0C205.4,136.2,209.1,124.9,210.2,113.2z"/>
	<path class="st1" d="M210.2,113.2c-0.9,2.7-1.9,5.3-3,7.8c-3.9,7.4-10.3,13.3-18,16.5c-17.9,7.6-38.4-0.3-46-17.5
		c-1-2.6-1.8-5.3-2.3-8.1c-0.2-1.1-0.3-2.1-0.5-3.2c0-0.7-0.1-1.3-0.1-2c0,0.1-0.1,0.2-0.1,0.2c-0.8-12.1,6.2-26.6,13.9-35.5
		c-4,0.9-31.8,2.5-31.8,2.5s-28.2,35.2-15.8,78.8c3.5,12.3,11.7,28.3,19.1,33.6c0.6,0,1.3,0,1.9,0h0.2c0.3,0,0.6,0,0.9,0h0.3
		c0.3,0,0.7,0,1,0h0.2c0.8,0,1.5,0,2.3-0.1c0.1,0,0.2,0,0.3,0c0.3,0,0.6,0,0.9-0.1c0.1,0,0.2,0,0.3,0c0.3,0,0.6,0,0.9-0.1
		c0.1,0,0.1,0,0.2,0c0.8-0.1,1.5-0.1,2.3-0.2c0.1,0,0.2,0,0.3,0c0.3,0,0.6-0.1,0.9-0.1c0.1,0,0.2,0,0.3,0c0.3,0,0.6-0.1,0.9-0.1
		c0.1,0,0.2,0,0.2,0c0.4-0.1,0.8-0.1,1.2-0.2h0c0.4-0.1,0.7-0.1,1.1-0.2c0.1,0,0.2,0,0.3-0.1c0.3,0,0.6-0.1,0.8-0.1
		c0.1,0,0.2,0,0.3-0.1c0.3-0.1,0.6-0.1,0.9-0.2c0.1,0,0.2,0,0.3-0.1c0.4-0.1,0.8-0.2,1.1-0.2c0,0,0,0,0,0c0.4-0.1,0.7-0.2,1.1-0.2
		c0.1,0,0.2,0,0.3-0.1c0.3-0.1,0.5-0.1,0.8-0.2c0.1,0,0.2-0.1,0.4-0.1c0.3-0.1,0.6-0.1,0.8-0.2c0.1,0,0.2-0.1,0.3-0.1
		c0.4-0.1,0.8-0.2,1.1-0.3c0,0,0,0,0,0c0.4-0.1,0.7-0.2,1.1-0.3c0.1,0,0.2-0.1,0.3-0.1c0.3-0.1,0.5-0.2,0.8-0.2
		c0.1,0,0.3-0.1,0.4-0.1c0.3-0.1,0.5-0.2,0.8-0.3c0.1,0,0.2-0.1,0.3-0.1c0.4-0.1,0.7-0.3,1.1-0.4c0,0,0,0,0,0
		c0.4-0.1,0.7-0.3,1.1-0.4c0.1,0,0.2-0.1,0.3-0.1c0.3-0.1,0.5-0.2,0.8-0.3c0.1,0,0.3-0.1,0.4-0.1c0.3-0.1,0.5-0.2,0.8-0.3
		c0.1,0,0.2-0.1,0.3-0.1c0.4-0.1,0.7-0.3,1.1-0.4c0.5-0.2,1-0.4,1.5-0.6c0.2-0.1,0.3-0.1,0.5-0.2c0.3-0.1,0.7-0.3,1-0.5
		c0.2-0.1,0.4-0.2,0.5-0.3c0.3-0.1,0.6-0.3,0.9-0.4c0.2-0.1,0.4-0.2,0.5-0.3c0.3-0.2,0.6-0.3,0.9-0.5c0.2-0.1,0.3-0.2,0.5-0.3
		c0.3-0.2,0.7-0.4,1-0.5c0.1-0.1,0.3-0.1,0.4-0.2c0.5-0.3,0.9-0.5,1.4-0.8c0.1,0,0.1-0.1,0.2-0.1c0.4-0.2,0.8-0.4,1.1-0.7
		c0.1-0.1,0.3-0.2,0.4-0.3c0.3-0.2,0.6-0.4,0.9-0.6c0.2-0.1,0.3-0.2,0.5-0.3c0.3-0.2,0.6-0.4,0.8-0.5c0.2-0.1,0.3-0.2,0.5-0.3
		c0.3-0.2,0.6-0.4,0.9-0.6c0.1-0.1,0.3-0.2,0.4-0.3c0.4-0.2,0.7-0.5,1.1-0.7c0.1,0,0.1-0.1,0.2-0.1c0.4-0.3,0.8-0.6,1.3-0.9
		c0.1-0.1,0.2-0.1,0.2-0.2c0.3-0.2,0.7-0.5,1-0.7c0.1-0.1,0.3-0.2,0.4-0.3c0.3-0.2,0.6-0.4,0.8-0.7c0.1-0.1,0.3-0.2,0.4-0.3
		c0.3-0.2,0.5-0.4,0.8-0.7c0.1-0.1,0.3-0.2,0.4-0.3c0.3-0.2,0.6-0.5,0.9-0.7c0.1-0.1,0.2-0.2,0.3-0.3c0.8-0.7,1.5-1.4,2.3-2.1
		c0.1-0.1,0.2-0.1,0.2-0.2c0.3-0.3,0.6-0.6,0.9-0.8c0.1-0.1,0.2-0.2,0.3-0.3c0.3-0.3,0.5-0.5,0.8-0.8c0.1-0.1,0.2-0.2,0.3-0.3
		c0.3-0.3,0.5-0.5,0.8-0.8c0.1-0.1,0.2-0.2,0.3-0.3c0.3-0.3,0.6-0.6,0.8-0.9c0.1-0.1,0.1-0.1,0.2-0.2c0.7-0.8,1.3-1.5,2-2.3
		c0.1-0.1,0.1-0.2,0.2-0.3c0.2-0.3,0.5-0.6,0.7-0.9c0.1-0.1,0.2-0.2,0.3-0.3c0.2-0.3,0.5-0.6,0.7-0.9c0.1-0.1,0.2-0.2,0.3-0.3
		c0.2-0.3,0.5-0.6,0.7-0.9c0.1-0.1,0.1-0.2,0.2-0.3c0.3-0.4,0.5-0.7,0.8-1.1c0,0,0-0.1,0.1-0.1c0.3-0.4,0.6-0.8,0.9-1.3
		c0,0,0,0,0-0.1c0.3-0.4,0.5-0.8,0.8-1.2c0.1-0.1,0.1-0.2,0.2-0.3c0.2-0.3,0.4-0.6,0.6-0.9c0.1-0.1,0.2-0.2,0.2-0.4
		c0.2-0.3,0.4-0.6,0.6-0.9c0-0.1,0.1-0.1,0.1-0.2l0,0C205.4,136.2,209.1,124.9,210.2,113.2z"/>
	<path class="st2" d="M207.2,121c-3.9,7.4-10.3,13.3-18,16.5c-17.9,7.6-38.4-0.3-46-17.5c-1-2.6-1.8-5.3-2.3-8.1
		c-0.2-1.1-0.3-2.1-0.5-3.2c0-0.7-0.1-1.3-0.1-2c0,0.1-0.1,0.2-0.1,0.2c-0.8-11.3,5.3-24.8,12.4-33.8
		c-20.6,11.7-27.9,37.9-16.2,58.5s37.9,27.9,58.5,16.2c1.9-1.1,3.8-2.3,5.5-3.7c5.3-9.6,8.6-20.1,9.7-31
		C209.3,115.9,208.3,118.5,207.2,121z"/>
	<path class="st3" d="M198.7,154.3c-0.3,0.3-0.6,0.6-0.9,0.9c-24.9,16-58.1,8.8-74.2-16.1c-4.3-6.7-7.1-14.2-8.1-22.1
		c-0.3-2.3-0.4-4.6-0.4-7c0-13.6,5.2-26.7,14.5-36.7c-6.9,0.5-13.3,1.2-15.6,1.7c-11.2,2.7-21.1,8.5-29.6,16.5
		C69,106,58.4,127.2,53.4,149.1c-3.8,16.8-0.3,41.4,6,51.9c0.8,0.4,1.5,0.7,2.3,1.1c0.1,0,0.2,0.1,0.3,0.1c0.4,0.2,0.7,0.3,1.1,0.5
		c0.1,0,0.2,0.1,0.3,0.1c0.4,0.2,0.8,0.3,1.2,0.5c0.1,0,0.1,0.1,0.2,0.1c0.9,0.4,1.9,0.8,2.8,1.1c0.1,0,0.2,0.1,0.3,0.1
		c0.4,0.1,0.7,0.3,1.1,0.4c0.1,0,0.2,0.1,0.4,0.1c0.4,0.1,0.8,0.3,1.2,0.4c0.1,0,0.2,0.1,0.2,0.1c1,0.3,1.9,0.6,2.9,0.9
		c0.1,0,0.2,0.1,0.4,0.1c0.4,0.1,0.7,0.2,1.1,0.3c0.1,0,0.3,0.1,0.4,0.1c0.4,0.1,0.8,0.2,1.2,0.3c0.1,0,0.2,0.1,0.3,0.1
		c0.5,0.1,1,0.3,1.5,0.4l0,0c0.5,0.1,1,0.2,1.4,0.4c0.1,0,0.3,0.1,0.4,0.1c0.4,0.1,0.7,0.2,1.1,0.3c0.1,0,0.3,0.1,0.4,0.1
		c0.4,0.1,0.8,0.2,1.1,0.2c0.1,0,0.2,0.1,0.4,0.1c0.5,0.1,1,0.2,1.5,0.3c0,0,0,0,0,0c0.5,0.1,1,0.2,1.4,0.3c0.1,0,0.3,0,0.4,0.1
		c0.4,0.1,0.7,0.1,1.1,0.2c0.2,0,0.3,0.1,0.5,0.1c0.4,0.1,0.7,0.1,1.1,0.2c0.1,0,0.3,0,0.4,0.1c0.5,0.1,1,0.1,1.5,0.2c0,0,0,0,0.1,0
		c0.5,0.1,1,0.1,1.5,0.2c0.2,0,0.3,0,0.5,0.1c0.4,0,0.7,0.1,1.1,0.1c0.2,0,0.3,0,0.5,0.1c0.4,0,0.7,0.1,1.1,0.1c0.2,0,0.3,0,0.5,0
		c0.5,0,1,0.1,1.5,0.1h0.1c0.5,0,1,0.1,1.5,0.1c0.2,0,0.3,0,0.5,0c0.4,0,0.7,0,1.1,0c0.2,0,0.4,0,0.5,0c0.4,0,0.7,0,1.1,0
		c0.2,0,0.3,0,0.5,0c0.5,0,1,0,1.6,0c0.7,0,1.4,0,2.1,0c0.2,0,0.4,0,0.7,0c0.5,0,0.9,0,1.4,0c0.3,0,0.5,0,0.8,0c0.4,0,0.9,0,1.3-0.1
		c0.3,0,0.5,0,0.8,0c0.4,0,0.9-0.1,1.3-0.1c0.3,0,0.5,0,0.7-0.1c0.5,0,1-0.1,1.5-0.1c0.2,0,0.4,0,0.6-0.1c0.7-0.1,1.4-0.2,2-0.2
		c0.1,0,0.2,0,0.3,0c0.6-0.1,1.1-0.2,1.7-0.2c0.2,0,0.4-0.1,0.7-0.1c0.5-0.1,0.9-0.1,1.4-0.2c0.2,0,0.5-0.1,0.7-0.1
		c0.4-0.1,0.9-0.2,1.3-0.2c0.2,0,0.5-0.1,0.7-0.1c0.5-0.1,0.9-0.2,1.3-0.3c0.2,0,0.4-0.1,0.6-0.1c0.6-0.1,1.1-0.2,1.6-0.4
		c0.1,0,0.2,0,0.3-0.1c0.7-0.2,1.3-0.3,2-0.5c0.1,0,0.3-0.1,0.4-0.1c0.5-0.1,1-0.3,1.6-0.4c0.2-0.1,0.4-0.1,0.6-0.2
		c0.4-0.1,0.9-0.3,1.3-0.4c0.2-0.1,0.4-0.1,0.7-0.2c0.4-0.1,0.9-0.3,1.3-0.4c0.2-0.1,0.4-0.1,0.6-0.2c0.5-0.2,0.9-0.3,1.4-0.5
		c0.2-0.1,0.3-0.1,0.5-0.2c1.3-0.4,2.5-0.9,3.8-1.4c0.1,0,0.3-0.1,0.4-0.2c0.5-0.2,1-0.4,1.5-0.6c0.2-0.1,0.4-0.2,0.5-0.2
		c0.4-0.2,0.9-0.4,1.3-0.5c0.2-0.1,0.4-0.2,0.6-0.3c0.4-0.2,0.9-0.4,1.3-0.6c0.2-0.1,0.3-0.2,0.5-0.2c0.5-0.2,1-0.5,1.5-0.7
		c0.1-0.1,0.2-0.1,0.3-0.1c1.2-0.6,2.4-1.2,3.6-1.8c0.1-0.1,0.3-0.1,0.4-0.2c0.5-0.2,0.9-0.5,1.4-0.7c0.2-0.1,0.3-0.2,0.5-0.3
		c0.4-0.2,0.8-0.5,1.3-0.7c0.2-0.1,0.3-0.2,0.5-0.3c0.4-0.3,0.9-0.5,1.3-0.8c0.1-0.1,0.3-0.2,0.4-0.3c0.5-0.3,1-0.6,1.5-1
		c0,0,0.1-0.1,0.1-0.1c0.6-0.4,1.2-0.7,1.7-1.1c0,0,0,0,0.1,0c0.5-0.4,1-0.7,1.5-1.1c0.1-0.1,0.3-0.2,0.4-0.3
		c0.4-0.3,0.8-0.6,1.2-0.9c0.2-0.1,0.3-0.2,0.5-0.3c0.4-0.3,0.8-0.6,1.1-0.8c0.1-0.1,0.2-0.1,0.3-0.2h0
		C181.2,180.4,191.4,168.2,198.7,154.3z"/>
	<path class="st4" d="M198.7,154.3c-0.3,0.3-0.6,0.6-0.9,0.9c-24.9,16-58.1,8.8-74.2-16.1c-4.3-6.7-7.1-14.2-8.1-22.1
		c-0.3-2.3-0.4-4.6-0.4-7c0-13.6,5.2-26.7,14.5-36.7c-6.9,0.5-13.3,1.2-15.6,1.7c-11.2,2.7-21.1,8.5-29.6,16.5
		C69,106,58.4,127.2,53.4,149.1c-3.8,16.8-0.3,41.4,6,51.9c0.8,0.4,1.5,0.7,2.3,1.1c0.1,0,0.2,0.1,0.3,0.1c0.4,0.2,0.7,0.3,1.1,0.5
		c0.1,0,0.2,0.1,0.3,0.1c0.4,0.2,0.8,0.3,1.2,0.5c0.1,0,0.1,0.1,0.2,0.1c0.9,0.4,1.9,0.8,2.8,1.1c0.1,0,0.2,0.1,0.3,0.1
		c0.4,0.1,0.7,0.3,1.1,0.4c0.1,0,0.2,0.1,0.4,0.1c0.4,0.1,0.8,0.3,1.2,0.4c0.1,0,0.2,0.1,0.2,0.1c1,0.3,1.9,0.6,2.9,0.9
		c0.1,0,0.2,0.1,0.4,0.1c0.4,0.1,0.7,0.2,1.1,0.3c0.1,0,0.3,0.1,0.4,0.1c0.4,0.1,0.8,0.2,1.2,0.3c0.1,0,0.2,0.1,0.3,0.1
		c0.5,0.1,1,0.3,1.5,0.4l0,0c0.5,0.1,1,0.2,1.4,0.4c0.1,0,0.3,0.1,0.4,0.1c0.4,0.1,0.7,0.2,1.1,0.3c0.1,0,0.3,0.1,0.4,0.1
		c0.4,0.1,0.8,0.2,1.1,0.2c0.1,0,0.2,0.1,0.4,0.1c0.5,0.1,1,0.2,1.5,0.3c0,0,0,0,0,0c0.5,0.1,1,0.2,1.4,0.3c0.1,0,0.3,0,0.4,0.1
		c0.4,0.1,0.7,0.1,1.1,0.2c0.2,0,0.3,0.1,0.5,0.1c0.4,0.1,0.7,0.1,1.1,0.2c0.1,0,0.3,0,0.4,0.1c0.5,0.1,1,0.1,1.5,0.2c0,0,0,0,0.1,0
		c0.5,0.1,1,0.1,1.5,0.2c0.2,0,0.3,0,0.5,0.1c0.4,0,0.7,0.1,1.1,0.1c0.2,0,0.3,0,0.5,0.1c0.4,0,0.7,0.1,1.1,0.1c0.2,0,0.3,0,0.5,0
		c0.5,0,1,0.1,1.5,0.1h0.1c0.5,0,1,0.1,1.5,0.1c0.2,0,0.3,0,0.5,0c0.4,0,0.7,0,1.1,0c0.2,0,0.4,0,0.5,0c0.4,0,0.7,0,1.1,0
		c0.2,0,0.3,0,0.5,0c0.5,0,1,0,1.6,0c0.7,0,1.4,0,2.1,0c0.2,0,0.4,0,0.7,0c0.5,0,0.9,0,1.4,0c0.3,0,0.5,0,0.8,0c0.4,0,0.9,0,1.3-0.1
		c0.3,0,0.5,0,0.8,0c0.4,0,0.9-0.1,1.3-0.1c0.3,0,0.5,0,0.7-0.1c0.5,0,1-0.1,1.5-0.1c0.2,0,0.4,0,0.6-0.1c0.7-0.1,1.4-0.2,2-0.2
		c0.1,0,0.2,0,0.3,0c0.6-0.1,1.1-0.2,1.7-0.2c0.2,0,0.4-0.1,0.7-0.1c0.5-0.1,0.9-0.1,1.4-0.2c0.2,0,0.5-0.1,0.7-0.1
		c0.4-0.1,0.9-0.2,1.3-0.2c0.2,0,0.5-0.1,0.7-0.1c0.5-0.1,0.9-0.2,1.3-0.3c0.2,0,0.4-0.1,0.6-0.1c0.6-0.1,1.1-0.2,1.6-0.4
		c0.1,0,0.2,0,0.3-0.1c0.7-0.2,1.3-0.3,2-0.5c0.1,0,0.3-0.1,0.4-0.1c0.5-0.1,1-0.3,1.6-0.4c0.2-0.1,0.4-0.1,0.6-0.2
		c0.4-0.1,0.9-0.3,1.3-0.4c0.2-0.1,0.4-0.1,0.7-0.2c0.4-0.1,0.9-0.3,1.3-0.4c0.2-0.1,0.4-0.1,0.6-0.2c0.5-0.2,0.9-0.3,1.4-0.5
		c0.2-0.1,0.3-0.1,0.5-0.2c1.3-0.4,2.5-0.9,3.8-1.4c0.1,0,0.3-0.1,0.4-0.2c0.5-0.2,1-0.4,1.5-0.6c0.2-0.1,0.4-0.2,0.5-0.2
		c0.4-0.2,0.9-0.4,1.3-0.5c0.2-0.1,0.4-0.2,0.6-0.3c0.4-0.2,0.9-0.4,1.3-0.6c0.2-0.1,0.3-0.2,0.5-0.2c0.5-0.2,1-0.5,1.5-0.7
		c0.1-0.1,0.2-0.1,0.3-0.1c1.2-0.6,2.4-1.2,3.6-1.8c0.1-0.1,0.3-0.1,0.4-0.2c0.5-0.2,0.9-0.5,1.4-0.7c0.2-0.1,0.3-0.2,0.5-0.3
		c0.4-0.2,0.8-0.5,1.3-0.7c0.2-0.1,0.3-0.2,0.5-0.3c0.4-0.3,0.9-0.5,1.3-0.8c0.1-0.1,0.3-0.2,0.4-0.3c0.5-0.3,1-0.6,1.5-1
		c0,0,0.1-0.1,0.1-0.1c0.6-0.4,1.2-0.7,1.7-1.1c0,0,0,0,0.1,0c0.5-0.4,1-0.7,1.5-1.1c0.1-0.1,0.3-0.2,0.4-0.3
		c0.4-0.3,0.8-0.6,1.2-0.9c0.2-0.1,0.3-0.2,0.5-0.3c0.4-0.3,0.8-0.6,1.1-0.8c0.1-0.1,0.2-0.1,0.3-0.2h0
		C181.2,180.4,191.4,168.2,198.7,154.3z"/>
	<path class="st5" d="M197.8,155.2c-24.9,16-58.1,8.8-74.2-16.1c-4.3-6.7-7.1-14.2-8.1-22.1c-0.3-2.3-0.4-4.6-0.4-7
		c0-13.6,5.2-26.7,14.5-36.7c-1.7,0.1-3.4,0.3-5.1,0.4c-31.4,21.1-39.8,63.6-18.7,95c11.2,16.7,29.2,27.6,49.2,29.9
		c0.5-0.2,0.9-0.5,1.4-0.7c0.2-0.1,0.3-0.2,0.5-0.3c0.4-0.2,0.8-0.5,1.3-0.7c0.2-0.1,0.3-0.2,0.5-0.3c0.4-0.3,0.9-0.5,1.3-0.8
		c0.1-0.1,0.3-0.2,0.4-0.3c0.5-0.3,1-0.6,1.5-1c0,0,0.1-0.1,0.1-0.1c0.6-0.4,1.2-0.7,1.7-1.1c0,0,0,0,0.1,0c0.5-0.4,1-0.7,1.5-1.1
		c0.1-0.1,0.3-0.2,0.4-0.3c0.4-0.3,0.8-0.6,1.2-0.9c0.2-0.1,0.3-0.2,0.5-0.3c0.4-0.3,0.8-0.6,1.1-0.8c0.1-0.1,0.2-0.1,0.3-0.2h0
		c12.5-9.5,22.7-21.6,30-35.5C198.4,154.7,198.1,155,197.8,155.2z"/>
	
		<linearGradient id="SVGID_1_" gradientUnits="userSpaceOnUse" x1="67.7172" y1="63.7757" x2="166.6459" y2="25.5904" gradientTransform="matrix(1 0 0 -1 -18.3977 189.6482)">
		<stop  offset="0" style="stop-color:#FAFBFB;stop-opacity:0"/>
		<stop  offset="0.1118" style="stop-color:#D7E7F2;stop-opacity:0.1904"/>
		<stop  offset="0.274" style="stop-color:#ABCCE7;stop-opacity:0.4348"/>
		<stop  offset="0.4344" style="stop-color:#86B7DE;stop-opacity:0.6379"/>
		<stop  offset="0.5899" style="stop-color:#69A6D6;stop-opacity:0.7958"/>
		<stop  offset="0.7388" style="stop-color:#559AD1;stop-opacity:0.9086"/>
		<stop  offset="0.8787" style="stop-color:#4892CE;stop-opacity:0.9767"/>
		<stop  offset="1" style="stop-color:#4490CD"/>
	</linearGradient>
	<path class="st6" d="M63.5,180.8c0-39.2,16-76.8,44.4-103.9c-8.8,3.2-16.8,8.2-23.6,14.7C69,106,58.4,127.2,53.4,149.1
		c-3.8,16.8-0.3,41.4,6,51.9c0.8,0.4,1.5,0.7,2.3,1.1c0.1,0,0.2,0.1,0.3,0.1c0.4,0.2,0.7,0.3,1.1,0.5c0.1,0,0.2,0.1,0.3,0.1
		c0.4,0.2,0.8,0.3,1.2,0.5c0.1,0,0.1,0.1,0.2,0.1c0.2,0.1,0.3,0.1,0.5,0.2C64.1,196.1,63.5,188.4,63.5,180.8z"/>
	<path class="st7" d="M182.3,74c9.5,2.6,14.6,7.1,15.1,11c5.7-7.1,7.3-20.3-1.1-30.3c-12.5-15-51.5-14.4-51.5-14.4
		s-11.2,3.5-24.1,15.7c-15.7,14.9-28.5,29.7-28.5,29.7C106.6,73.6,170.4,70.8,182.3,74z"/>
	
		<linearGradient id="SVGID_2_" gradientUnits="userSpaceOnUse" x1="157.913" y1="122.6157" x2="218.3931" y2="133.28" gradientTransform="matrix(1 0 0 -1 -18.3977 189.6482)">
		<stop  offset="0" style="stop-color:#FFFFFF;stop-opacity:0"/>
		<stop  offset="8.797000e-02" style="stop-color:#FFFFFF;stop-opacity:4.749000e-02"/>
		<stop  offset="0.2476" style="stop-color:#FFFFFF;stop-opacity:0.1738"/>
		<stop  offset="0.4608" style="stop-color:#FFFFFF;stop-opacity:0.3786"/>
		<stop  offset="0.7197" style="stop-color:#FFFFFF;stop-opacity:0.6622"/>
		<stop  offset="1" style="stop-color:#FFFFFF"/>
	</linearGradient>
	<path class="st8" d="M192.8,60.9c5,5.9,7.3,13.7,6.3,21.5c4.8-8.9,3.7-19.9-2.9-27.6c-12.5-15-51.5-14.4-51.5-14.4
		c-3.2,1.1-6.3,2.6-9.3,4.4C142,44.7,179.9,45.4,192.8,60.9z"/>
	
		<linearGradient id="SVGID_3_" gradientUnits="userSpaceOnUse" x1="196.6624" y1="85.5377" x2="143.7553" y2="138.4448" gradientTransform="matrix(1 0 0 -1 -18.3977 189.6482)">
		<stop  offset="0.1774" style="stop-color:#FFFFFF;stop-opacity:0"/>
		<stop  offset="1" style="stop-color:#F6921E"/>
	</linearGradient>
	<path class="st9" d="M182.3,74c9.5,2.6,14.6,7.1,15.1,11c5.7-7.1,7.3-20.3-1.1-30.3c-12.5-15-51.5-14.4-51.5-14.4
		s-11.2,3.5-24.1,15.7c-15.7,14.9-28.5,29.7-28.5,29.7C106.6,73.6,170.4,70.8,182.3,74z"/>
	<path class="st10" d="M185,70.5c-16.5-4.9-59.1-3.5-83.4,3.8c-3.3,3.6-9.3,11.4-9.3,11.4c14.4-12.1,78.1-14.9,90-11.7
		c9.5,2.6,14.6,7.1,15.1,11C198.3,83.8,197.4,74.2,185,70.5z"/>
	<path class="st11" d="M103.5,77c0.3-0.3,0.7-0.6,1-0.9c0,0,0.1-0.1,0.1-0.1c0.3-0.3,0.6-0.6,0.9-0.9c0,0,0.1-0.1,0.1-0.1
		c0.3-0.3,0.6-0.6,1-0.9c0,0,0,0,0.1-0.1c1.4-1.3,2.9-2.5,4.3-3.7c0,0,0.1,0,0.1-0.1c0.3-0.3,0.7-0.5,1-0.8c0.1,0,0.1-0.1,0.2-0.1
		c0.3-0.3,0.6-0.5,0.9-0.8c0.1,0,0.1-0.1,0.2-0.1c0.3-0.3,0.7-0.5,1-0.8c0,0,0.1-0.1,0.1-0.1c1.1-0.9,2.3-1.7,3.4-2.6
		c0,0,0.1,0,0.1-0.1c0.3-0.3,0.7-0.5,1-0.7c0.1-0.1,0.1-0.1,0.2-0.2c0.3-0.2,0.6-0.4,0.9-0.6c0.1-0.1,0.2-0.1,0.3-0.2
		c0.3-0.2,0.6-0.4,0.9-0.6c0.1-0.1,0.2-0.1,0.3-0.2c0.3-0.2,0.6-0.4,0.9-0.6c0.1-0.1,0.1-0.1,0.2-0.1c0.4-0.3,0.8-0.5,1.1-0.8l0,0
		c0.8-0.5,1.6-1,2.4-1.5c0.1-0.1,0.2-0.1,0.3-0.2c0.3-0.2,0.6-0.4,0.9-0.5c0.1-0.1,0.2-0.1,0.4-0.2c0.3-0.2,0.5-0.3,0.8-0.5
		c0.1-0.1,0.3-0.2,0.4-0.2c0.3-0.2,0.5-0.3,0.8-0.5c0.1-0.1,0.3-0.2,0.4-0.2c0.3-0.2,0.6-0.3,0.9-0.5c0.1-0.1,0.2-0.1,0.3-0.2
		c0.4-0.2,0.7-0.4,1.1-0.6c0,0,0.1,0,0.1-0.1c0.4-0.2,0.8-0.4,1.2-0.7c0.1-0.1,0.2-0.1,0.3-0.2c0.3-0.2,0.6-0.3,0.9-0.5
		c0.1-0.1,0.3-0.2,0.4-0.2c0.3-0.1,0.5-0.3,0.8-0.4c0.2-0.1,0.3-0.2,0.5-0.2c0.2-0.1,0.5-0.3,0.8-0.4c0.2-0.1,0.3-0.2,0.5-0.2
		c0.3-0.1,0.5-0.3,0.8-0.4c0.2-0.1,0.3-0.2,0.5-0.2c0.3-0.1,0.6-0.3,0.8-0.4c0.1-0.1,0.3-0.1,0.4-0.2c0.4-0.2,0.8-0.4,1.2-0.6
		c-45.2-18.8-97.4-5-127.4,33.7c-5.6,7.2-19.5,30.6-4.8,65.7c0.7-6.6,2.8-13.1,6.3-18.8c2.1-3.3,4.7-6.4,7.6-9.1
		c-9.2,31.9,6.6,65.6,37,78.9l0,0c0,0,0,0,0,0l0,0C53.7,155.3,69.9,109,103.5,77L103.5,77z"/>
	<path class="st12" d="M103.5,77c0.3-0.3,0.7-0.6,1-0.9c0,0,0.1-0.1,0.1-0.1c0.3-0.3,0.6-0.6,0.9-0.9c0,0,0.1-0.1,0.1-0.1
		c0.3-0.3,0.6-0.6,1-0.9c0,0,0,0,0.1-0.1c1.4-1.3,2.9-2.5,4.3-3.7c0,0,0.1,0,0.1-0.1c0.3-0.3,0.7-0.5,1-0.8c0.1,0,0.1-0.1,0.2-0.1
		c0.3-0.3,0.6-0.5,0.9-0.8c0.1,0,0.1-0.1,0.2-0.1c0.3-0.3,0.7-0.5,1-0.8c0,0,0.1-0.1,0.1-0.1c1.1-0.9,2.3-1.7,3.4-2.6
		c0,0,0.1,0,0.1-0.1c0.3-0.3,0.7-0.5,1-0.7c0.1-0.1,0.1-0.1,0.2-0.2c0.3-0.2,0.6-0.4,0.9-0.6c0.1-0.1,0.2-0.1,0.3-0.2
		c0.3-0.2,0.6-0.4,0.9-0.6c0.1-0.1,0.2-0.1,0.3-0.2c0.3-0.2,0.6-0.4,0.9-0.6c0.1-0.1,0.1-0.1,0.2-0.1c0.4-0.3,0.8-0.5,1.1-0.8l0,0
		c0.8-0.5,1.6-1,2.4-1.5c0.1-0.1,0.2-0.1,0.3-0.2c0.3-0.2,0.6-0.4,0.9-0.5c0.1-0.1,0.2-0.1,0.4-0.2c0.3-0.2,0.5-0.3,0.8-0.5
		c0.1-0.1,0.3-0.2,0.4-0.2c0.3-0.2,0.5-0.3,0.8-0.5c0.1-0.1,0.3-0.2,0.4-0.2c0.3-0.2,0.6-0.3,0.9-0.5c0.1-0.1,0.2-0.1,0.3-0.2
		c0.4-0.2,0.7-0.4,1.1-0.6c0,0,0.1,0,0.1-0.1c0.4-0.2,0.8-0.4,1.2-0.7c0.1-0.1,0.2-0.1,0.3-0.2c0.3-0.2,0.6-0.3,0.9-0.5
		c0.1-0.1,0.3-0.2,0.4-0.2c0.3-0.1,0.5-0.3,0.8-0.4c0.2-0.1,0.3-0.2,0.5-0.2c0.2-0.1,0.5-0.3,0.8-0.4c0.2-0.1,0.3-0.2,0.5-0.2
		c0.3-0.1,0.5-0.3,0.8-0.4c0.2-0.1,0.3-0.2,0.5-0.2c0.3-0.1,0.6-0.3,0.8-0.4c0.1-0.1,0.3-0.1,0.4-0.2c0.4-0.2,0.8-0.4,1.2-0.6
		c-45.2-18.8-97.4-5-127.4,33.7c-5.6,7.2-19.5,30.6-4.8,65.7c0.7-6.6,2.8-13.1,6.3-18.8c2.1-3.3,4.7-6.4,7.6-9.1
		c-9.2,31.9,6.6,65.6,37,78.9l0,0c0,0,0,0,0,0l0,0C53.7,155.3,69.9,109,103.5,77L103.5,77z"/>
	
		<linearGradient id="SVGID_4_" gradientUnits="userSpaceOnUse" x1="106.448" y1="121.5014" x2="124.2467" y2="-15.7831" gradientTransform="matrix(1 0 0 -1 -18.3977 189.6482)">
		<stop  offset="0" style="stop-color:#72C3ED;stop-opacity:0"/>
		<stop  offset="3.354000e-02" style="stop-color:#6DBEEA;stop-opacity:0.1026"/>
		<stop  offset="0.1111" style="stop-color:#64B3E3;stop-opacity:0.3118"/>
		<stop  offset="0.1949" style="stop-color:#5BAADD;stop-opacity:0.4973"/>
		<stop  offset="0.284" style="stop-color:#54A2D8;stop-opacity:0.6535"/>
		<stop  offset="0.3799" style="stop-color:#4E9BD4;stop-opacity:0.7804"/>
		<stop  offset="0.4853" style="stop-color:#4A96D1;stop-opacity:0.8784"/>
		<stop  offset="0.6049" style="stop-color:#4693CF;stop-opacity:0.9475"/>
		<stop  offset="0.7511" style="stop-color:#4591CD;stop-opacity:0.9879"/>
		<stop  offset="1" style="stop-color:#4490CD"/>
	</linearGradient>
	<path class="st13" d="M43.3,145.6c0,19.8,5.7,39.2,16.6,55.7c0.1,0,0.1,0.1,0.2,0.1l0,0c0,0,0,0,0,0l0,0
		c-6.4-46,9.8-92.3,43.5-124.4c0.3-0.3,0.7-0.6,1-0.9c0,0,0.1-0.1,0.1-0.1c0.3-0.3,0.6-0.6,0.9-0.9c0,0,0.1-0.1,0.1-0.1
		c0.3-0.3,0.6-0.6,1-0.9c0,0,0,0,0.1-0.1c1.4-1.3,2.9-2.5,4.3-3.7c0,0,0.1,0,0.1-0.1c0.3-0.3,0.7-0.5,1-0.8c0.1,0,0.1-0.1,0.2-0.1
		c0.3-0.3,0.6-0.5,0.9-0.8c0.1,0,0.1-0.1,0.2-0.1c0.3-0.3,0.7-0.5,1-0.8c0,0,0.1-0.1,0.1-0.1c1.1-0.9,2.3-1.7,3.4-2.6
		c0,0,0.1,0,0.1-0.1c0.3-0.3,0.7-0.5,1-0.7c0.1-0.1,0.1-0.1,0.2-0.2c0.3-0.2,0.6-0.4,0.9-0.6c0.1-0.1,0.2-0.1,0.3-0.2
		c0.3-0.2,0.6-0.4,0.9-0.6c0.1-0.1,0.2-0.1,0.3-0.2c0.3-0.2,0.6-0.4,0.9-0.6c0.1-0.1,0.1-0.1,0.2-0.1c0.4-0.3,0.8-0.5,1.1-0.8l0,0
		c0.8-0.5,1.6-1,2.4-1.5c0.1-0.1,0.2-0.1,0.3-0.2c0.3-0.2,0.6-0.4,0.9-0.5c0.1-0.1,0.2-0.1,0.4-0.2c0.3-0.2,0.5-0.3,0.8-0.5
		c0.1-0.1,0.3-0.2,0.4-0.2c0.3-0.2,0.5-0.3,0.8-0.5c0.1-0.1,0.3-0.2,0.4-0.2c0.3-0.2,0.6-0.3,0.9-0.5c0.1-0.1,0.2-0.1,0.3-0.2
		c0.4-0.2,0.7-0.4,1.1-0.6c0,0,0.1,0,0.1-0.1c0.4-0.2,0.8-0.4,1.2-0.7c0.1-0.1,0.2-0.1,0.3-0.2c0.3-0.2,0.6-0.3,0.9-0.5
		c0.1-0.1,0.3-0.2,0.4-0.2c0.3-0.1,0.5-0.3,0.8-0.4c0.2-0.1,0.3-0.2,0.5-0.2c0.2-0.1,0.5-0.3,0.8-0.4c0.2-0.1,0.3-0.2,0.5-0.2
		c0.3-0.1,0.5-0.3,0.8-0.4c0.2-0.1,0.3-0.2,0.5-0.2c0.3-0.1,0.6-0.3,0.8-0.4c0.1-0.1,0.3-0.1,0.4-0.2c0.4-0.2,0.8-0.4,1.2-0.6
		c-5.2-2.2-10.6-3.9-16.1-5.3C77.7,55.1,43.3,96.9,43.3,145.6z"/>
	<path class="st14" d="M101.5,59.1c-50.3,0-91.4,40.2-92.6,90.5c0.1,0.2,0.2,0.5,0.3,0.7c0.7-6.6,2.8-13.1,6.3-18.8
		c2.1-3.3,4.7-6.4,7.6-9.1c-9.2,31.9,6.6,65.6,37,78.9l0,0c0,0,0,0,0,0l0,0c-6.4-46,9.8-92.3,43.5-124.4c0.3-0.3,0.7-0.6,1-0.9
		c0,0,0.1-0.1,0.1-0.1c0.3-0.3,0.6-0.6,0.9-0.9c0,0,0.1-0.1,0.1-0.1c0.3-0.3,0.6-0.6,1-0.9c0,0,0,0,0.1-0.1c1.4-1.3,2.9-2.5,4.3-3.7
		c0,0,0.1,0,0.1-0.1c0.3-0.3,0.7-0.5,1-0.8c0.1,0,0.1-0.1,0.2-0.1c0.3-0.3,0.6-0.5,0.9-0.8c0.1,0,0.1-0.1,0.2-0.1
		c0.3-0.3,0.7-0.5,1-0.8c0,0,0.1-0.1,0.1-0.1c1.1-0.9,2.3-1.7,3.4-2.6c0,0,0.1,0,0.1-0.1c0.3-0.3,0.7-0.5,1-0.7
		c0.1-0.1,0.1-0.1,0.2-0.2c0.3-0.2,0.6-0.4,0.9-0.6c0.1-0.1,0.2-0.1,0.3-0.2c0.3-0.2,0.6-0.4,0.9-0.6c0.1-0.1,0.2-0.1,0.3-0.2
		c0.3-0.2,0.6-0.4,0.9-0.6c0.1-0.1,0.1-0.1,0.2-0.1c0,0,0.1-0.1,0.1-0.1C115.8,59.9,108.7,59.1,101.5,59.1z"/>
	<path class="st15" d="M22.3,78.5C50.7,55,88.8,47,124.2,56.9c2.8,0.8,5.5,1.7,8.2,2.6c4.7-2.4,9.5-4.4,14.5-6.2
		C100.8,31.1,45.4,44.2,14.1,84.6c-4.7,6.3-8,13.5-9.7,21.1C7.6,95.2,13.9,85.7,22.3,78.5z"/>
	<path class="st16" d="M141.5,7.4C128.9,2,114.8,0,100.3,0C77,0,54.2,6.9,34.9,19.8l7,1.1C18.5,38.2,3.4,64.5,0,93.4
		c2.2-2.6,5-4.6,8-6c1.5-0.6,3.1-0.9,4.7-1c0.7,0,1.4-0.3,1.8-0.9c21.6-27.9,55.4-43.5,90.6-41.9c0.2,0,0.3-0.1,0.4-0.2
		c11.5-9.4,28-9.6,39.7-0.5c0.1,0.1,0.3,0.2,0.5,0.1C183.4,37.7,158.5,14.7,141.5,7.4z"/>
	<path class="st17" d="M87.6,6.8c-18.3,0-36.3,4.5-52.4,13.1l6.7,1C18.5,38.2,3.4,64.5,0,93.4c2.2-2.6,5-4.6,8-6
		c1.5-0.6,3.1-0.9,4.7-1c0.7,0,1.4-0.3,1.8-0.9c21.6-27.9,55.4-43.5,90.6-41.9c0.2,0,0.3-0.1,0.4-0.2c11.5-9.4,28-9.6,39.7-0.5
		c0.1,0.1,0.3,0.2,0.5,0.1c9.3-1.3,14.8-3.7,17.5-6.6C142.6,17.3,115.6,6.7,87.6,6.8z"/>
	<path class="st18" d="M106.4,27.3C61.3,27.2,20.1,52.8,0,93.2c0,0.1,0,0.1,0,0.2c2.2-2.6,5-4.6,8-6c1.5-0.6,3.1-0.9,4.7-1
		c0.7,0,1.4-0.3,1.8-0.9c21.6-27.9,55.4-43.5,90.6-41.9c0.2,0,0.3-0.1,0.4-0.2c11.5-9.4,28-9.6,39.7-0.5c0.1,0.1,0.3,0.2,0.5,0.1
		c4.6-0.5,9-1.7,13.2-3.6C142.5,31.4,124.6,27.2,106.4,27.3z"/>
</g>
</svg>
