<svg xmlns="http://www.w3.org/2000/svg" viewBox="0 0 1338.84703 1721.70147"><path d="M111.27166,857.16689a149.6813,149.6813,0,0,1,27.86827,6.99891c.44351,1.50337.97944,3.01383,1.56925,4.5263-5.85078.93194-12.38618,2.19564-19.1467,3.9081-13.52194,3.42494-27.95034,8.6466-39.627,16.59674a60.9051,60.9051,0,0,0-14.99492,14.09137c1.50246,2.954,2.98344,6.01239,4.61165,9.18655,1.62713,3.17434,3.40055,6.46424,5.48663,9.881,1.04241,1.70937,2.16306,3.44914,3.38217,5.22257a117.13714,117.13714,0,0,0,14.20111,16.891,93.48386,93.48386,0,0,0,31.66973-14.4517,105.79885,105.79885,0,0,0,32.00367-36.56564,56.08473,56.08473,0,0,0,6.46006,4.81675,148.96165,148.96165,0,0,1-26.243,47.42789,142.5741,142.5741,0,0,1-12.41457,13.24587h.00091l-.00091.00109c1.76524.72066,3.57707,1.57034,5.41947,2.5041.75524.38271,1.53394.83148,2.30028,1.2435,1.09718.5909,2.18854,1.16142,3.303,1.79982,1.04861.60091,2.11265,1.24458,3.17216,1.87789.85169.50755,1.69629.99781,2.55287,1.52156q2.55043,1.55623,5.11739,3.16106c.0353.02129.06879.04259.10336.06388h-.00109c.39181.24367.78162.48335,1.17453.72793,1.69009,1.0546,3.38326,2.10738,5.06624,3.13868.97653.59781,1.94086,1.15814,2.91338,1.73776.97853.58581,1.96816,1.18963,2.93959,1.748,1.36234.78362,2.69918,1.49117,4.034,2.20182.56034.29736,1.13285.63439,1.685.91556,1.88807.96033,3.73957,1.83021,5.5474,2.56724l.00218-.00109c12.5769-8.17853,20.57382-18.93541,25.93033-32.16.43349-1.065.89627-2.10337,1.29318-3.20274.01219-.03039.01929-.06278.03148-.09335q1.12221-3.1122,2.07991-6.396a79.05172,79.05172,0,0,0,.02037-43.38293,21.5303,21.5303,0,0,0,4.06843-5.62057,26.95617,26.95617,0,0,0,2.34686-6.89027,32.71923,32.71923,0,0,0,.51683-3.45442c7.863,2.0424,15.414,1.20091,21.21222-3.04222,5.5434-4.05824,8.56834-10.60056,9.20182-18.25425,6.97672,1.289,13.58291.25368,18.7811-3.54887,6.37689-4.66734,9.43622-12.60838,9.32867-21.76654,7.198,2.93358,14.38891,3.60456,20.49265,1.59072a20.45787,20.45787,0,0,0,5.70373-2.92648c6.66425-4.87862,9.73377-13.32412,9.31958-23.00912,10.61477,2.89209,20.67026,1.4273,27.10084-5.02057a21.65651,21.65651,0,0,0,5.81548-11.27462,28.81287,28.81287,0,0,0,.52265-4.49992c.70646.16761,1.38472.19491,2.08408.32393,1.16433.19982,2.33667.43749,3.47971.541h.0011c.6444.05787,1.26679.06388,1.90118.08717.71775.02548,1.39782-.0222,2.0992-.04258.88825-.0253,1.81181.04877,2.6706-.05278a26.63349,26.63349,0,0,0,3.71938-.70446,23.00657,23.00657,0,0,0,4.5556-1.73685,20.34957,20.34957,0,0,0,8.35124-7.88008,24.20354,24.20354,0,0,0,3.097-10.10938,32.59769,32.59769,0,0,0-.0051-5.73522,28.70666,28.70666,0,0,0,9.72868-1.14286v539.17233a48.38248,48.38248,0,0,0,48.42079,48.4208H591.1071v149.83709H567.04627a12.54292,12.54292,0,0,0-12.55033,12.5527v27.93214h-.30155a14.0971,14.0971,0,0,0-14.09465,14.09356v.00091a14.09522,14.09522,0,0,0,14.09465,14.09355h.30155v25.68884h-.30155a14.094,14.094,0,1,0,0,28.188h.30155v31.67083a136.15836,136.15836,0,0,0-30.78472,14.54c-22.87284,14.596-42.56367,37.42733-55.35276,64.90179a19.77575,19.77575,0,0,0-.98761,3.00564l-.0113-.002c-.008.02839-.008.05787-.01511.08626a20.25539,20.25539,0,0,0-.65587,3.48172c-.02018.1929-.03655.3838-.05077.5767a20.80264,20.80264,0,0,0-.01511,3.22894c.0253.35123.09027.68918.13285,1.0364a21.46664,21.46664,0,0,0,.27826,2.15906c.04458.1858.13794.34522.18671.52884a19.87045,19.87045,0,0,0,1.25769,3.54978c.03658.07825.08226.15032.12175.22839a18.19449,18.19449,0,0,0,.99072,1.78872,16.49026,16.49026,0,0,0,1.38872,1.8697c.05386.063.10757.12393.16342.18471.31665.35542.65389.68936.99909,1.008.14395.13394.29518.25878.44331.38471.28936.24568.58672.48117.89336.69937.2293.16051.46278.30264.69936.44768.26588.16451.53394.32884.8111.47206.29737.15232.60692.27607.91557.40291.24677.10155.48826.21329.741.29846a11.44853,11.44853,0,0,0,1.16943.30155c.20492.04458.40182.10864.608.143a11.7444,11.7444,0,0,0,1.89609.15851h202.095a11.65592,11.65592,0,0,0,5.99109-1.673,15.8785,15.8785,0,0,0,6.28845-7.50247,19.8882,19.8882,0,0,0,1.10755-3.42293,20.95743,20.95743,0,0,0,.50046-3.71211,21.73853,21.73853,0,0,0-.17359-3.90009c-1.86682-13.865-4.9354-26.88957-9.28481-36.60805a160.41069,160.41069,0,0,0-7.51287-14.72285V1514.73006a12.54345,12.54345,0,0,0-12.5496-12.5527H654.25563V1352.34027H781.22791v149.83709h-12.525a12.5434,12.5434,0,0,0-12.55467,12.5527v175.60727a159.81571,159.81571,0,0,0-7.50759,14.72285c-3.44,7.67608-6.04495,17.44533-7.91866,28.0306-.1798,1.014-.32684,2.0577-.49136,3.0859l-.00382-.00109c-.29263,1.8293-.61838,3.62694-.87225,5.49373a21.46242,21.46242,0,0,0,.326,7.61111,19.88056,19.88056,0,0,0,1.10646,3.42293,15.87973,15.87973,0,0,0,6.28642,7.50247,11.65084,11.65084,0,0,0,5.9909,1.673h202.095a11.67785,11.67785,0,0,0,1.89227-.15851c.214-.03439.4142-.10045.62421-.14613a11.54507,11.54507,0,0,0,1.15614-.29736c.259-.08626.50446-.20109.75541-.30464.3045-.12484.60692-.2455.89919-.39582.28535-.14613.55727-.31465.82842-.48316.22836-.141.45766-.27807.677-.43349.31462-.2222.61616-.46187.91356-.71246.14337-.12284.28732-.24277.42635-.37052.35014-.32284.69154-.66188,1.01314-1.02221.04874-.05587.09933-.11064.1481-.1676a16.51373,16.51373,0,0,0,1.39072-1.87389,17.69531,17.69531,0,0,0,.97453-1.752c.04658-.09245.10045-.17671.14413-.27006a19.83851,19.83851,0,0,0,1.25659-3.54869,20.89213,20.89213,0,0,0,.46188-2.6697c.04368-.35723.11065-.70246.137-1.06479a20.88176,20.88176,0,0,0-.01616-3.20473c-.01623-.20291-.03261-.40091-.0539-.604a20.25543,20.25543,0,0,0-.17962-2.022c-.09827-.48826-.33791-.95923-.47388-1.4444-.00838-.02948-.00838-.05988-.01638-.08936l-.0122.002a19.67244,19.67244,0,0,0-.98653-3.00564,165.26238,165.26238,0,0,0-17.10138-28.76054,152.73487,152.73487,0,0,0-21.74725-23.7063,135.48539,135.48539,0,0,0-16.49919-12.435,133.982,133.982,0,0,0-15.08737-8.30738,139.06,139.06,0,0,0-15.6972-6.23258v-31.67083h.30137a14.094,14.094,0,1,0,0-28.188h-.30137v-25.68884h.30137a14.09708,14.09708,0,0,0,14.09483-14.09355v-.00091a14.099,14.099,0,0,0-14.09483-14.09356h-.30137v-27.93214a12.55505,12.55505,0,0,0-12.55451-12.5527h-24.0568V1352.34027h165.81071a48.38193,48.38193,0,0,0,48.4197-48.4208v-97.29109h0V764.74805a28.74231,28.74231,0,0,0,9.72868,1.14195,32.51524,32.51524,0,0,0-.00819,5.73522,22.54029,22.54029,0,0,0,6.26315,14.21748,20.429,20.429,0,0,0,5.18909,3.772,22.95542,22.95542,0,0,0,4.55469,1.73685,26.48157,26.48157,0,0,0,3.72029.70446c.14832.01729.31174-.006.461.0091.76633.07116,1.56724.04768,2.356.06188.64462.01637,1.27079.04986,1.92866.02638.16652-.006.32375.01529.49031.00728a38.09876,38.09876,0,0,0,6.00124-.8071c.30555-.06187.59781-.069.90537-.14012l.00709-.002c.02748-.006.05278-.006.08026-.0122a28.79,28.79,0,0,0,.52284,4.49992,21.64649,21.64649,0,0,0,5.82039,11.27462c6.42548,6.44787,16.48118,7.91266,27.10084,5.02057-.418,9.685,2.65151,18.1305,9.31557,23.00912a20.47073,20.47073,0,0,0,5.706,2.92648c6.10556,2.01384,13.29643,1.34286,20.49461-1.59072-.10773,9.15816,2.9516,17.0992,9.32431,21.76654,5.1984,3.80255,11.80856,4.83786,18.78018,3.54887a29.06348,29.06348,0,0,0,2.76306,10.47571,21.04906,21.04906,0,0,0,6.44477,7.77854c5.79728,4.24313,13.34651,5.08462,21.20749,3.04222.06988.743.18962,1.46169.30336,2.18144a24.38108,24.38108,0,0,0,6.63058,13.7809,80.12657,80.12657,0,0,0-2.8697,17.38528q-.19328,3.49164-.07807,6.9869.11547,3.493.53885,6.96562a76.17837,76.17837,0,0,0,2.42839,12.047,84.67312,84.67312,0,0,0,9.89592,22.4548,64.43114,64.43114,0,0,0,19.445,19.39947,96.509,96.509,0,0,0,11.57-5.87243q1.99464-1.15415,4.00965-2.37835c.69427-.41911,1.38362-.82821,2.07812-1.25569q2.84243-1.74623,5.6995-3.52939l-.007-.0051c7.56143-4.70992,15.09934-9.36015,21.97141-12.1678l-.00091-.00109h.00091a142.41314,142.41314,0,0,1-12.41348-13.24587,149.084,149.084,0,0,1-26.24389-47.42789,55.55228,55.55228,0,0,0,6.45988-4.81675c1.30738,2.4677,2.77617,4.99018,4.40747,7.531a102.81175,102.81175,0,0,0,37.07811,34.91705,93.18182,93.18182,0,0,0,22.18892,8.56925,117.06486,117.06486,0,0,0,14.2-16.891c1.2202-1.77343,2.34086-3.5132,3.38326-5.22257,2.085-3.41675,3.85933-6.70665,5.48663-9.881,1.62821-3.17416,3.10919-6.23258,4.61056-9.18655a60.87492,60.87492,0,0,0-14.99182-14.09137c-11.67536-7.95014-26.10412-13.1718-39.62716-16.59674-3.38126-.85678-6.7046-1.60073-9.91539-2.24731-3.21074-.64677-6.30664-1.19491-9.23294-1.66079.59363-1.51247,1.12957-3.02293,1.57325-4.5263a149.65025,149.65025,0,0,1,27.86517-6.99891,145.91014,145.91014,0,0,1,47.72944.612h0v-.0031h.00205c-2.0728-8.12466-2.764-18.32941-3.58622-28.33924-.27407-3.33558-.56251-6.65078-.92193-9.85952-.26479-2.36306-.56633-4.67134-.92771-6.88827-.36237-2.21711-.78476-4.34159-1.29431-6.33631a67.08835,67.08835,0,0,0-12.86626-3.42184c-.65259-.10355-1.30027-.12794-1.95305-.2111a63.902,63.902,0,0,0-10.72321-.52885q-3.16105.12939-6.32812.55323a89.62453,89.62453,0,0,0-19.22386,4.9536c-1.62184.59982-3.169,1.37343-4.74541,2.083a77.60863,77.60863,0,0,0-12.90465,7.341c-2.14923,1.51665-4.23932,3.12248-6.24278,4.82585a73.83742,73.83742,0,0,0-5.73758,5.41238,23.85077,23.85077,0,0,0-9.5123-1.58053,31.14571,31.14571,0,0,0-5.69663.68517v.00109c-.50974.10864-1.0182.20091-1.53285.335-.69132-7.52084-3.7072-13.94342-9.1754-17.94579-5.19295-3.80455-11.80442-4.838-18.78114-3.54886-.62839-7.65679-3.65824-14.19692-9.20274-18.25534a20.45024,20.45024,0,0,0-5.70391-2.92539c-6.10574-2.01493-13.29756-1.34395-20.49557,1.59054.10646-9.158-2.95286-17.10011-9.32466-21.76654a22.32406,22.32406,0,0,0-14.334-4.04914,31.75467,31.75467,0,0,0-5.41129.70046c-.23876-6.1951-2.275-11.73141-6.34359-15.812a21.699,21.699,0,0,0-11.36689-5.88445,33.95045,33.95045,0,0,0-14.327.53085,28.94333,28.94333,0,0,0-.52465-4.49991,22.8096,22.8096,0,0,0-3.14778-7.96234,20.06844,20.06844,0,0,0-2.67061-3.31229,20.95339,20.95339,0,0,0-8.35233-5.08663,28.56842,28.56842,0,0,0-10.35888-1.28408v-.00709c.68007-7.8557-1.29842-14.97563-6.25606-19.94543-3.95578-3.966-9.288-6.02057-15.27714-6.34523a34.31638,34.31638,0,0,0-6.18293.24459v-.00109l-.0071.002a40.85825,40.85825,0,0,0-4.372.78271,33.6929,33.6929,0,0,0-1.73067-14.03568,21.65542,21.65542,0,0,0-7.48736-10.20165,20.66457,20.66457,0,0,0-5.35851-2.81474,25.90005,25.90005,0,0,0-12.94451-.8344V618.759h20.69466a33.27354,33.27354,0,0,0,33.27974-33.27956V514.80985h0a33.27306,33.27306,0,0,0-33.27974-33.27865H1058.606V394.98171h0v-.00091a47.83158,47.83158,0,0,0-.945-8.98764c-.10446-.54213-.20291-1.079-.32575-1.614a48.0242,48.0242,0,0,0-2.69409-8.4415l-.00305-.0091.06311.00109a46.03018,46.03018,0,0,0-2.4597-4.88572c-.04476-.07516-.09044-.14613-.13412-.22129a50.78941,50.78941,0,0,0-2.93048-4.46133l-.04459-.00091-.00619-.0071c-.879-1.19691-1.8464-2.31447-2.82984-3.424-.31684-.35833-.61438-.73285-.94119-1.08208-.9014-.95815-1.86045-1.85041-2.83625-2.73249-.49427-.44768-.98053-.89936-1.49209-1.32684-.92065-.76834-1.8768-1.485-2.85441-2.18344-.65165-.467-1.31043-.91866-1.98545-1.35414-.92884-.59691-1.87188-1.16215-2.8424-1.69518-.816-.4506-1.65041-.8617-2.49409-1.26479-.91247-.43349-1.822-.86188-2.764-1.2384-1.00291-.402-2.03421-.739-3.06861-1.075-.85569-.27716-1.69936-.57452-2.57616-.804-1.25584-.33085-2.547-.56324-3.84132-.79163-.71865-.12794-1.41674-.30155-2.14686-.396a48.35405,48.35405,0,0,0-6.26716-.42639H730.90812a17.55167,17.55167,0,0,1,1.32266-4.48044c1.91137-4.35687,5.41766-8.30865,9.00474-11.56707,3.62694-3.29191,7.49245-6.41129,11.07772-9.76107a51.47774,51.47774,0,0,0,9.39364-11.1365,27.28792,27.28792,0,0,0,3.81965-14.23149c-.11155-4.89373-1.75905-9.55306-5.40328-12.82677-2.5956-2.33267-6.06006-3.93849-9.428-5.527-4.49191-2.11956-8.81621-4.20965-10.691-7.95524a9.164,9.164,0,0,1-.91247-3.14686,10.71286,10.71286,0,0,1,3.18635-8.54505,13.23581,13.23581,0,0,1,2.48481-2.00874c6.20019-3.8788,13.33523-4.44914,20.28264-5.73431a52.15572,52.15572,0,0,0,6.84259-1.67079c6.4082-2.10847,12.68355-7.259,13.55252-13.64187A11.12293,11.12293,0,0,0,785.466,231.52a12.3996,12.3996,0,0,0-.95723-3.495c-1.43419-3.3243-4.14869-6.17071-6.75033-8.79874C764.90233,206.2554,752.027,194.787,739.1609,182.71653a56.27479,56.27479,0,1,0-53.05683,6.94523,56.76235,56.76235,0,0,0,20.23278,3.71938c.07006.08826.11465.1909.18781.27807l21.93723,26.12942a37.24676,37.24676,0,0,1,3.06643,4.03094,12.16054,12.16054,0,0,1,1.83422,4.59218,9.80643,9.80643,0,0,1-1.18872,6.32412,14.43273,14.43273,0,0,1-1.96215,2.72139,23.59953,23.59953,0,0,1-5.59215,4.41765,30.98538,30.98538,0,0,1-9.3651,3.61984,25.16924,25.16924,0,0,0-13.45606,6.655c-8.08118,8.24441-6.8031,15.946-2.22821,22.35125a36.93357,36.93357,0,0,0,5.44914,5.94632c.67807.606,1.37124,1.19381,2.0717,1.76015,1.40182,1.13485,2.83312,2.18963,4.22676,3.154.69757.48317,1.38562.942,2.0566,1.37944a34.79743,34.79743,0,0,1,9.275,8.36543c10.14887,13.865-.18981,24.97-10.45931,31.72451-8.14835,5.3616-17.5429,10.22894-20.8217,19.72813H425.29745a48.45785,48.45785,0,0,0-6.26425.42548c-.745.09736-1.4606.275-2.19561.40491-1.275.22748-2.54689.45387-3.784.78071-.89554.23349-1.75524.53686-2.6304.82112-1.016.331-2.02893.65987-3.01347,1.05568-.9585.38381-1.88316.81929-2.81,1.26079-.8262.3949-1.6424.7969-2.44131,1.2364-.98872.54194-1.94795,1.11865-2.89391,1.72757-.65568.42329-1.29517.86187-1.92866,1.31556-.99891.71265-1.97143,1.4455-2.91136,2.22912-.48719.4091-.952.83858-1.42311,1.265-.99784.90136-1.97746,1.81492-2.897,2.79436-.30555.32593-.58271.67607-.87914,1.01019-1.006,1.13176-1.99165,2.2768-2.88884,3.49991l-.00107.0011h-.05079a51.47221,51.47221,0,0,0-2.90119,4.42475c-.05587.09227-.11465.18162-.16851.27407-.29918.51974-.53085,1.083-.812,1.616-.55924,1.0597-1.13995,2.10519-1.616,3.21275a.38841.38841,0,0,1-.01929.04167,48.23138,48.23138,0,0,0-3.89081,19.02568h0V481.5312H356.182a33.26991,33.26991,0,0,0-33.27974,33.27865h0v70.66959A33.27122,33.27122,0,0,0,356.182,618.759h20.69466v45.37457a28.93816,28.93816,0,0,0-6.27117-.398,23.86018,23.86018,0,0,0-5.86622,1.0111,23.46419,23.46419,0,0,0-2.56108,1.01911c-.335.14814-.69536.23549-1.0202.406a20.53122,20.53122,0,0,0-2.58434,1.61092,21.67973,21.67973,0,0,0-7.48938,10.20165A33.66109,33.66109,0,0,0,349.3567,692.02a41.00521,41.00521,0,0,0-4.37016-.78271l-.01-.002v.00109a34.31291,34.31291,0,0,0-6.1829-.24459c-5.99218.32466-11.32647,2.37926-15.28227,6.34523a20.43584,20.43584,0,0,0-3.16506,4.11011,24.17967,24.17967,0,0,0-3.09809,10.1092,32.49248,32.49248,0,0,0,.00819,5.73321,28.57035,28.57035,0,0,0-10.35887,1.28408,20.94827,20.94827,0,0,0-8.35325,5.08663,20.15076,20.15076,0,0,0-2.66861,3.31229,22.80267,22.80267,0,0,0-3.14778,7.96234,28.902,28.902,0,0,0-.52175,4.49991,33.96069,33.96069,0,0,0-14.329-.53085,21.717,21.717,0,0,0-11.369,5.88445,20.6893,20.6893,0,0,0-4.60348,7.11265,26.57406,26.57406,0,0,0-1.73576,8.69938c-7.332-1.57435-14.31267-.6293-19.7445,3.34868-6.37782,4.66643-9.43624,12.60857-9.3296,21.76654-7.198-2.93449-14.38782-3.60547-20.49265-1.59054a20.4586,20.4586,0,0,0-5.70264,2.92539c-5.5445,4.05842-8.57453,10.59855-9.208,18.25534-6.97671-1.28917-13.58181-.25569-18.78018,3.54886-5.46625,4.00237-8.48208,10.42495-9.17417,17.9447-.51374-.133-1.02238-.22639-1.53394-.335h.002a31.188,31.188,0,0,0-5.53631-.68008,26.6725,26.6725,0,0,0-5.00237.30046,21.63481,21.63481,0,0,0-4.66825,1.275,80.3581,80.3581,0,0,0-13.69665-11.5274c-.92775-.61711-1.92975-1.11156-2.8788-1.689a76.4623,76.4623,0,0,0-13.05915-6.44587,83.26382,83.26382,0,0,0-25.5549-5.50683A63.78409,63.78409,0,0,0,76.26526,804.44c-1.98744.54322-3.98217,1.16342-5.99509,1.91247h-.00182c-2.6435,10.36416-3.0546,24.085-4.352,36.47319-.43241,4.1294-.96325,8.10956-1.70829,11.77-.21729,1.06588-.4071,2.17434-.663,3.18016v.0031h0A145.89126,145.89126,0,0,1,111.27166,857.16689Z" transform="translate(-33.09252 -40.17734)" style="fill:#d57f69"/><path d="M1336.97878,778.97354a99.64079,99.64079,0,0,0-2.222-13.22458,67.061,67.061,0,0,0-12.86625-3.42184c-.65259-.10464-1.30027-.12794-1.954-.2111a63.89217,63.89217,0,0,0-10.7223-.52885q-3.16107.12775-6.32813.55323a89.58707,89.58707,0,0,0-19.22386,4.9536c-1.62311.59982-3.16906,1.37343-4.7454,2.083a77.56129,77.56129,0,0,0-12.90462,7.341,80.33381,80.33381,0,0,0-11.9804,10.23823,23.85394,23.85394,0,0,0-9.51229-1.58053,31.14916,31.14916,0,0,0-5.69682.68517v.00109c-.50955.10846-1.01911.20091-1.53267.33485-.69135-7.52066-3.70719-13.94323-9.17544-17.9456-5.19418-3.80565-11.80438-4.838-18.78109-3.54978-.62839-7.65588-3.65824-14.196-9.20292-18.25443-7.01529-5.1374-16.60275-5.247-26.20035-1.33485.10751-9.15906-2.952-17.10011-9.32471-21.76654-5.43676-3.97816-12.41748-4.92321-19.74415-3.34977-.23985-6.194-2.276-11.73141-6.34359-15.81094-6.14323-6.1607-15.60384-7.74614-25.69393-5.35469-.24859-6.17981-2.27989-11.70393-6.343-15.77454-4.69591-4.711-11.34069-6.72794-18.71231-6.36961.68212-7.8577-1.29517-14.98073-6.255-19.95253-5.27335-5.28772-12.99528-7.1778-21.46008-6.10064v-.00109l-.00709.002a40.82254,40.82254,0,0,0-4.37286.78271c.73591-10.19455-2.275-19.15579-9.21715-24.23733a20.63584,20.63584,0,0,0-5.35869-2.81492,25.89161,25.89161,0,0,0-12.94433-.8344V578.15441H1048.848a33.28143,33.28143,0,0,0,33.27956-33.27865v-70.6694a33.28155,33.28155,0,0,0-33.27956-33.27865h-20.69465v-86.5495a47.9605,47.9605,0,0,0-3.968-19.05316l.06318.00091a45.75252,45.75252,0,0,0-2.46082-4.88554c-.04368-.07515-.08935-.14613-.13394-.22129a50.75373,50.75373,0,0,0-2.92958-4.46242h-.04476a48.23756,48.23756,0,0,0-38.9469-19.8013H700.45441c.90646-6.127,5.54431-11.70392,10.32849-16.04751,7.25405-6.58381,15.4628-12.47954,20.47135-20.89756,5.00729-8.42021,5.70465-20.51194-1.58362-27.05717-6.92285-6.22148-20.01349-7.27117-21.03169-16.63023-.46278-4.26243,2.0364-8.27917,5.67044-10.55488,8.26789-5.17089,18.19638-4.46242,27.12614-7.4051,7.32285-2.40874,14.47429-8.79073,13.57781-16.44642-.57052-4.89883-4.238-8.78873-7.70756-12.29374-12.85606-12.97089-25.73251-24.43933-38.59876-36.51068a56.25658,56.25658,0,1,0-32.82276,10.66552c.06986.08827.11353.19072.18669.27808l21.93815,26.12941c2.15287,2.56506,4.38908,5.30993,4.90082,8.62312,1.41311,9.13686-10.6839,15.6628-18.1083,17.083-5.02766.96233-9.87061,2.99855-13.45588,6.65479-14.36634,14.65588.8475,27.59839,11.57508,34.5913a34.76475,34.76475,0,0,1,9.27572,8.36525c10.148,13.86516-.18981,24.97018-10.45916,31.72469-8.14832,5.3616-17.54305,10.22894-20.82167,19.72813H394.84464a48.23539,48.23539,0,0,0-38.962,19.82678l-.05077.0009a51.12383,51.12383,0,0,0-2.90119,4.42494c-.05587.09227-.11465.18053-.16852.27407a46.24332,46.24332,0,0,0-2.428,4.82876.24979.24979,0,0,1-.02039.04058,48.25244,48.25244,0,0,0-3.88972,19.02677v86.5495H325.72938a33.27844,33.27844,0,0,0-33.27974,33.27865v70.6694a33.27833,33.27833,0,0,0,33.27974,33.27865H346.424v45.37548a26.19833,26.19833,0,0,0-12.13741.61329,20.91954,20.91954,0,0,0-3.58126,1.42511,20.4702,20.4702,0,0,0-2.58435,1.61092c-6.94232,5.08154-9.958,14.04278-9.21693,24.23733a40.9225,40.9225,0,0,0-4.37016-.78271l-.01019-.002v.00109c-8.4648-1.07716-16.19055.81292-21.465,6.10064-4.9587,4.9718-6.937,12.09483-6.255,19.95253-7.37052-.35833-14.01639,1.6586-18.71212,6.36961-4.05842,4.07061-6.09463,9.59473-6.33831,15.77454-10.095-2.39145-19.55052-.806-25.699,5.35469-4.06207,4.07953-6.09954,9.61693-6.33814,15.81094-7.33193-1.57344-14.31266-.62839-19.74451,3.34977-6.3778,4.66643-9.43713,12.60748-9.32958,21.76654-9.59765-3.91211-19.18018-3.80255-26.1953,1.33485-5.5445,4.05842-8.57453,10.59855-9.208,18.25443-6.97672-1.28826-13.58291-.25587-18.78018,3.54978-5.46625,4.00237-8.48207,10.42494-9.17417,17.94469-.51374-.133-1.02239-.22639-1.53394-.335h.002a31.26114,31.26114,0,0,0-5.53631-.68117,23.90135,23.90135,0,0,0-9.67062,1.57653,80.30073,80.30073,0,0,0-13.69665-11.5274c-.92883-.61711-1.92974-1.11156-2.8797-1.68917A76.42659,76.42659,0,0,0,90.911,767.094a83.25843,83.25843,0,0,0-25.55489-5.50683,63.74976,63.74976,0,0,0-19.54341,2.24932c-1.98746.543-3.98528,1.16324-5.99711,1.91247-3.52448,13.81839-3.08189,33.60458-6.06006,48.24318-.21729,1.06569-.4071,2.17416-.663,3.18016v.0031a147.83311,147.83311,0,0,1,75.59461,6.3869c.44368,1.50228.97962,3.01274,1.56943,4.52521C86.85271,831.8149,52.5111,840.8544,36.488,862.68482c6.00747,11.81366,11.69282,25.30612,27.68155,41.18111,32.499-7.99473,53.209-31.28192,63.67341-51.01734a55.98848,55.98848,0,0,0,6.46006,4.81566A147.72293,147.72293,0,0,1,95.64544,918.3402c6.87226,2.80564,14.40912,7.46279,21.96745,12.17089.39181.24459.78162.48408,1.17344.72775,1.69117,1.05569,3.38343,2.10829,5.06733,3.13868.97652.59781,1.94087,1.15923,2.9132,1.73885.97871.58563,1.96833,1.18872,2.93976,1.748,1.36124.78271,2.69919,1.49117,4.034,2.20164.56033.29645,1.13285.63348,1.685.91465,1.88808.96033,3.73958,1.83021,5.54741,2.56815l.002-.002v.00109c12.576-8.17962,20.57383-18.93559,25.92961-32.16017.43438-1.0657.89626-2.10319,1.29407-3.20256.0122-.03039.01929-.063.03149-.09335q1.1222-3.1122,2.07989-6.396a79.04121,79.04121,0,0,0,.01929-43.38293,23.9193,23.9193,0,0,0,6.41639-12.511,32.74471,32.74471,0,0,0,.51665-3.45423c7.86315,2.04131,15.41421,1.20073,21.21148-3.04222,5.54432-4.05842,8.56926-10.60056,9.20274-18.25443,6.97671,1.28826,13.58292.25277,18.78109-3.54869,6.3769-4.66734,9.43623-12.60838,9.32868-21.76763,9.59764,3.91229,19.18,3.80255,26.19529-1.33485,6.66534-4.87844,9.73377-13.32394,9.31957-23.00894,10.61584,2.891,20.67136,1.4273,27.10194-5.02057,4.05824-4.07061,6.09445-9.59473,6.33813-15.77454.02948.0071.059.006.08735.01329a39.199,39.199,0,0,0,5.47644.8515c.46479.04168.92066.07425,1.37835.09754a31.79711,31.79711,0,0,0,5.29372-.10555,26.791,26.791,0,0,0,3.71939-.70446,23.00224,23.00224,0,0,0,4.55469-1.73685,20.53492,20.53492,0,0,0,5.18908-3.77216c4.9547-4.9687,6.932-12.09173,6.255-19.95252a28.70256,28.70256,0,0,0,9.72867-1.143V1263.316a48.42131,48.42131,0,0,0,48.42061,48.42062H560.65427V1461.575H536.59273a12.54966,12.54966,0,0,0-12.54942,12.55161v27.93215h-.30173a14.094,14.094,0,1,0,0,28.188h.30173v25.68884h-.30173a14.094,14.094,0,1,0,0,28.188h.30173v31.67065a136.12872,136.12872,0,0,0-30.78474,14.54014c-22.87282,14.596-42.56471,37.42733-55.35272,64.90179a20.84215,20.84215,0,0,0,.11973,17.65025c.03658.07934.08228.15141.12174.22948a17.83443,17.83443,0,0,0,.99072,1.78763,16.48312,16.48312,0,0,0,1.38872,1.87079c.05369.06187.10756.12284.16345.18471.31665.35523.65257.68918.99888,1.008.143.13394.29445.25787.4435.38471.28935.24568.58674.48117.89336.69937.2293.16033.46278.30246.69936.44659.26588.16451.53394.32993.8111.47315.29736.15214.60694.27607.91556.40292.24677.10154.48717.2131.741.29845a11.45232,11.45232,0,0,0,1.16925.30046c.20436.04458.402.10955.60912.14413a11.74569,11.74569,0,0,0,1.89516.15832h202.095c8.64659,0,15.13595-9.65351,13.71393-20.21039-1.86585-13.865-4.9354-26.88975-9.28609-36.60805a160.032,160.032,0,0,0-7.51174-14.72285V1474.12656a12.55,12.55,0,0,0-12.55051-12.55161H623.80192V1311.73659H750.77529V1461.575H738.24916a12.55323,12.55323,0,0,0-12.5536,12.55161v175.60727a159.83546,159.83546,0,0,0-7.50756,14.72285c-4.35578,9.7183-7.42039,22.74307-9.28609,36.60805-1.422,10.55688,5.06224,20.21039,13.70975,20.21039h202.095a11.6956,11.6956,0,0,0,1.89209-.15832c.21419-.03549.41437-.10046.62333-.14614a11.85963,11.85963,0,0,0,1.1572-.29736c.25878-.08735.50446-.20109.75545-.30464.30442-.12484.60688-.24659.89914-.39581.28426-.14614.55724-.31465.82839-.48317.22839-.14122.45769-.27825.677-.43349.31374-.22238.6162-.46187.91265-.71264.14432-.12284.28826-.24259.42624-.37052.35123-.32266.69242-.6617,1.01416-1.02221.04863-.05568.09937-.11155.14814-.16742a16.55634,16.55634,0,0,0,1.39072-1.87389,17.6871,17.6871,0,0,0,.97452-1.752c.04662-.09245.10046-.1767.14413-.27006a20.85364,20.85364,0,0,0,.11684-17.65134c-12.78819-27.47446-32.47483-50.30578-55.34783-64.90179a136.13111,136.13111,0,0,0-30.78456-14.54014v-31.67065h.30137a14.094,14.094,0,1,0,0-28.188h-.30137v-25.68884h.30137a14.094,14.094,0,1,0,0-28.188h-.30137v-27.93215a12.55412,12.55412,0,0,0-12.55452-12.55161h-24.0568V1311.73659H979.73257a48.42123,48.42123,0,0,0,48.42079-48.42062V724.14346a28.71206,28.71206,0,0,0,9.72867,1.143c-.68225,7.86079,1.29627,14.98382,6.255,19.95252a20.42647,20.42647,0,0,0,5.18908,3.77216,22.92963,22.92963,0,0,0,4.55469,1.73685,29.27553,29.27553,0,0,0,9.00784.81c.46115-.02329.91574-.05586,1.37853-.09754a39.19914,39.19914,0,0,0,5.47643-.8515c.02839-.00728.05788-.00619.08736-.01329.24349,6.17981,2.27989,11.70393,6.34322,15.77454,6.42549,6.44787,16.48118,7.91157,27.10176,5.02057-.41893,9.685,2.6495,18.1305,9.31448,23.00894,7.02039,5.1374,16.60292,5.24714,26.20075,1.33485-.10792,9.15925,2.95163,17.10029,9.3243,21.76763,5.19837,3.80146,11.80857,4.837,18.78019,3.54869.63348,7.65387,3.66351,14.196,9.20783,18.25443,5.79728,4.243,13.34651,5.08353,21.20625,3.04222.07111.743.19086,1.4606.3046,2.18144a24.37885,24.37885,0,0,0,6.63058,13.78072,80.11658,80.11658,0,0,0-2.86966,17.38546,79.02057,79.02057,0,0,0,.46074,13.95234,76.04386,76.04386,0,0,0,2.42839,12.046c3.23476,11.1001,7.81184,20.70885,14.56653,28.82041a65.37267,65.37267,0,0,0,14.77326,13.03477c1.8495-.75523,3.74468-1.6464,5.67844-2.63822,1.93376-.99072,3.9021-2.08189,5.89264-3.234,1.32975-.76943,2.66461-1.56633,4.00965-2.37835.69427-.41929,1.38344-.82839,2.07807-1.25568q2.8425-1.74651,5.69955-3.53049l-.0071-.004c7.56034-4.71011,15.09938-9.36016,21.97145-12.1678a147.771,147.771,0,0,1-38.65736-60.67595,55.56707,55.56707,0,0,0,6.45988-4.81566c10.46443,19.73542,31.17437,43.02261,63.6734,51.01734,15.98964-15.875,21.67409-29.36745,27.68156-41.18111-16.01822-21.83042-50.35947-30.86992-73.76859-34.59731.5949-1.51247,1.13085-3.02293,1.57457-4.52521a147.82327,147.82327,0,0,1,75.59439-6.3869v-.004l.00218.00091C1338.72291,806.33935,1338.41517,791.80831,1336.97878,778.97354Z" transform="translate(-33.09252 -40.17734)" style="fill:#e5dced"/><path d="M1048.848,440.92771h-20.69465V578.1555H1048.848a33.28236,33.28236,0,0,0,33.27956-33.27974v-70.6694A33.28213,33.28213,0,0,0,1048.848,440.92771Z" transform="translate(-33.09252 -40.17734)" style="fill:#ef4262"/><path d="M325.72938,440.92771a33.279,33.279,0,0,0-33.27974,33.27865v70.6694a33.27926,33.27926,0,0,0,33.27974,33.27974H346.424V440.92771H325.72938Z" transform="translate(-33.09252 -40.17734)" style="fill:#ef4262"/><path d="M764.9764,1439.15473a57.338,57.338,0,0,1-14.202-4.711V1461.575h63.14856v-19.3456c-6.5869-2.358-13.90465-2.80674-20.97363-2.66261C783.60535,1439.75655,774.16913,1440.81843,764.9764,1439.15473Z" transform="translate(-33.09252 -40.17734)" style="fill:#c1b1cd"/><path d="M750.77438,1323.63851a238.05089,238.05089,0,0,1,53.288,2.31338c3.30719.52393,6.5769,1.24568,9.86061,1.90737v-16.12267H750.77438Z" transform="translate(-33.09252 -40.17734)" style="fill:#c1b1cd"/><path d="M936.66665,1695.23615c-12.78819-27.47446-32.47592-50.30578-55.34783-64.90179a136.11907,136.11907,0,0,0-30.78456-14.53905v-31.67174h.30137a14.094,14.094,0,1,0,0-28.188h-.30137v-25.68884h.30137a14.094,14.094,0,1,0,0-28.188h-.30137v-27.93215a12.55412,12.55412,0,0,0-12.55452-12.55161H738.24916a12.55323,12.55323,0,0,0-12.5536,12.55161v175.60727a159.83546,159.83546,0,0,0-7.50756,14.72285c-4.35578,9.7183-7.42039,22.74307-9.28609,36.60805-1.422,10.558,5.06224,20.21039,13.70975,20.21039h202.0941a11.69819,11.69819,0,0,0,1.893-.15832c.21419-.03458.41437-.10046.62333-.14614a11.85963,11.85963,0,0,0,1.1572-.29736c.25878-.08644.50446-.20109.75545-.30464.30442-.12484.60688-.24659.89914-.39581.28426-.14614.55724-.31465.8273-.48317.22948-.14013.45878-.27825.67807-.43349.31374-.22238.6162-.46187.91265-.71264.14432-.12175.28826-.24259.42624-.37052.35123-.32266.69242-.6617,1.01416-1.02221.04863-.05568.09937-.11064.14814-.16742a16.55634,16.55634,0,0,0,1.39072-1.87389,17.6871,17.6871,0,0,0,.97452-1.752c.04662-.09245.0994-.1767.14413-.27006A20.85693,20.85693,0,0,0,936.66665,1695.23615Z" transform="translate(-33.09252 -40.17734)" style="fill:#ef4262"/><path d="M656.38939,1664.45668a160.032,160.032,0,0,0-7.51174-14.72285V1474.12656a12.55,12.55,0,0,0-12.55051-12.55161H536.59273a12.54966,12.54966,0,0,0-12.54942,12.55161v27.93215h-.30173a14.094,14.094,0,1,0,0,28.188h.30173v25.68884h-.30173a14.094,14.094,0,1,0,0,28.188h.30173v31.67174a136.11669,136.11669,0,0,0-30.78474,14.53905c-22.87282,14.596-42.56471,37.42733-55.35272,64.90179a20.84469,20.84469,0,0,0,.11973,17.65134c.03658.07825.08228.15032.12174.22839a17.83443,17.83443,0,0,0,.99072,1.78763,16.38643,16.38643,0,0,0,1.38872,1.87079c.05369.063.10756.12375.16345.18471a14.15186,14.15186,0,0,0,.99888,1.008c.143.13394.29445.25787.4435.38471.28935.24568.58674.48117.89336.69937.2293.16033.46278.30246.69936.44768.26588.16451.53285.32884.8111.47206.29736.15214.60694.27607.91556.404.24677.10045.48717.2131.741.29736a11.45232,11.45232,0,0,0,1.16925.30046c.20436.04567.402.10955.60912.14413a11.74569,11.74569,0,0,0,1.89516.15832h202.095c8.64659,0,15.13595-9.65242,13.71393-20.21039C663.80963,1687.19975,660.74008,1674.175,656.38939,1664.45668Z" transform="translate(-33.09252 -40.17734)" style="fill:#ef4262"/><path d="M829.29748,1549.8755a48.72344,48.72344,0,0,1-.41911,6.06006h21.65589v-25.68884H825.10839A48.13876,48.13876,0,0,1,829.29748,1549.8755Z" transform="translate(-33.09252 -40.17734)" style="fill:#ef4262"/><path d="M791.42465,1570.03a14.09758,14.09758,0,0,1,14.09446-14.09446h23.35926a48.72344,48.72344,0,0,0,.41911-6.06006,48.13876,48.13876,0,0,0-4.18909-19.62878H805.51911a14.08712,14.08712,0,0,1-7.95321-25.7194,48.31393,48.31393,0,1,0,17.499,79.59625h-9.54578A14.09552,14.09552,0,0,1,791.42465,1570.03Z" transform="translate(-33.09252 -40.17734)" style="fill:#f05778"/><path d="M797.5659,1504.52732a14.08712,14.08712,0,0,0,7.95321,25.7194h45.31652a14.094,14.094,0,1,0,0-28.188H805.51911A14.01233,14.01233,0,0,0,797.5659,1504.52732Z" transform="translate(-33.09252 -40.17734)" style="fill:#ba2246"/><path d="M805.51911,1555.93556a14.094,14.094,0,1,0,0,28.188h45.31652a14.094,14.094,0,1,0,0-28.188H805.51911Z" transform="translate(-33.09252 -40.17734)" style="fill:#ba2246"/><path d="M581.623,1439.56674c-7.06389-.14413-14.38671.30464-20.96872,2.66261v19.3456h63.14765v-27.13123a57.38581,57.38581,0,0,1-14.20111,4.711C600.40317,1440.81843,590.972,1439.75655,581.623,1439.56674Z" transform="translate(-33.09252 -40.17734)" style="fill:#c1b1cd"/><path d="M560.65427,1327.85926c3.2788-.66169,6.55251-1.38344,9.85551-1.90737a238.091,238.091,0,0,1,53.29214-2.31338v-11.90192H560.65427Z" transform="translate(-33.09252 -40.17734)" style="fill:#c1b1cd"/><path d="M545.27973,1549.8755a48.13594,48.13594,0,0,1,4.18927-19.62878H524.04331v25.68884h21.6548A48.86436,48.86436,0,0,1,545.27973,1549.8755Z" transform="translate(-33.09252 -40.17734)" style="fill:#ef4262"/><path d="M583.14765,1516.15317a14.09354,14.09354,0,0,1-14.09446,14.09355H549.469a48.13594,48.13594,0,0,0-4.18927,19.62878,48.86436,48.86436,0,0,0,.41838,6.06006h23.35508a14.094,14.094,0,1,1,0,28.188h-9.54394a48.3934,48.3934,0,1,0,17.50027-79.59625A14.07687,14.07687,0,0,1,583.14765,1516.15317Z" transform="translate(-33.09252 -40.17734)" style="fill:#f05778"/><path d="M569.05319,1530.24672a14.094,14.094,0,0,0,0-28.188H523.74158a14.094,14.094,0,1,0,0,28.188h45.31161Z" transform="translate(-33.09252 -40.17734)" style="fill:#ba2246"/><path d="M569.05319,1584.12357a14.094,14.094,0,1,0,0-28.188H523.74158a14.094,14.094,0,1,0,0,28.188h45.31161Z" transform="translate(-33.09252 -40.17734)" style="fill:#ba2246"/><path d="M1045.36011,578.1555a512.442,512.442,0,0,1,1.63221-137.22779h-18.839V578.1555Z" transform="translate(-33.09252 -40.17734)" style="fill:#ca264b"/><path d="M327.58489,440.92771a512.22376,512.22376,0,0,1,1.6273,137.22779H346.424V440.92771Z" transform="translate(-33.09252 -40.17734)" style="fill:#ca264b"/><path d="M710.7829,289.9079c7.25405-6.58381,15.4628-12.47845,20.47135-20.89756,5.00729-8.42021,5.70465-20.51194-1.58362-27.05717-6.92285-6.22148-20.01349-7.27117-21.03169-16.63023-.46278-4.26243,2.0364-8.27917,5.67044-10.55488,8.26789-5.17089,18.19638-4.46242,27.12614-7.4051,7.32285-2.40874,14.47429-8.79073,13.57781-16.44642-.57052-4.89883-4.239-8.78873-7.70756-12.29374-12.85606-12.97089-25.73251-24.43933-38.59876-36.51068-.747.54-1.4586,1.11356-2.24022,1.62093a55.99805,55.99805,0,0,1-30.58254,9.04459c.06986.08827.11353.19072.18669.27808l21.93815,26.12941c2.15287,2.56506,4.38908,5.30993,4.90082,8.62312,1.41311,9.13686-10.6839,15.6628-18.1083,17.083-5.02766.96233-9.87061,2.99855-13.45588,6.65479-14.36634,14.657.8475,27.59839,11.57508,34.5913a34.78008,34.78008,0,0,1,9.27572,8.36525c10.148,13.86516-.18981,24.97018-10.45916,31.72469-8.14832,5.3616-17.54305,10.22894-20.82167,19.72813h39.53871C701.36087,299.82947,705.99872,294.25149,710.7829,289.9079Z" transform="translate(-33.09252 -40.17734)" style="fill:#ef4262"/><path d="M723.04,65.83925a56.26392,56.26392,0,1,0-16.57326,77.8938c.78162-.50737,1.49317-1.081,2.24022-1.62093A56.26217,56.26217,0,0,0,723.04,65.83925Z" transform="translate(-33.09252 -40.17734)" style="fill:#fdb931"/><path d="M707.79147,68.6236a36.57557,36.57557,0,0,0-61.65959,39.356,17.07122,17.07122,0,1,1,29.08738,17.06571A36.54239,36.54239,0,0,0,707.79147,68.6236Z" transform="translate(-33.09252 -40.17734)" style="fill:#ffd44f"/><path d="M678.90206,111.65531a17.07448,17.07448,0,0,0-32.77018-3.67571,17.07122,17.07122,0,1,0,32.77018,3.67571Z" transform="translate(-33.09252 -40.17734)" style="fill:#ffe696"/><path d="M336.69026,725.2865c.68208,7.86079-1.29627,14.98382-6.24987,19.95252,4.9536-4.9687,6.932-12.09173,6.255-19.95252a28.70256,28.70256,0,0,0,9.72867-1.143h0A28.74146,28.74146,0,0,1,336.69026,725.2865Z" transform="translate(-33.09252 -40.17734)" style="fill:#518fcc"/><path d="M334.28662,624.14318a20.91954,20.91954,0,0,0-3.58126,1.42511,20.4702,20.4702,0,0,0-2.58435,1.61092c-6.94232,5.08154-9.958,14.04278-9.21693,24.23733a41.19981,41.19981,0,0,0-4.37016-.78271l-.01019-.002v.00109c-8.4648-1.07716-16.19055.81292-21.465,6.10155-4.95979,4.97089-6.937,12.09392-6.255,19.95162-7.37161-.35833-14.01639,1.6586-18.71212,6.36961-4.05842,4.07061-6.09463,9.59564-6.33831,15.77563-10.095-2.39254-19.55052-.8071-25.699,5.3536-4.06207,4.08062-6.09954,9.61693-6.33814,15.81094-7.33193-1.57344-14.31266-.62839-19.74542,3.34977-6.37689,4.66734-9.43622,12.60838-9.32867,21.76654-9.59765-3.91211-19.18018-3.80255-26.1953,1.33485-5.5445,4.05842-8.57453,10.59855-9.208,18.25443-6.97672-1.28826-13.58291-.25587-18.78018,3.54978-5.46625,4.00237-8.48207,10.42494-9.17417,17.94469,10.0799,2.61274,20.669,9.95907,28.73906,20.97982.4091.56033.72775,1.143,1.11556,1.70938.002-.0253-.0071-.05387-.00508-.07917.29444.42839.52064.871.804,1.30228.8253,1.265,1.63931,2.52666,2.35487,3.81274.35123.63039.64058,1.26588.96743,1.89919.62857,1.22839,1.269,2.4515,1.79782,3.6868.3898.90046.68407,1.79782,1.02,2.6981.36343.97761.77471,1.95414,1.07717,2.92866a51.57763,51.57763,0,0,1,1.42711,5.64186,41.65885,41.65885,0,0,1,.68008,11.572c7.86315,2.0424,15.41421,1.20073,21.21148-3.04222,5.54432-4.05842,8.56926-10.60056,9.20274-18.25443,6.97671,1.28826,13.58292.25386,18.78-3.54869,6.378-4.66734,9.43732-12.60838,9.32977-21.76763,9.59764,3.91229,19.18,3.80255,26.19529-1.33485,6.66534-4.87844,9.73377-13.32394,9.31957-23.00894,10.61584,2.891,20.67136,1.4273,27.10194-5.02057,4.05824-4.07061,6.09445-9.59473,6.33813-15.77454a35.39117,35.39117,0,0,0,12.23586.85678,26.63162,26.63162,0,0,0,3.71939-.70446,23.00224,23.00224,0,0,0,4.55469-1.73685,20.53492,20.53492,0,0,0,5.18908-3.77216c4.9536-4.9687,6.932-12.09173,6.24987-19.95252a28.74146,28.74146,0,0,0,9.73377-1.143V623.52989A26.19833,26.19833,0,0,0,334.28662,624.14318Z" transform="translate(-33.09252 -40.17734)" style="fill:#518fcc"/><path d="M1228.11461,768.25124c-5.19418-3.80565-11.80438-4.838-18.78109-3.54978-.62839-7.65588-3.65824-14.196-9.20292-18.25443-7.01529-5.1374-16.60275-5.247-26.20035-1.33485.10751-9.15816-2.952-17.0992-9.32471-21.76654-5.43676-3.97816-12.41748-4.92321-19.74415-3.34977-.23985-6.194-2.276-11.73032-6.34359-15.81094-6.14323-6.1607-15.60384-7.74614-25.69393-5.3536-.24859-6.18-2.27989-11.705-6.343-15.77563-4.69591-4.711-11.34069-6.72794-18.71231-6.36961.68212-7.8577-1.29517-14.98073-6.255-19.95162-5.27335-5.28863-12.99528-7.17871-21.46008-6.10155v-.00109l-.00709.002a41.09816,41.09816,0,0,0-4.37286.78271c.73591-10.19455-2.275-19.15579-9.21715-24.23733a20.65986,20.65986,0,0,0-5.3596-2.81492,25.89978,25.89978,0,0,0-12.94342-.8344V724.14455a28.73951,28.73951,0,0,0,9.72867,1.142c-.68225,7.86079,1.29627,14.98382,6.255,19.95252a20.42647,20.42647,0,0,0,5.18908,3.77216,22.92963,22.92963,0,0,0,4.55469,1.73685,26.35958,26.35958,0,0,0,3.71921.70446,35.36631,35.36631,0,0,0,12.231-.85678c.24349,6.17981,2.27989,11.70393,6.34322,15.77454,6.42549,6.44787,16.48118,7.91157,27.10089,5.02057-.41806,9.685,2.65037,18.1305,9.31535,23.00894,7.02039,5.1374,16.60292,5.24714,26.20075,1.33485-.10792,9.15925,2.95163,17.10029,9.3243,21.76763,5.19728,3.80255,11.80857,4.837,18.78019,3.54869.63348,7.65387,3.66351,14.196,9.20783,18.25443,5.79728,4.243,13.34651,5.08462,21.20625,3.04222-.04354-.47807-.02643-.98271-.05373-1.46879-.01419-.31884-.02347-.63967-.03348-.96233-.02639-1.08117-.01019-2.17635.05368-3.29191.01929-.32393.04059-.64677.06811-.97252q.1386-1.70854.41615-3.45332c.05169-.31665.10446-.63149.16142-.94905q.3243-1.78935.79382-3.60255c.07515-.29845.15323-.596.23639-.89536q.51483-1.8606,1.18567-3.73449c.0975-.27316.1929-.54522.2955-.81929q.71847-1.92312,1.59964-3.842c.10991-.24168.21728-.48317.33193-.72484.6162-1.30428,1.29336-2.59855,2.01911-3.88973.12394-.22329.24586-.44658.37453-.669q1.12219-1.93977,2.41492-3.84c.09449-.14013.17052-.28426.265-.42438,0,.01019-.002.02129-.002.03057.37962-.55232.71865-1.11574,1.11756-1.66279,8.06793-11.01984,18.65625-18.366,28.73615-20.97891C1236.5987,778.67618,1233.58286,772.2547,1228.11461,768.25124Z" transform="translate(-33.09252 -40.17734)" style="fill:#518fcc"/><path d="M336.69026,725.2865a28.74146,28.74146,0,0,0,9.73377-1.143V623.52989a26.19833,26.19833,0,0,0-12.13741.61329,20.91954,20.91954,0,0,0-3.58126,1.42511,20.4702,20.4702,0,0,0-2.58435,1.61092c-6.94232,5.08154-9.958,14.04278-9.21693,24.23733a41.19981,41.19981,0,0,0-4.37016-.78271l-.01019-.002v.00109c-4.21366,17.39856-7.56034,35.33925-10.11321,50.35838-2.89918,17.08809-3.28389,34.93834.06788,51.867.08736-.75523.23351-1.48608.263-2.26461a32.89491,32.89491,0,0,0,15.95525.15432,23.00224,23.00224,0,0,0,4.55469-1.73685,20.53492,20.53492,0,0,0,5.18908-3.77216C335.394,740.27032,337.37234,733.14729,336.69026,725.2865Z" transform="translate(-33.09252 -40.17734)" style="fill:#447eb5"/><path d="M103.96921,773.54078A76.40231,76.40231,0,0,0,90.90986,767.094a83.24517,83.24517,0,0,0-25.5538-5.50683,83.2523,83.2523,0,0,1,25.5518,5.50683A76.31441,76.31441,0,0,1,103.96921,773.54078Z" transform="translate(-33.09252 -40.17734)" style="fill:#d9cde5"/><path d="M133.74066,940.066c-1.33485-.71047-2.6728-1.418-4.034-2.20164C131.06786,938.648,132.40581,939.35441,133.74066,940.066Z" transform="translate(-33.09252 -40.17734)" style="fill:#d9cde5"/><path d="M126.76686,936.11637c-.97233-.57962-1.93668-1.13994-2.9132-1.73885C124.83219,934.97643,125.79453,935.53675,126.76686,936.11637Z" transform="translate(-33.09252 -40.17734)" style="fill:#d9cde5"/><path d="M174.07809,822.20507c.36543.97652.77253,1.95505,1.07717,2.92866C174.8528,824.15921,174.44152,823.18268,174.07809,822.20507Z" transform="translate(-33.09252 -40.17734)" style="fill:#d9cde5"/><path d="M126.0553,927.36222c5.74341-1.069,11.83295-1.04258,17.0557-3.66151,10.42076-5.22457,13.40711-18.74561,12.94433-30.39166-.463-11.64824-3.06861-23.72559.90155-34.68247,2.60657-7.19091,7.83331-13.16071,10.7374-20.23678a34.06912,34.06912,0,0,0,1.99255-18.16708c-.48718-3.08281-2.80165-7.60911-2.54778-11.33759-.38781-.56634-.70646-1.149-1.11556-1.70938-8.07007-11.02075-18.65916-18.36708-28.73906-20.97982-.51374-.133-1.02239-.22548-1.53394-.335a20.92159,20.92159,0,0,1-13.71485,6.89955c-9.11448.70446-17.83-3.51429-25.77618-8.0284s-15.96016-9.54577-25.021-10.73449a31.28633,31.28633,0,0,0-34.96473,35.922,43.69187,43.69187,0,0,1,.61839,6.69755c-1.26388.19291-2.53777.32685-3.79964.55523v.0031a147.83311,147.83311,0,0,1,75.59461,6.3869c.44368,1.50337.97962,3.01274,1.56943,4.5263C86.85271,831.8149,52.5111,840.8544,36.488,862.68482c6.00747,11.81457,11.69191,25.30612,27.68155,41.18111,32.499-7.99473,53.209-31.28192,63.67341-51.01734a55.86254,55.86254,0,0,0,6.46006,4.81566A147.71579,147.71579,0,0,1,95.64544,918.3402c7.22749,2.95177,15.19074,7.945,23.14089,12.89974-.39182-.24477-.78163-.48426-1.17344-.72794A24.31563,24.31563,0,0,1,126.0553,927.36222Z" transform="translate(-33.09252 -40.17734)" style="fill:#d9cde5"/><path d="M167.938,810.10824c.8253,1.26279,1.63641,2.52976,2.35487,3.81274C169.57727,812.6349,168.76326,811.37321,167.938,810.10824Z" transform="translate(-33.09252 -40.17734)" style="fill:#d9cde5"/><path d="M171.26026,815.82017c.63039,1.22729,1.26679,2.4535,1.79782,3.6868C172.52923,818.27167,171.88883,817.04856,171.26026,815.82017Z" transform="translate(-33.09252 -40.17734)" style="fill:#d9cde5"/><path d="M140.97215,943.54877l.00291-.002c-1.80783-.73685-3.66133-1.60491-5.54941-2.56615C137.31373,941.94186,139.16523,942.81083,140.97215,943.54877Z" transform="translate(-33.09252 -40.17734)" style="fill:#d9cde5"/><path d="M130.21618,785.17973a23.90135,23.90135,0,0,0-9.67062,1.57653,80.31608,80.31608,0,0,0-13.69774-11.5274,80.27775,80.27775,0,0,1,13.69774,11.5294A23.92073,23.92073,0,0,1,130.21618,785.17973Z" transform="translate(-33.09252 -40.17734)" style="fill:#d9cde5"/><path d="M170.31012,901.69359q-.9576,3.28745-2.07989,6.39819,1.12056-3.1122,2.07989-6.396a79.04121,79.04121,0,0,0,.01929-43.38293,23.9193,23.9193,0,0,0,6.41639-12.511,23.89726,23.89726,0,0,1-6.41839,12.509A79.02179,79.02179,0,0,1,170.31012,901.69359Z" transform="translate(-33.09252 -40.17734)" style="fill:#d9cde5"/><path d="M176.58237,830.77559a51.57763,51.57763,0,0,0-1.42711-5.64186c-.30464-.97361-.71174-1.95214-1.07717-2.92866-.33594-.90028-.63021-1.79764-1.02-2.6981-.531-1.2333-1.16743-2.45951-1.79782-3.6868-.32685-.63331-.6162-1.2688-.96743-1.89919-.71846-1.283-1.52957-2.54995-2.35487-3.81274-.28335-.4313-.50955-.87389-.804-1.30228-.002.0253.00708.05387.00508.07917-.25387,3.72848,2.0606,8.25478,2.54778,11.33759a34.06912,34.06912,0,0,1-1.99255,18.16708c-2.90409,7.07607-8.13083,13.04587-10.7374,20.23678-3.97016,10.95688-1.36452,23.03423-.90155,34.68247.46278,11.64605-2.52357,25.16709-12.94433,30.39166-5.22275,2.61893-11.31229,2.59254-17.0557,3.66151a24.31563,24.31563,0,0,0-8.44241,3.14978c.39181.24368.78162.48317,1.17344.72794,1.69117,1.05459,3.38343,2.10719,5.06733,3.13758.97652.59891,1.94087,1.15923,2.9132,1.73885.97871.58563,1.96833,1.18963,2.93976,1.748,1.36124.78362,2.69919,1.49117,4.034,2.20164.56033.29754,1.13285.63348,1.685.91465,1.88808.96124,3.74158,1.8293,5.54941,2.56615v.00109c12.576-8.17853,20.5729-18.93559,25.92961-32.16017.43329-1.0657.89626-2.10319,1.29407-3.20256.0122-.03039.01929-.063.03149-.09335q1.12056-3.11383,2.07989-6.39819a79.02179,79.02179,0,0,0,.01729-43.38275,23.89726,23.89726,0,0,0,6.41839-12.509,32.7022,32.7022,0,0,0,.51665-3.45423A41.65885,41.65885,0,0,0,176.58237,830.77559Z" transform="translate(-33.09252 -40.17734)" style="fill:#c1b1cd"/><path d="M36.27377,809.91952a31.28633,31.28633,0,0,1,34.96473-35.922c9.0608,1.18872,17.07482,6.22039,25.021,10.73449s16.6617,8.73286,25.77618,8.0284a20.92159,20.92159,0,0,0,13.71485-6.89955h.002a31.27348,31.27348,0,0,0-5.53631-.68117,23.92073,23.92073,0,0,0-9.67062,1.57853,80.27775,80.27775,0,0,0-13.69774-11.5294c-.92774-.61711-1.92865-1.11156-2.87861-1.68808A76.31441,76.31441,0,0,0,90.90786,767.094a83.2523,83.2523,0,0,0-25.5518-5.50683,63.77745,63.77745,0,0,0-19.54341,2.24932c-1.98746.543-3.98218,1.16324-5.99511,1.91247-3.52648,13.8204-3.0808,33.60749-6.06206,48.24318-.21729,1.06569-.4071,2.17416-.663,3.18016,1.26187-.22838,2.53576-.36232,3.79964-.55523A43.69187,43.69187,0,0,0,36.27377,809.91952Z" transform="translate(-33.09252 -40.17734)" style="fill:#c1b1cd"/><path d="M1069.83093,750.59371c.0293.77853.17565,1.50938.26278,2.26461,3.352-16.92868,2.97216-34.77893.06806-51.867-2.55287-15.01913-5.89463-32.95982-10.10829-50.35838v-.00109l-.00709.002a41.09816,41.09816,0,0,0-4.37286.78271c.73591-10.19455-2.275-19.15579-9.21715-24.23733a20.65986,20.65986,0,0,0-5.3596-2.81492,25.89978,25.89978,0,0,0-12.94342-.8344V724.14455a28.73951,28.73951,0,0,0,9.72867,1.142c-.68225,7.86079,1.29627,14.98382,6.255,19.95252a20.42647,20.42647,0,0,0,5.18908,3.77216,22.92963,22.92963,0,0,0,4.55469,1.73685A32.87424,32.87424,0,0,0,1069.83093,750.59371Z" transform="translate(-33.09252 -40.17734)" style="fill:#447eb5"/><path d="M704.5909,1174.87639c-37.96819-1.818-76.34785-4.10209-114.41886-8.18472v50.13527a36.9076,36.9076,0,0,0,37.33307,36.90358l400.64519-4.48371v9.487l-400.53873,4.48263-.55014.002a46.392,46.392,0,0,1-46.37438-46.39149v-51.23773c-51.08741-5.90373-101.48543-15.31448-149.47274-31.46354a36.39266,36.39266,0,0,0-2.41386,12.96052,46.12493,46.12493,0,0,1-45.22934,46.37639l-37.14708.92994V1263.316a48.42131,48.42131,0,0,0,48.42061,48.42062H979.73257a48.42123,48.42123,0,0,0,48.42079-48.42062V1166.0247C922.25517,1181.76266,811.81775,1180.01361,704.5909,1174.87639Z" transform="translate(-33.09252 -40.17734)" style="fill:#d9c8de"/><path d="M419.31546,1147.08838a45.85407,45.85407,0,0,1,2.95178-16.071,464.63456,464.63456,0,0,1-67.6048-30.05263c-2.77216-1.51956-5.50992-3.09809-8.23841-4.68371v88.62429l36.90852-.92357A36.69293,36.69293,0,0,0,419.31546,1147.08838Z" transform="translate(-33.09252 -40.17734)" style="fill:#d9c8de"/><path d="M350.33414,335.31086a46.24332,46.24332,0,0,1,2.428-4.82876A48.66356,48.66356,0,0,0,350.33414,335.31086Z" transform="translate(-33.09252 -40.17734)" style="fill:#d9c8de"/><path d="M430.21865,324.69192l.76415-.004a50.54323,50.54323,0,0,1,39.83207,19.33232c79.06832-5.45406,159.45421-3.566,238.1269.20309,62.38207,2.98727,125.86563,7.24059,187.26424,18.69793a50.5535,50.5535,0,0,1,49.13235-38.23334l.76433.004,72.62154,1.06588a50.821,50.821,0,0,1,2.92958,4.46133,48.36573,48.36573,0,0,0-41.92124-24.26372H394.84464a48.36214,48.36214,0,0,0-41.914,24.25262,51.29143,51.29143,0,0,1,2.90119-4.42494Z" transform="translate(-33.09252 -40.17734)" style="fill:#d9c8de"/><path d="M430.35969,334.178l-80.04594,1.17343a48.25244,48.25244,0,0,0-3.88972,19.02677v5.3667a1006.765,1006.765,0,0,1,112.24543-14.87608A40.67447,40.67447,0,0,0,430.35969,334.178Z" transform="translate(-33.09252 -40.17734)" style="fill:#d9c8de"/><path d="M945.96165,334.178l-.61929-.0051a41.107,41.107,0,0,0-39.82588,30.56728c42.30887,8.4415,83.553,20.43277,122.63688,38.0852V354.37821a48.13115,48.13115,0,0,0-6.36561-23.93779,45.85541,45.85541,0,0,1,2.46082,4.88554Z" transform="translate(-33.09252 -40.17734)" style="fill:#d9c8de"/><path d="M428.80045,1147.08619a36.39266,36.39266,0,0,1,2.41386-12.96052,37.04971,37.04971,0,0,1,34.01257-23.94088l78.06943-1.0131a36.276,36.276,0,0,1,26.40965,10.63713,36.64889,36.64889,0,0,1,10.98109,26.26645v70.75167a46.392,46.392,0,0,0,46.37438,46.39149l.55014-.002,400.53873-4.48263v-9.487l-400.64519,4.48371a36.9076,36.9076,0,0,1-37.33307-36.90358v-70.75167a46.39453,46.39453,0,0,0-46.9975-46.38967l-78.06431,1.0142a46.58114,46.58114,0,0,0-42.843,30.31759,45.85407,45.85407,0,0,0-2.95178,16.071,36.69293,36.69293,0,0,1-35.98291,36.89339l-36.90852.92357v9.48718l37.14708-.92994A46.12493,46.12493,0,0,0,428.80045,1147.08619Z" transform="translate(-33.09252 -40.17734)" style="fill:#f3e9f3"/><path d="M458.66946,344.86883A41.78342,41.78342,0,0,1,471.60869,368.36a50.7741,50.7741,0,0,0,38.06991,40.23006C431.37589,448.11042,377.05318,534.263,377.05318,634.24619c0,85.54567,39.75618,160.98906,100.27764,205.75143H734.65171a240.21175,240.21175,0,0,0,56.42262-59.40916H480.29477a33.80082,33.80082,0,0,1-33.80039-33.8024V487.65223a33.80082,33.80082,0,0,1,33.80039-33.8024h283.227a229.88218,229.88218,0,0,0-58.59987-43.97475l149.81579-.13394h.09736a50.71193,50.71193,0,0,0,49.92617-41.67848c.20509-1.12775.465-2.23221.75523-3.32247a41.107,41.107,0,0,1,39.82588-30.56728l.61929.0051,78.28692,1.148a45.85541,45.85541,0,0,0-2.46082-4.88554c-.04368-.07406-.08935-.14613-.13394-.22129a50.821,50.821,0,0,0-2.92958-4.46133l-72.62154-1.06588-.76433-.004A50.5535,50.5535,0,0,0,896.206,362.92126c-.28717,1.13685-.57252,2.2768-.78363,3.44623a41.21857,41.21857,0,0,1-40.5873,33.88866H854.758l-170.57036.15232a212.69543,212.69543,0,0,0-156.7774.141l-6.119.00619a41.35754,41.35754,0,0,1-40.39239-34.1882,50.76989,50.76989,0,0,0-49.916-41.67957l-.76415.004-74.38678,1.09117a51.29143,51.29143,0,0,0-2.90119,4.42494c-.05587.09227-.11465.18162-.16852.27407a46.24332,46.24332,0,0,0-2.428,4.82876.21778.21778,0,0,1-.02039.04058h0l80.04594-1.17343A40.67447,40.67447,0,0,1,458.66946,344.86883Z" transform="translate(-33.09252 -40.17734)" style="fill:#f3e9f3"/><path d="M446.49438,487.65223V746.78606a33.80082,33.80082,0,0,0,33.80039,33.8024H894.27734a33.80428,33.80428,0,0,0,33.80459-33.8024V487.65223a33.80428,33.80428,0,0,0-33.80459-33.8024H480.29477A33.80082,33.80082,0,0,0,446.49438,487.65223Zm437.484-7.35833A17.02529,17.02529,0,0,1,901.0055,497.321V737.11836a17.02494,17.02494,0,0,1-17.02717,17.026H490.594a17.02817,17.02817,0,0,1-17.02713-17.026V497.321A17.02852,17.02852,0,0,1,490.594,480.2939Z" transform="translate(-33.09252 -40.17734)" style="fill:#518fcc"/><path d="M473.56683,497.321V737.11836a17.02817,17.02817,0,0,0,17.02713,17.026H883.97833a17.02494,17.02494,0,0,0,17.02717-17.026V497.321a17.02529,17.02529,0,0,0-17.02717-17.02713H490.594A17.02852,17.02852,0,0,0,473.56683,497.321Zm292.26635,9.33577c19.45825,0,35.23261,33.68866,35.23261,75.24448,0,41.55654-15.77436,75.24229-35.23261,75.24229-19.45316,0-35.2277-33.68575-35.2277-75.24229C730.60548,540.34546,746.38,506.6568,765.83318,506.6568Zm-157.09406,0c19.45716,0,35.22751,33.68866,35.22751,75.24448,0,41.55654-15.77035,75.24229-35.22751,75.24229-19.45825,0-35.2277-33.68575-35.2277-75.24229C573.51142,540.34546,589.28087,506.6568,608.73912,506.6568Zm-76.54985,174.58a4.74332,4.74332,0,0,1,6.64678.90028l19.23189,25.26863a12.9108,12.9108,0,0,0,13.90356.70355l30.62621-17.39765a22.48229,22.48229,0,0,1,23.15835.56033L651.4378,707.554a13.00665,13.00665,0,0,0,16.16416-1.78963l12.7638-12.7638a22.48994,22.48994,0,0,1,30.12469-1.52266l19.33541,15.77254a13.01461,13.01461,0,0,0,16.69629-.206l10.2839-8.82221a22.49945,22.49945,0,0,1,29.338.04168l.002.004,7.89955,6.81329a13.01142,13.01142,0,0,0,16.19674.63549l26.46026-19.431a4.74187,4.74187,0,1,1,5.61238,7.64478l-26.46332,19.43387a22.49669,22.49669,0,0,1-28.00315-1.10137l-7.89646-6.81329.002.00291a13.01114,13.01114,0,0,0-16.97327-.03039l-10.2839,8.82221-.00491.004a22.49651,22.49651,0,0,1-28.86009.35123l-19.33341-15.76944a13.00727,13.00727,0,0,0-17.427.877L674.3057,712.473a22.49205,22.49205,0,0,1-27.94944,3.091l-25.67645-16.279a13.00361,13.00361,0,0,0-13.39529-.32794l-30.63133,17.40075a22.49481,22.49481,0,0,1-24.758-1.677l-.89646-.89828-19.71084-25.901h.002A4.74048,4.74048,0,0,1,532.18927,681.23677Z" transform="translate(-33.09252 -40.17734)" style="fill:#2d4d83"/><path d="M608.73912,657.14357c19.45716,0,35.22751-33.68575,35.22751-75.24229,0-41.55582-15.77035-75.24448-35.22751-75.24448-19.45825,0-35.2277,33.68866-35.2277,75.24448C573.51142,623.45782,589.28087,657.14357,608.73912,657.14357Z" transform="translate(-33.09252 -40.17734)" style="fill:#6fcacd"/><path d="M765.83318,657.14357c19.45825,0,35.23261-33.68575,35.23261-75.24229,0-41.55582-15.77436-75.24448-35.23261-75.24448-19.45316,0-35.2277,33.68866-35.2277,75.24448C730.60548,623.45782,746.38,657.14357,765.83318,657.14357Z" transform="translate(-33.09252 -40.17734)" style="fill:#6fcacd"/><path d="M941.44554,1054.23a14.42947,14.42947,0,0,1-14.43059,14.43041H448.30748A14.4295,14.4295,0,0,1,433.87689,1054.23V854.42512a14.27946,14.27946,0,0,1,2.05351-7.30975,14.8244,14.8244,0,0,0-10.30611,14.08646V1067.213a14.875,14.875,0,0,0,14.873,14.87608H934.075A14.87615,14.87615,0,0,0,948.9531,1067.213V861.20183a14.85421,14.85421,0,0,0-9.40983-13.80729,14.25714,14.25714,0,0,1,1.90227,7.03058Z" transform="translate(-33.09252 -40.17734)" style="fill:#c1b1cd"/><path d="M448.30748,839.99762a14.5809,14.5809,0,0,0-14.43059,14.4275V1054.23a14.4295,14.4295,0,0,0,14.43059,14.43041H927.015A14.42947,14.42947,0,0,0,941.44554,1054.23V854.42512a14.60817,14.60817,0,0,0-14.43059-14.4275H448.30748Zm2.16706,223.25246a9.83978,9.83978,0,1,1,9.84151-9.83823A9.83705,9.83705,0,0,1,450.47454,1063.25008Zm0-196.76981a9.83978,9.83978,0,1,1,9.84151-9.84132A9.83841,9.83841,0,0,1,450.47454,866.48027Zm473.79792-19.67955a9.83978,9.83978,0,1,1-9.84041,9.83823A9.83864,9.83864,0,0,1,924.27246,846.80072Zm0,196.76981a9.83978,9.83978,0,1,1-9.84041,9.84132A9.83929,9.83929,0,0,1,924.27246,1043.57053ZM675.89624,888.74108a12.57222,12.57222,0,0,1,12.574-12.57381H891.48593a12.57536,12.57536,0,0,1,12.57395,12.57381v132.36355a12.57481,12.57481,0,0,1-12.57395,12.574H688.47025a12.57167,12.57167,0,0,1-12.574-12.574Zm-89.91856,26.07354h13.61239V873.06918h17.10429v41.74544h13.6113v14.455h-13.6113v106.31621H599.59007V929.2696H585.97768Zm-56.98893,79.9342H542.6V873.06918h17.10411V994.74882h13.61239v14.45389H559.70413v26.3831H542.6v-26.3831H528.98875ZM486.31643,873.06918h17.10921v9.16415h13.60729v14.45389H503.42564v138.89859H486.31643V896.68722H472.71026V882.23333h13.60617Z" transform="translate(-33.09252 -40.17734)" style="fill:#d9cde5"/><rect x="453.22392" y="856.50988" width="17.10921" height="138.89859" style="fill:#518fcc"/><rect x="453.22392" y="832.89184" width="17.10921" height="9.16416" style="fill:#518fcc"/><rect x="509.5075" y="969.02537" width="17.10411" height="26.3831" style="fill:#518fcc"/><rect x="509.5075" y="832.89184" width="17.10411" height="121.67965" style="fill:#518fcc"/><rect x="566.49755" y="832.89184" width="17.10429" height="41.74545" style="fill:#518fcc"/><rect x="566.49755" y="889.09226" width="17.10429" height="106.31621" style="fill:#518fcc"/><polygon points="439.618 856.51 453.224 856.51 470.333 856.51 483.94 856.51 483.94 842.056 470.333 842.056 453.224 842.056 439.618 842.056 439.618 856.51" style="fill:#ef4262"/><polygon points="526.612 969.025 540.224 969.025 540.224 954.571 526.612 954.571 509.508 954.571 495.896 954.571 495.896 969.025 509.508 969.025 526.612 969.025" style="fill:#ef4262"/><polygon points="583.602 889.092 597.213 889.092 597.213 874.637 583.602 874.637 566.498 874.637 552.885 874.637 552.885 889.092 566.498 889.092 583.602 889.092" style="fill:#ef4262"/><path d="M688.47025,1033.67862H891.48593a12.57481,12.57481,0,0,0,12.57395-12.574V888.74108a12.57536,12.57536,0,0,0-12.57395-12.57381H688.47025a12.57222,12.57222,0,0,0-12.574,12.57381v132.36355A12.57167,12.57167,0,0,0,688.47025,1033.67862ZM683.25278,892.025a8.65474,8.65474,0,0,1,8.65658-8.65169H888.04567a8.65081,8.65081,0,0,1,8.65279,8.65169v125.79594a8.65341,8.65341,0,0,1-8.65279,8.65461H691.90936a8.65734,8.65734,0,0,1-8.65658-8.65461Z" transform="translate(-33.09252 -40.17734)" style="fill:#ef4262"/><path d="M691.90936,1026.47552H888.04567a8.65341,8.65341,0,0,0,8.65279-8.65461V892.025a8.65081,8.65081,0,0,0-8.65279-8.65169H691.90936a8.65474,8.65474,0,0,0-8.65658,8.65169v125.79594A8.65734,8.65734,0,0,0,691.90936,1026.47552Zm3.85332-78.102H708.568l12.15051-42.52416a2.667,2.667,0,0,1,5.18818.25387l14.78582,81.02647,5.3596-35.07847a2.66941,2.66941,0,0,1,2.5256-2.2617l14.87806-.62111,8.738-40.32852a2.667,2.667,0,0,1,5.24893.2031l10.01184,73.03355L795.49311,946.92a2.66762,2.66762,0,0,1,2.4229-2.06679l8.46279-.56542,5.30793-33.18729a2.66689,2.66689,0,0,1,5.27844.07807l4.62784,35.66518,11.65315-.58362a2.67145,2.67145,0,0,1,2.75506,2.18144l2.85023,15.481,10.30629-36.88521a2.66631,2.66631,0,0,1,5.12011-.05678l6.48135,21.39293,23.43333.00109a2.66716,2.66716,0,1,1,0,5.33431H858.78686a2.665,2.665,0,0,1-2.553-1.89318l-4.4044-14.525-10.94159,39.17038a2.66678,2.66678,0,0,1-5.19127-.23458l-4.51793-24.5214-11.78036.58981a2.66525,2.66525,0,0,1-2.77726-2.32066l-2.57616-19.83369-2.73158,17.089a2.66145,2.66145,0,0,1-2.45769,2.24022l-8.60583.57361-10.84933,47.46447a2.66667,2.66667,0,0,1-5.24186-.23148l-9.948-72.5493-5.9758,27.586a2.66728,2.66728,0,0,1-2.49606,2.10028l-14.74727.614-7.42731,48.64209a2.66751,2.66751,0,0,1-5.26115.07607l-15.59674-85.44813-9.56124,33.47665a2.665,2.665,0,0,1-2.56215,1.93485H695.76268a2.6677,2.6677,0,1,1,0-5.3354Z" transform="translate(-33.09252 -40.17734)" style="fill:#f3e9f3"/><path d="M695.76268,953.70893H710.5829a2.665,2.665,0,0,0,2.56215-1.93485l9.56124-33.47665,15.59674,85.44813a2.66751,2.66751,0,0,0,5.26115-.07607l7.42731-48.64209,14.74727-.614a2.66728,2.66728,0,0,0,2.49606-2.10028l5.9758-27.586,9.948,72.5493a2.66667,2.66667,0,0,0,5.24186.23148l10.84933-47.46447,8.60583-.57361a2.66145,2.66145,0,0,0,2.45769-2.24022l2.73158-17.089,2.57616,19.83369a2.66525,2.66525,0,0,0,2.77726,2.32066l11.78036-.58981,4.51793,24.5214a2.66678,2.66678,0,0,0,5.19127.23458l10.94159-39.17038,4.4044,14.525a2.665,2.665,0,0,0,2.553,1.89318h25.40567a2.66716,2.66716,0,1,0,0-5.33431l-23.43333-.00109-6.48135-21.39293a2.66631,2.66631,0,0,0-5.12011.05678l-10.30629,36.88521-2.85023-15.481a2.67145,2.67145,0,0,0-2.75506-2.18144l-11.65315.58362-4.62784-35.66518a2.66689,2.66689,0,0,0-5.27844-.07807l-5.30793,33.18729-8.46279.56542a2.66762,2.66762,0,0,0-2.4229,2.06679l-8.03862,35.15654L777.44265,909.043a2.667,2.667,0,0,0-5.24893-.2031l-8.738,40.32852-14.87806.62111a2.66941,2.66941,0,0,0-2.5256,2.2617l-5.3596,35.07847-14.78582-81.02647a2.667,2.667,0,0,0-5.18818-.25387L708.568,948.37353H695.76268a2.6677,2.6677,0,1,0,0,5.3354Z" transform="translate(-33.09252 -40.17734)" style="fill:#ef4262"/><path d="M450.47454,846.80072a9.83978,9.83978,0,1,0,9.84151,9.83823A9.83775,9.83775,0,0,0,450.47454,846.80072Z" transform="translate(-33.09252 -40.17734)" style="fill:#fff"/><path d="M450.47454,1043.57053a9.83978,9.83978,0,1,0,9.84151,9.84132A9.83841,9.83841,0,0,0,450.47454,1043.57053Z" transform="translate(-33.09252 -40.17734)" style="fill:#fff"/><path d="M924.27246,866.48027a9.83978,9.83978,0,1,0-9.84041-9.84132A9.83929,9.83929,0,0,0,924.27246,866.48027Z" transform="translate(-33.09252 -40.17734)" style="fill:#fff"/><path d="M924.27246,1063.25008a9.83978,9.83978,0,1,0-9.84041-9.83823A9.83794,9.83794,0,0,0,924.27246,1063.25008Z" transform="translate(-33.09252 -40.17734)" style="fill:#fff"/></svg>