<?xml version="1.0" standalone="no"?>
<!DOCTYPE svg PUBLIC "-//W3C//DTD SVG 20010904//EN"
 "http://www.w3.org/TR/2001/REC-SVG-20010904/DTD/svg10.dtd">
<svg version="1.0" xmlns="http://www.w3.org/2000/svg"
 width="1000.000000pt" height="1000.000000pt" viewBox="0 0 1000.000000 1000.000000"
 preserveAspectRatio="xMidYMid meet">
<metadata>
Created by potrace 1.14, written by Peter Selinger 2001-2017
</metadata>
<g transform="translate(0.000000,1000.000000) scale(0.100000,-0.100000)"
fill="#000000" stroke="none">
<path d="M4657 9994 c-1 -1 -63 -5 -137 -8 -176 -8 -320 -19 -394 -31 -11 -2
-46 -6 -76 -9 -30 -3 -64 -8 -75 -10 -11 -2 -42 -7 -70 -10 -61 -8 -76 -11
-175 -31 -14 -2 -36 -6 -50 -9 -14 -2 -86 -18 -160 -36 -74 -17 -143 -33 -152
-35 -118 -26 -530 -160 -663 -215 -230 -96 -301 -128 -426 -190 -121 -61 -178
-91 -284 -150 -58 -33 -181 -107 -237 -143 -32 -21 -61 -37 -64 -36 -7 1 -24
-21 -24 -32 0 -3 15 -6 33 -7 17 0 46 -4 62 -7 17 -4 46 -8 65 -10 19 -2 35
-4 35 -5 0 -3 40 -9 73 -12 18 -1 35 -6 38 -10 2 -4 -21 -26 -53 -50 -32 -24
-60 -45 -63 -48 -3 -3 -39 -32 -80 -65 -41 -33 -82 -67 -91 -75 -8 -8 -61 -56
-116 -107 -115 -105 -278 -272 -353 -359 -14 -16 -41 -47 -60 -69 -123 -142
-226 -279 -357 -475 -232 -347 -435 -759 -576 -1170 -42 -122 -129 -435 -144
-520 -2 -14 -9 -45 -14 -70 -6 -25 -13 -55 -15 -67 -2 -13 -6 -35 -9 -50 -13
-71 -45 -283 -45 -299 0 -13 5 -10 21 10 17 22 95 90 180 158 22 18 68 46 109
66 19 9 38 22 42 27 4 6 8 6 8 1 0 -5 6 -4 13 2 11 9 90 35 112 37 6 0 15 3
20 6 14 8 105 11 105 3 0 -3 -13 -23 -30 -44 -16 -21 -30 -42 -30 -47 0 -5 -9
-19 -20 -31 -12 -12 -18 -22 -16 -22 3 0 -8 -23 -25 -52 -42 -71 -139 -274
-139 -290 0 -8 -5 -19 -10 -24 -6 -6 -13 -19 -15 -30 -5 -21 -72 -220 -82
-244 -3 -8 -7 -26 -8 -40 -1 -14 -3 -25 -4 -25 -2 0 -4 -7 -6 -15 -46 -225
-56 -278 -61 -325 -15 -147 -19 -230 -19 -395 0 -174 7 -328 19 -400 5 -32 18
-119 22 -147 1 -12 10 -57 18 -100 9 -43 18 -87 20 -98 18 -90 121 -442 136
-460 4 -5 10 -23 14 -40 4 -16 13 -43 21 -60 7 -16 20 -51 30 -77 21 -61 35
-69 36 -21 0 21 2 45 4 53 1 8 8 44 15 80 76 425 298 837 600 1115 l32 30 -14
-30 c-9 -16 -13 -35 -11 -42 2 -6 0 -14 -6 -17 -6 -4 -7 -14 -4 -23 4 -11 3
-14 -5 -9 -8 5 -10 2 -6 -9 4 -8 1 -22 -6 -30 -7 -9 -10 -18 -7 -22 4 -3 1
-13 -6 -21 -9 -13 -9 -14 1 -8 6 4 12 2 12 -3 0 -6 -4 -11 -8 -11 -9 0 -11 -7
-15 -58 -1 -17 -5 -32 -8 -32 -3 0 -5 -14 -4 -30 1 -17 -2 -33 -8 -37 -5 -3
-3 -9 4 -14 11 -7 11 -9 1 -9 -7 0 -10 -4 -7 -10 3 -5 1 -10 -4 -10 -6 0 -11
-5 -11 -11 0 -5 6 -7 13 -3 9 5 9 4 0 -6 -6 -7 -9 -19 -6 -27 3 -8 0 -19 -8
-24 -12 -7 -12 -9 0 -9 11 0 11 -3 0 -17 -12 -14 -12 -16 0 -8 11 6 12 5 5 -6
-5 -8 -9 -21 -9 -29 0 -8 -4 -21 -9 -29 -6 -10 -5 -12 2 -7 7 4 12 2 12 -3 0
-6 -6 -11 -12 -11 -9 0 -8 -4 2 -10 10 -6 11 -10 3 -10 -7 0 -13 -5 -13 -11 0
-5 5 -7 11 -3 8 4 8 1 2 -12 -5 -11 -9 -36 -8 -56 0 -21 -4 -38 -10 -38 -6 0
-7 -3 0 -8 15 -10 19 -46 5 -37 -9 6 -9 2 -1 -13 14 -26 14 -35 1 -27 -7 4 -7
-2 0 -19 6 -17 6 -27 -1 -32 -7 -4 -6 -10 1 -19 8 -9 8 -15 0 -20 -6 -4 -7
-13 -1 -23 5 -9 7 -29 5 -44 -1 -15 2 -30 7 -33 5 -4 5 -13 -1 -25 -7 -13 -6
-20 3 -23 9 -4 9 -6 0 -6 -9 -1 -10 -8 -4 -24 5 -12 8 -37 6 -55 -1 -18 0 -32
4 -32 3 0 7 -17 8 -38 2 -41 10 -127 13 -127 4 0 11 -43 11 -72 1 -18 4 -33 8
-33 4 0 8 -16 9 -35 1 -20 5 -41 9 -48 6 -10 14 -50 16 -84 0 -7 5 -13 10 -13
5 0 7 -7 4 -15 -4 -8 -2 -17 3 -20 5 -3 7 -14 5 -25 -2 -12 0 -18 4 -15 5 2
11 -8 14 -23 3 -15 8 -38 12 -52 4 -14 7 -31 7 -37 1 -7 5 -13 9 -13 5 0 5 -7
2 -17 -4 -10 -2 -14 5 -9 6 4 10 -1 10 -11 0 -10 5 -31 12 -48 7 -16 12 -36
11 -42 -1 -7 3 -13 9 -13 5 0 10 -8 10 -18 0 -10 6 -27 14 -37 8 -11 12 -25 9
-32 -3 -7 0 -13 7 -13 6 0 8 -4 5 -10 -3 -5 -1 -10 4 -10 6 0 11 -6 11 -14 0
-8 10 -34 21 -58 12 -23 27 -54 33 -68 6 -14 13 -27 16 -30 12 -12 30 -51 30
-64 0 -8 7 -16 15 -20 8 -3 15 -14 15 -25 0 -11 4 -22 9 -26 6 -3 20 -26 32
-50 12 -25 27 -45 31 -45 5 0 6 -4 3 -10 -3 -5 -1 -10 4 -10 6 0 11 -7 11 -15
0 -8 5 -15 10 -15 6 0 10 -7 10 -15 0 -8 5 -15 10 -15 6 0 10 -7 10 -15 0 -9
7 -18 15 -21 8 -4 13 -10 10 -14 -3 -5 -1 -12 5 -15 6 -4 21 -23 34 -43 13
-21 34 -47 45 -59 12 -13 19 -23 15 -23 -4 0 2 -8 12 -17 11 -10 45 -50 76
-89 62 -78 255 -274 337 -343 30 -25 59 -50 65 -56 19 -18 199 -151 246 -181
25 -16 47 -31 50 -34 14 -15 193 -115 316 -177 295 -148 608 -267 899 -340 77
-19 159 -41 181 -48 23 -8 143 -35 265 -62 l224 -47 675 -2 c388 -2 703 1 740
6 59 9 130 20 230 35 19 3 42 8 50 10 8 2 29 7 45 9 17 3 82 19 145 36 63 17
122 33 130 35 114 29 419 134 535 185 22 9 60 25 85 35 25 10 70 29 100 42 30
14 75 34 100 45 67 30 334 162 340 168 3 3 18 12 34 20 17 8 80 48 140 87 61
40 114 73 118 73 4 0 8 5 8 11 0 5 4 8 9 5 5 -4 11 -2 13 2 1 4 68 55 148 112
80 58 150 109 156 115 6 5 25 21 43 35 18 14 38 30 44 35 7 6 41 35 77 65 115
98 234 213 414 400 167 174 400 477 573 746 68 107 203 340 203 352 0 3 -12
-6 -27 -21 -45 -42 -387 -227 -399 -214 -2 1 13 21 33 42 19 22 60 72 91 110
31 39 61 75 67 81 5 6 20 24 32 40 62 80 95 127 146 209 31 50 60 95 64 100
22 27 125 214 180 325 114 232 216 509 268 728 3 9 9 37 16 62 6 25 13 56 15
70 2 14 9 48 14 75 23 115 40 233 39 275 l-1 45 -17 -50 c-10 -27 -21 -59 -26
-70 -4 -11 -27 -68 -51 -126 -91 -228 -268 -460 -476 -626 -40 -32 -76 -62
-80 -68 -5 -7 -8 -7 -8 0 0 6 -3 6 -8 0 -10 -16 -136 -93 -212 -130 -60 -31
-83 -41 -165 -74 -49 -21 -172 -59 -212 -68 -50 -9 -53 -10 -55 -13 -2 -1 -14
-3 -28 -5 -14 -1 -41 -6 -60 -10 -62 -13 -112 -16 -260 -16 -162 0 -185 2
-325 26 -11 2 -48 10 -82 18 -35 9 -63 12 -63 9 0 -4 -4 -2 -8 3 -4 6 -41 21
-82 34 -115 37 -395 181 -430 221 -3 3 -23 19 -45 36 -176 130 -351 343 -455
554 -31 65 -76 182 -86 225 -2 6 -12 45 -23 87 -12 42 -23 94 -26 115 -4 21
-11 65 -17 98 -6 33 -11 83 -12 110 -1 28 -5 55 -7 60 -9 17 -2 195 11 290 43
313 173 665 363 980 69 115 146 228 159 233 4 2 8 8 8 13 0 6 13 24 29 41 28
30 34 32 118 36 48 2 159 5 245 6 87 0 158 4 158 8 0 4 8 4 17 1 23 -9 66 -8
81 1 7 4 12 4 12 -1 0 -4 11 -8 25 -8 14 0 25 4 25 8 0 5 5 5 10 2 6 -4 83 -8
173 -11 150 -3 322 -11 322 -15 0 0 17 -2 37 -4 20 -2 70 -9 110 -15 40 -7 80
-13 88 -14 9 -1 20 -4 25 -7 6 -3 33 -12 60 -19 28 -7 55 -16 60 -20 6 -4 28
-13 50 -20 132 -41 329 -160 416 -251 56 -58 109 -146 109 -181 0 -46 47 7
109 124 89 168 127 336 125 553 -5 399 -221 773 -564 975 -177 104 -461 219
-657 265 -91 22 -202 47 -218 51 -11 2 -43 8 -71 14 -51 11 -71 14 -134 24
-19 3 -46 8 -60 11 -13 2 -40 7 -60 9 -67 9 -137 17 -176 22 -91 9 -141 15
-174 19 -19 2 -46 4 -60 5 -17 0 -4 9 45 29 82 33 160 76 189 102 11 11 23 19
27 19 19 0 103 102 131 158 71 142 33 332 -104 524 -55 77 -136 167 -224 248
-90 84 -305 250 -323 250 -5 0 -11 4 -13 8 -4 10 -238 153 -238 146 0 -3 -12
3 -27 13 -66 44 -265 127 -453 189 -170 56 -172 56 -185 59 -6 2 -44 12 -85
23 -94 25 -240 57 -350 76 -198 35 -319 51 -465 62 -38 3 -81 7 -95 9 -47 8
-616 25 -623 19z m1468 -1729 c93 -8 145 -16 205 -32 30 -8 69 -18 85 -23 57
-15 128 -42 204 -77 42 -20 78 -37 81 -38 3 0 21 -11 40 -23 19 -12 39 -22 44
-22 10 0 -2 -15 -12 -15 -27 -1 -302 -150 -430 -232 l-83 -53 -102 29 c-101
29 -334 85 -392 94 -16 3 -70 13 -120 22 -49 9 -103 18 -120 20 -16 2 -68 8
-115 14 -122 16 -165 21 -255 27 -43 3 -81 7 -83 9 -13 12 235 155 336 194 26
10 56 21 67 26 11 4 25 9 30 11 6 1 42 12 80 23 79 22 100 26 205 41 120 16
194 18 335 5z"/>
</g>
</svg>
