<?xml version="1.0" standalone="no"?>
<!DOCTYPE svg PUBLIC "-//W3C//DTD SVG 20010904//EN"
 "http://www.w3.org/TR/2001/REC-SVG-20010904/DTD/svg10.dtd">
<svg version="1.0" xmlns="http://www.w3.org/2000/svg"
 width="200.000000pt" height="200.000000pt" viewBox="0 0 200.000000 200.000000"
 preserveAspectRatio="xMidYMid meet">
<metadata>
Created by potrace 1.14, written by Peter Selinger 2001-2017
</metadata>
<g transform="translate(0.000000,200.000000) scale(0.100000,-0.100000)"
fill="#000000" stroke="none">
<path d="M850 1988 c-36 -3 -78 -9 -95 -12 -16 -3 -43 -8 -58 -11 -105 -20
-397 -156 -351 -163 45 -7 46 -12 8 -43 -153 -119 -308 -373 -339 -555 -4 -21
-9 -52 -12 -67 l-4 -28 38 24 c21 14 48 28 60 32 21 6 21 4 -7 -52 -75 -146
-80 -310 -18 -513 l14 -45 13 50 c17 70 43 123 81 170 l32 40 -8 -65 c-16
-136 -4 -233 42 -342 77 -184 215 -302 439 -378 83 -28 90 -29 313 -30 219 -1
230 0 307 25 136 45 286 133 390 232 65 61 195 233 195 258 0 4 -16 -3 -35
-15 -19 -12 -35 -19 -35 -16 0 3 17 28 38 56 52 68 97 160 121 250 27 95 27
129 1 72 -108 -237 -431 -276 -581 -69 -79 108 -80 257 -4 406 49 98 54 101
202 97 92 -2 139 -8 168 -20 54 -23 105 -58 105 -73 0 -26 21 -12 36 23 34 80
19 179 -35 245 -40 49 -142 97 -241 115 -19 3 -42 7 -50 9 -8 2 -27 4 -42 4
-33 1 -37 17 -7 26 11 4 27 22 35 41 20 48 -3 100 -73 163 -136 123 -389 185
-643 159z m435 -357 c68 -19 70 -25 18 -57 -47 -29 -50 -30 -98 -17 -45 11
-139 26 -172 26 -20 0 -16 5 20 24 75 41 148 48 232 24z"/>
</g>
</svg>
