<?xml version="1.0" encoding="utf-8"?>
<!-- Generator: Adobe Illustrator 24.2.0, SVG Export Plug-In . SVG Version: 6.00 Build 0)  -->
<svg version="1.1" id="Layer_1" xmlns="http://www.w3.org/2000/svg" xmlns:xlink="http://www.w3.org/1999/xlink" x="0px" y="0px"
	 viewBox="0 0 283.5 283.5" style="enable-background:new 0 0 283.5 283.5;" xml:space="preserve">
<style type="text/css">
	.st0{fill:#008C6B;}
	.st1{opacity:0.2;fill:#101D10;enable-background:new    ;}
	.st2{opacity:0.4;fill:#25A249;enable-background:new    ;}
	.st3{fill:#7DCAA9;}
	.st4{opacity:0.3;fill:#18743A;enable-background:new    ;}
	.st5{opacity:0.6;fill:#5DC1A3;enable-background:new    ;}
	.st6{opacity:0.5;fill:url(#SVGID_1_);enable-background:new    ;}
	.st7{fill:#FDBB11;}
	.st8{opacity:0.5;fill:url(#SVGID_2_);enable-background:new    ;}
	.st9{opacity:0.3;fill:url(#SVGID_3_);enable-background:new    ;}
	.st10{opacity:0.1;fill:#EE4036;enable-background:new    ;}
	.st11{fill:#98D9F3;}
	.st12{opacity:0.3;fill:#6ABD45;enable-background:new    ;}
	.st13{opacity:0.2;fill:url(#SVGID_4_);enable-background:new    ;}
	.st14{opacity:0.5;fill:#5DC1A3;enable-background:new    ;}
	.st15{opacity:0.3;fill:#D9E9B5;enable-background:new    ;}
	.st16{fill:#00B9B0;}
	.st17{opacity:0.6;fill:#9FD39F;enable-background:new    ;}
	.st18{fill:#45BA84;}
</style>
<g>
	<path class="st0" d="M246.9,149.3c-0.9,2.7-1.9,5.3-3,7.8c-3.9,7.4-10.3,13.3-18,16.5c-17.9,7.6-38.4-0.3-46-17.5
		c-1-2.6-1.8-5.3-2.3-8.1c-0.2-1.1-0.3-2.1-0.5-3.2c0-0.7-0.1-1.3-0.1-2c0,0.1-0.1,0.2-0.1,0.2c-0.8-12.1,6.2-26.6,13.9-35.5
		c-4,0.9-31.8,2.5-31.8,2.5s-28.2,35.2-15.8,78.8c3.5,12.3,11.7,28.3,19.1,33.6c0.6,0,1.3,0,1.9,0h0.2c0.3,0,0.6,0,0.9,0h0.3
		c0.3,0,0.7,0,1,0h0.2c0.8,0,1.5,0,2.3-0.1c0.1,0,0.2,0,0.3,0c0.3,0,0.6,0,0.9-0.1c0.1,0,0.2,0,0.3,0c0.3,0,0.6,0,0.9-0.1
		c0.1,0,0.1,0,0.2,0c0.8-0.1,1.5-0.1,2.3-0.2c0.1,0,0.2,0,0.3,0c0.3,0,0.6-0.1,0.9-0.1c0.1,0,0.2,0,0.3,0c0.3,0,0.6-0.1,0.9-0.1
		c0.1,0,0.2,0,0.2,0c0.4-0.1,0.8-0.1,1.2-0.2l0,0c0.4-0.1,0.7-0.1,1.1-0.2c0.1,0,0.2,0,0.3-0.1c0.3,0,0.6-0.1,0.8-0.1
		c0.1,0,0.2,0,0.3-0.1c0.3-0.1,0.6-0.1,0.9-0.2c0.1,0,0.2,0,0.3-0.1c0.4-0.1,0.8-0.2,1.1-0.2l0,0c0.4-0.1,0.7-0.2,1.1-0.2
		c0.1,0,0.2,0,0.3-0.1c0.3-0.1,0.5-0.1,0.8-0.2c0.1,0,0.2-0.1,0.4-0.1c0.3-0.1,0.6-0.1,0.8-0.2c0.1,0,0.2-0.1,0.3-0.1
		c0.4-0.1,0.8-0.2,1.1-0.3l0,0c0.4-0.1,0.7-0.2,1.1-0.3c0.1,0,0.2-0.1,0.3-0.1c0.3-0.1,0.5-0.2,0.8-0.2c0.1,0,0.3-0.1,0.4-0.1
		c0.3-0.1,0.5-0.2,0.8-0.3c0.1,0,0.2-0.1,0.3-0.1c0.4-0.1,0.7-0.3,1.1-0.4l0,0c0.4-0.1,0.7-0.3,1.1-0.4c0.1,0,0.2-0.1,0.3-0.1
		c0.3-0.1,0.5-0.2,0.8-0.3c0.1,0,0.3-0.1,0.4-0.1c0.3-0.1,0.5-0.2,0.8-0.3c0.1,0,0.2-0.1,0.3-0.1c0.4-0.1,0.7-0.3,1.1-0.4
		c0.5-0.2,1-0.4,1.5-0.6c0.2-0.1,0.3-0.1,0.5-0.2c0.3-0.1,0.7-0.3,1-0.5c0.2-0.1,0.4-0.2,0.5-0.3c0.3-0.1,0.6-0.3,0.9-0.4
		c0.2-0.1,0.4-0.2,0.5-0.3c0.3-0.2,0.6-0.3,0.9-0.5c0.2-0.1,0.3-0.2,0.5-0.3c0.3-0.2,0.7-0.4,1-0.5c0.1-0.1,0.3-0.1,0.4-0.2
		c0.5-0.3,0.9-0.5,1.4-0.8c0.1,0,0.1-0.1,0.2-0.1c0.4-0.2,0.8-0.4,1.1-0.7c0.1-0.1,0.3-0.2,0.4-0.3c0.3-0.2,0.6-0.4,0.9-0.6
		c0.2-0.1,0.3-0.2,0.5-0.3c0.3-0.2,0.6-0.4,0.8-0.5s0.3-0.2,0.5-0.3c0.3-0.2,0.6-0.4,0.9-0.6c0.1-0.1,0.3-0.2,0.4-0.3
		c0.4-0.2,0.7-0.5,1.1-0.7c0.1,0,0.1-0.1,0.2-0.1c0.4-0.3,0.8-0.6,1.3-0.9c0.1-0.1,0.2-0.1,0.2-0.2c0.3-0.2,0.7-0.5,1-0.7
		c0.1-0.1,0.3-0.2,0.4-0.3c0.3-0.2,0.6-0.4,0.8-0.7c0.1-0.1,0.3-0.2,0.4-0.3c0.3-0.2,0.5-0.4,0.8-0.7c0.1-0.1,0.3-0.2,0.4-0.3
		c0.3-0.2,0.6-0.5,0.9-0.7c0.1-0.1,0.2-0.2,0.3-0.3c0.8-0.7,1.5-1.4,2.3-2.1c0.1-0.1,0.2-0.1,0.2-0.2c0.3-0.3,0.6-0.6,0.9-0.8
		c0.1-0.1,0.2-0.2,0.3-0.3c0.3-0.3,0.5-0.5,0.8-0.8c0.1-0.1,0.2-0.2,0.3-0.3c0.3-0.3,0.5-0.5,0.8-0.8c0.1-0.1,0.2-0.2,0.3-0.3
		c0.3-0.3,0.6-0.6,0.8-0.9c0.1-0.1,0.1-0.1,0.2-0.2c0.7-0.8,1.3-1.5,2-2.3c0.1-0.1,0.1-0.2,0.2-0.3c0.2-0.3,0.5-0.6,0.7-0.9
		c0.1-0.1,0.2-0.2,0.3-0.3c0.2-0.3,0.5-0.6,0.7-0.9c0.1-0.1,0.2-0.2,0.3-0.3c0.2-0.3,0.5-0.6,0.7-0.9c0.1-0.1,0.1-0.2,0.2-0.3
		c0.3-0.4,0.5-0.7,0.8-1.1c0,0,0-0.1,0.1-0.1c0.3-0.4,0.6-0.8,0.9-1.3c0,0,0,0,0-0.1c0.3-0.4,0.5-0.8,0.8-1.2
		c0.1-0.1,0.1-0.2,0.2-0.3c0.2-0.3,0.4-0.6,0.6-0.9c0.1-0.1,0.2-0.2,0.2-0.4c0.2-0.3,0.4-0.6,0.6-0.9c0-0.1,0.1-0.1,0.1-0.2l0,0
		C242.1,172.3,245.8,161,246.9,149.3z"/>
	<path class="st1" d="M246.9,149.3c-0.9,2.7-1.9,5.3-3,7.8c-3.9,7.4-10.3,13.3-18,16.5c-17.9,7.6-38.4-0.3-46-17.5
		c-1-2.6-1.8-5.3-2.3-8.1c-0.2-1.1-0.3-2.1-0.5-3.2c0-0.7-0.1-1.3-0.1-2c0,0.1-0.1,0.2-0.1,0.2c-0.8-12.1,6.2-26.6,13.9-35.5
		c-4,0.9-31.8,2.5-31.8,2.5s-28.2,35.2-15.8,78.8c3.5,12.3,11.7,28.3,19.1,33.6c0.6,0,1.3,0,1.9,0h0.2c0.3,0,0.6,0,0.9,0h0.3
		c0.3,0,0.7,0,1,0h0.2c0.8,0,1.5,0,2.3-0.1c0.1,0,0.2,0,0.3,0c0.3,0,0.6,0,0.9-0.1c0.1,0,0.2,0,0.3,0c0.3,0,0.6,0,0.9-0.1
		c0.1,0,0.1,0,0.2,0c0.8-0.1,1.5-0.1,2.3-0.2c0.1,0,0.2,0,0.3,0c0.3,0,0.6-0.1,0.9-0.1c0.1,0,0.2,0,0.3,0c0.3,0,0.6-0.1,0.9-0.1
		c0.1,0,0.2,0,0.2,0c0.4-0.1,0.8-0.1,1.2-0.2l0,0c0.4-0.1,0.7-0.1,1.1-0.2c0.1,0,0.2,0,0.3-0.1c0.3,0,0.6-0.1,0.8-0.1
		c0.1,0,0.2,0,0.3-0.1c0.3-0.1,0.6-0.1,0.9-0.2c0.1,0,0.2,0,0.3-0.1c0.4-0.1,0.8-0.2,1.1-0.2l0,0c0.4-0.1,0.7-0.2,1.1-0.2
		c0.1,0,0.2,0,0.3-0.1c0.3-0.1,0.5-0.1,0.8-0.2c0.1,0,0.2-0.1,0.4-0.1c0.3-0.1,0.6-0.1,0.8-0.2c0.1,0,0.2-0.1,0.3-0.1
		c0.4-0.1,0.8-0.2,1.1-0.3l0,0c0.4-0.1,0.7-0.2,1.1-0.3c0.1,0,0.2-0.1,0.3-0.1c0.3-0.1,0.5-0.2,0.8-0.2c0.1,0,0.3-0.1,0.4-0.1
		c0.3-0.1,0.5-0.2,0.8-0.3c0.1,0,0.2-0.1,0.3-0.1c0.4-0.1,0.7-0.3,1.1-0.4l0,0c0.4-0.1,0.7-0.3,1.1-0.4c0.1,0,0.2-0.1,0.3-0.1
		c0.3-0.1,0.5-0.2,0.8-0.3c0.1,0,0.3-0.1,0.4-0.1c0.3-0.1,0.5-0.2,0.8-0.3c0.1,0,0.2-0.1,0.3-0.1c0.4-0.1,0.7-0.3,1.1-0.4
		c0.5-0.2,1-0.4,1.5-0.6c0.2-0.1,0.3-0.1,0.5-0.2c0.3-0.1,0.7-0.3,1-0.5c0.2-0.1,0.4-0.2,0.5-0.3c0.3-0.1,0.6-0.3,0.9-0.4
		c0.2-0.1,0.4-0.2,0.5-0.3c0.3-0.2,0.6-0.3,0.9-0.5c0.2-0.1,0.3-0.2,0.5-0.3c0.3-0.2,0.7-0.4,1-0.5c0.1-0.1,0.3-0.1,0.4-0.2
		c0.5-0.3,0.9-0.5,1.4-0.8c0.1,0,0.1-0.1,0.2-0.1c0.4-0.2,0.8-0.4,1.1-0.7c0.1-0.1,0.3-0.2,0.4-0.3c0.3-0.2,0.6-0.4,0.9-0.6
		c0.2-0.1,0.3-0.2,0.5-0.3c0.3-0.2,0.6-0.4,0.8-0.5s0.3-0.2,0.5-0.3c0.3-0.2,0.6-0.4,0.9-0.6c0.1-0.1,0.3-0.2,0.4-0.3
		c0.4-0.2,0.7-0.5,1.1-0.7c0.1,0,0.1-0.1,0.2-0.1c0.4-0.3,0.8-0.6,1.3-0.9c0.1-0.1,0.2-0.1,0.2-0.2c0.3-0.2,0.7-0.5,1-0.7
		c0.1-0.1,0.3-0.2,0.4-0.3c0.3-0.2,0.6-0.4,0.8-0.7c0.1-0.1,0.3-0.2,0.4-0.3c0.3-0.2,0.5-0.4,0.8-0.7c0.1-0.1,0.3-0.2,0.4-0.3
		c0.3-0.2,0.6-0.5,0.9-0.7c0.1-0.1,0.2-0.2,0.3-0.3c0.8-0.7,1.5-1.4,2.3-2.1c0.1-0.1,0.2-0.1,0.2-0.2c0.3-0.3,0.6-0.6,0.9-0.8
		c0.1-0.1,0.2-0.2,0.3-0.3c0.3-0.3,0.5-0.5,0.8-0.8c0.1-0.1,0.2-0.2,0.3-0.3c0.3-0.3,0.5-0.5,0.8-0.8c0.1-0.1,0.2-0.2,0.3-0.3
		c0.3-0.3,0.6-0.6,0.8-0.9c0.1-0.1,0.1-0.1,0.2-0.2c0.7-0.8,1.3-1.5,2-2.3c0.1-0.1,0.1-0.2,0.2-0.3c0.2-0.3,0.5-0.6,0.7-0.9
		c0.1-0.1,0.2-0.2,0.3-0.3c0.2-0.3,0.5-0.6,0.7-0.9c0.1-0.1,0.2-0.2,0.3-0.3c0.2-0.3,0.5-0.6,0.7-0.9c0.1-0.1,0.1-0.2,0.2-0.3
		c0.3-0.4,0.5-0.7,0.8-1.1c0,0,0-0.1,0.1-0.1c0.3-0.4,0.6-0.8,0.9-1.3c0,0,0,0,0-0.1c0.3-0.4,0.5-0.8,0.8-1.2
		c0.1-0.1,0.1-0.2,0.2-0.3c0.2-0.3,0.4-0.6,0.6-0.9c0.1-0.1,0.2-0.2,0.2-0.4c0.2-0.3,0.4-0.6,0.6-0.9c0-0.1,0.1-0.1,0.1-0.2l0,0
		C242.1,172.3,245.8,161,246.9,149.3z"/>
	<path class="st2" d="M243.9,157.1c-3.9,7.4-10.3,13.3-18,16.5c-17.9,7.6-38.4-0.3-46-17.5c-1-2.6-1.8-5.3-2.3-8.1
		c-0.2-1.1-0.3-2.1-0.5-3.2c0-0.7-0.1-1.3-0.1-2c0,0.1-0.1,0.2-0.1,0.2c-0.8-11.3,5.3-24.8,12.4-33.8
		c-20.6,11.7-27.9,37.9-16.2,58.5s37.9,27.9,58.5,16.2c1.9-1.1,3.8-2.3,5.5-3.7c5.3-9.6,8.6-20.1,9.7-31
		C246,152,245,154.6,243.9,157.1z"/>
	<path class="st3" d="M235.4,190.4c-0.3,0.3-0.6,0.6-0.9,0.9c-24.9,16-58.1,8.8-74.2-16.1c-4.3-6.7-7.1-14.2-8.1-22.1
		c-0.3-2.3-0.4-4.6-0.4-7c0-13.6,5.2-26.7,14.5-36.7c-6.9,0.5-13.3,1.2-15.6,1.7c-11.2,2.7-21.1,8.5-29.6,16.5
		c-15.4,14.5-26,35.7-31,57.6c-3.8,16.8-0.3,41.4,6,51.9c0.8,0.4,1.5,0.7,2.3,1.1c0.1,0,0.2,0.1,0.3,0.1c0.4,0.2,0.7,0.3,1.1,0.5
		c0.1,0,0.2,0.1,0.3,0.1c0.4,0.2,0.8,0.3,1.2,0.5c0.1,0,0.1,0.1,0.2,0.1c0.9,0.4,1.9,0.8,2.8,1.1c0.1,0,0.2,0.1,0.3,0.1
		c0.4,0.1,0.7,0.3,1.1,0.4c0.1,0,0.2,0.1,0.4,0.1c0.4,0.1,0.8,0.3,1.2,0.4c0.1,0,0.2,0.1,0.2,0.1c1,0.3,1.9,0.6,2.9,0.9
		c0.1,0,0.2,0.1,0.4,0.1c0.4,0.1,0.7,0.2,1.1,0.3c0.1,0,0.3,0.1,0.4,0.1c0.4,0.1,0.8,0.2,1.2,0.3c0.1,0,0.2,0.1,0.3,0.1
		c0.5,0.1,1,0.3,1.5,0.4l0,0c0.5,0.1,1,0.2,1.4,0.4c0.1,0,0.3,0.1,0.4,0.1c0.4,0.1,0.7,0.2,1.1,0.3c0.1,0,0.3,0.1,0.4,0.1
		c0.4,0.1,0.8,0.2,1.1,0.2c0.1,0,0.2,0.1,0.4,0.1c0.5,0.1,1,0.2,1.5,0.3l0,0c0.5,0.1,1,0.2,1.4,0.3c0.1,0,0.3,0,0.4,0.1
		c0.4,0.1,0.7,0.1,1.1,0.2c0.2,0,0.3,0.1,0.5,0.1c0.4,0.1,0.7,0.1,1.1,0.2c0.1,0,0.3,0,0.4,0.1c0.5,0.1,1,0.1,1.5,0.2c0,0,0,0,0.1,0
		c0.5,0.1,1,0.1,1.5,0.2c0.2,0,0.3,0,0.5,0.1c0.4,0,0.7,0.1,1.1,0.1c0.2,0,0.3,0,0.5,0.1c0.4,0,0.7,0.1,1.1,0.1c0.2,0,0.3,0,0.5,0
		c0.5,0,1,0.1,1.5,0.1h0.1c0.5,0,1,0.1,1.5,0.1c0.2,0,0.3,0,0.5,0c0.4,0,0.7,0,1.1,0c0.2,0,0.4,0,0.5,0c0.4,0,0.7,0,1.1,0
		c0.2,0,0.3,0,0.5,0c0.5,0,1,0,1.6,0c0.7,0,1.4,0,2.1,0c0.2,0,0.4,0,0.7,0c0.5,0,0.9,0,1.4,0c0.3,0,0.5,0,0.8,0c0.4,0,0.9,0,1.3-0.1
		c0.3,0,0.5,0,0.8,0c0.4,0,0.9-0.1,1.3-0.1c0.3,0,0.5,0,0.7-0.1c0.5,0,1-0.1,1.5-0.1c0.2,0,0.4,0,0.6-0.1c0.7-0.1,1.4-0.2,2-0.2
		c0.1,0,0.2,0,0.3,0c0.6-0.1,1.1-0.2,1.7-0.2c0.2,0,0.4-0.1,0.7-0.1c0.5-0.1,0.9-0.1,1.4-0.2c0.2,0,0.5-0.1,0.7-0.1
		c0.4-0.1,0.9-0.2,1.3-0.2c0.2,0,0.5-0.1,0.7-0.1c0.5-0.1,0.9-0.2,1.3-0.3c0.2,0,0.4-0.1,0.6-0.1c0.6-0.1,1.1-0.2,1.6-0.4
		c0.1,0,0.2,0,0.3-0.1c0.7-0.2,1.3-0.3,2-0.5c0.1,0,0.3-0.1,0.4-0.1c0.5-0.1,1-0.3,1.6-0.4c0.2-0.1,0.4-0.1,0.6-0.2
		c0.4-0.1,0.9-0.3,1.3-0.4c0.2-0.1,0.4-0.1,0.7-0.2c0.4-0.1,0.9-0.3,1.3-0.4c0.2-0.1,0.4-0.1,0.6-0.2c0.5-0.2,0.9-0.3,1.4-0.5
		c0.2-0.1,0.3-0.1,0.5-0.2c1.3-0.4,2.5-0.9,3.8-1.4c0.1,0,0.3-0.1,0.4-0.2c0.5-0.2,1-0.4,1.5-0.6c0.2-0.1,0.4-0.2,0.5-0.2
		c0.4-0.2,0.9-0.4,1.3-0.5c0.2-0.1,0.4-0.2,0.6-0.3c0.4-0.2,0.9-0.4,1.3-0.6c0.2-0.1,0.3-0.2,0.5-0.2c0.5-0.2,1-0.5,1.5-0.7
		c0.1-0.1,0.2-0.1,0.3-0.1c1.2-0.6,2.4-1.2,3.6-1.8c0.1-0.1,0.3-0.1,0.4-0.2c0.5-0.2,0.9-0.5,1.4-0.7c0.2-0.1,0.3-0.2,0.5-0.3
		c0.4-0.2,0.8-0.5,1.3-0.7c0.2-0.1,0.3-0.2,0.5-0.3c0.4-0.3,0.9-0.5,1.3-0.8c0.1-0.1,0.3-0.2,0.4-0.3c0.5-0.3,1-0.6,1.5-1l0.1-0.1
		c0.6-0.4,1.2-0.7,1.7-1.1c0,0,0,0,0.1,0c0.5-0.4,1-0.7,1.5-1.1c0.1-0.1,0.3-0.2,0.4-0.3c0.4-0.3,0.8-0.6,1.2-0.9
		c0.2-0.1,0.3-0.2,0.5-0.3c0.4-0.3,0.8-0.6,1.1-0.8c0.1-0.1,0.2-0.1,0.3-0.2l0,0C217.9,216.5,228.1,204.3,235.4,190.4z"/>
	<path class="st4" d="M235.4,190.4c-0.3,0.3-0.6,0.6-0.9,0.9c-24.9,16-58.1,8.8-74.2-16.1c-4.3-6.7-7.1-14.2-8.1-22.1
		c-0.3-2.3-0.4-4.6-0.4-7c0-13.6,5.2-26.7,14.5-36.7c-6.9,0.5-13.3,1.2-15.6,1.7c-11.2,2.7-21.1,8.5-29.6,16.5
		c-15.4,14.5-26,35.7-31,57.6c-3.8,16.8-0.3,41.4,6,51.9c0.8,0.4,1.5,0.7,2.3,1.1c0.1,0,0.2,0.1,0.3,0.1c0.4,0.2,0.7,0.3,1.1,0.5
		c0.1,0,0.2,0.1,0.3,0.1c0.4,0.2,0.8,0.3,1.2,0.5c0.1,0,0.1,0.1,0.2,0.1c0.9,0.4,1.9,0.8,2.8,1.1c0.1,0,0.2,0.1,0.3,0.1
		c0.4,0.1,0.7,0.3,1.1,0.4c0.1,0,0.2,0.1,0.4,0.1c0.4,0.1,0.8,0.3,1.2,0.4c0.1,0,0.2,0.1,0.2,0.1c1,0.3,1.9,0.6,2.9,0.9
		c0.1,0,0.2,0.1,0.4,0.1c0.4,0.1,0.7,0.2,1.1,0.3c0.1,0,0.3,0.1,0.4,0.1c0.4,0.1,0.8,0.2,1.2,0.3c0.1,0,0.2,0.1,0.3,0.1
		c0.5,0.1,1,0.3,1.5,0.4l0,0c0.5,0.1,1,0.2,1.4,0.4c0.1,0,0.3,0.1,0.4,0.1c0.4,0.1,0.7,0.2,1.1,0.3c0.1,0,0.3,0.1,0.4,0.1
		c0.4,0.1,0.8,0.2,1.1,0.2c0.1,0,0.2,0.1,0.4,0.1c0.5,0.1,1,0.2,1.5,0.3l0,0c0.5,0.1,1,0.2,1.4,0.3c0.1,0,0.3,0,0.4,0.1
		c0.4,0.1,0.7,0.1,1.1,0.2c0.2,0,0.3,0.1,0.5,0.1c0.4,0.1,0.7,0.1,1.1,0.2c0.1,0,0.3,0,0.4,0.1c0.5,0.1,1,0.1,1.5,0.2c0,0,0,0,0.1,0
		c0.5,0.1,1,0.1,1.5,0.2c0.2,0,0.3,0,0.5,0.1c0.4,0,0.7,0.1,1.1,0.1c0.2,0,0.3,0,0.5,0.1c0.4,0,0.7,0.1,1.1,0.1c0.2,0,0.3,0,0.5,0
		c0.5,0,1,0.1,1.5,0.1h0.1c0.5,0,1,0.1,1.5,0.1c0.2,0,0.3,0,0.5,0c0.4,0,0.7,0,1.1,0c0.2,0,0.4,0,0.5,0c0.4,0,0.7,0,1.1,0
		c0.2,0,0.3,0,0.5,0c0.5,0,1,0,1.6,0c0.7,0,1.4,0,2.1,0c0.2,0,0.4,0,0.7,0c0.5,0,0.9,0,1.4,0c0.3,0,0.5,0,0.8,0c0.4,0,0.9,0,1.3-0.1
		c0.3,0,0.5,0,0.8,0c0.4,0,0.9-0.1,1.3-0.1c0.3,0,0.5,0,0.7-0.1c0.5,0,1-0.1,1.5-0.1c0.2,0,0.4,0,0.6-0.1c0.7-0.1,1.4-0.2,2-0.2
		c0.1,0,0.2,0,0.3,0c0.6-0.1,1.1-0.2,1.7-0.2c0.2,0,0.4-0.1,0.7-0.1c0.5-0.1,0.9-0.1,1.4-0.2c0.2,0,0.5-0.1,0.7-0.1
		c0.4-0.1,0.9-0.2,1.3-0.2c0.2,0,0.5-0.1,0.7-0.1c0.5-0.1,0.9-0.2,1.3-0.3c0.2,0,0.4-0.1,0.6-0.1c0.6-0.1,1.1-0.2,1.6-0.4
		c0.1,0,0.2,0,0.3-0.1c0.7-0.2,1.3-0.3,2-0.5c0.1,0,0.3-0.1,0.4-0.1c0.5-0.1,1-0.3,1.6-0.4c0.2-0.1,0.4-0.1,0.6-0.2
		c0.4-0.1,0.9-0.3,1.3-0.4c0.2-0.1,0.4-0.1,0.7-0.2c0.4-0.1,0.9-0.3,1.3-0.4c0.2-0.1,0.4-0.1,0.6-0.2c0.5-0.2,0.9-0.3,1.4-0.5
		c0.2-0.1,0.3-0.1,0.5-0.2c1.3-0.4,2.5-0.9,3.8-1.4c0.1,0,0.3-0.1,0.4-0.2c0.5-0.2,1-0.4,1.5-0.6c0.2-0.1,0.4-0.2,0.5-0.2
		c0.4-0.2,0.9-0.4,1.3-0.5c0.2-0.1,0.4-0.2,0.6-0.3c0.4-0.2,0.9-0.4,1.3-0.6c0.2-0.1,0.3-0.2,0.5-0.2c0.5-0.2,1-0.5,1.5-0.7
		c0.1-0.1,0.2-0.1,0.3-0.1c1.2-0.6,2.4-1.2,3.6-1.8c0.1-0.1,0.3-0.1,0.4-0.2c0.5-0.2,0.9-0.5,1.4-0.7c0.2-0.1,0.3-0.2,0.5-0.3
		c0.4-0.2,0.8-0.5,1.3-0.7c0.2-0.1,0.3-0.2,0.5-0.3c0.4-0.3,0.9-0.5,1.3-0.8c0.1-0.1,0.3-0.2,0.4-0.3c0.5-0.3,1-0.6,1.5-1l0.1-0.1
		c0.6-0.4,1.2-0.7,1.7-1.1c0,0,0,0,0.1,0c0.5-0.4,1-0.7,1.5-1.1c0.1-0.1,0.3-0.2,0.4-0.3c0.4-0.3,0.8-0.6,1.2-0.9
		c0.2-0.1,0.3-0.2,0.5-0.3c0.4-0.3,0.8-0.6,1.1-0.8c0.1-0.1,0.2-0.1,0.3-0.2l0,0C217.9,216.5,228.1,204.3,235.4,190.4z"/>
	<path class="st5" d="M234.5,191.3c-24.9,16-58.1,8.8-74.2-16.1c-4.3-6.7-7.1-14.2-8.1-22.1c-0.3-2.3-0.4-4.6-0.4-7
		c0-13.6,5.2-26.7,14.5-36.7c-1.7,0.1-3.4,0.3-5.1,0.4c-31.4,21.1-39.8,63.6-18.7,95c11.2,16.7,29.2,27.6,49.2,29.9
		c0.5-0.2,0.9-0.5,1.4-0.7c0.2-0.1,0.3-0.2,0.5-0.3c0.4-0.2,0.8-0.5,1.3-0.7c0.2-0.1,0.3-0.2,0.5-0.3c0.4-0.3,0.9-0.5,1.3-0.8
		c0.1-0.1,0.3-0.2,0.4-0.3c0.5-0.3,1-0.6,1.5-1l0.1-0.1c0.6-0.4,1.2-0.7,1.7-1.1c0,0,0,0,0.1,0c0.5-0.4,1-0.7,1.5-1.1
		c0.1-0.1,0.3-0.2,0.4-0.3c0.4-0.3,0.8-0.6,1.2-0.9c0.2-0.1,0.3-0.2,0.5-0.3c0.4-0.3,0.8-0.6,1.1-0.8c0.1-0.1,0.2-0.1,0.3-0.2l0,0
		c12.5-9.5,22.7-21.6,30-35.5C235.1,190.8,234.8,191.1,234.5,191.3z"/>
	
		<linearGradient id="SVGID_1_" gradientUnits="userSpaceOnUse" x1="104.3868" y1="-529.7258" x2="203.3155" y2="-567.9111" gradientTransform="matrix(1 0 0 -1 -18.3977 -367.7873)">
		<stop  offset="0" style="stop-color:#FAFBFB;stop-opacity:0"/>
		<stop  offset="0.1118" style="stop-color:#D7E7F2;stop-opacity:0.1904"/>
		<stop  offset="0.274" style="stop-color:#ABCCE7;stop-opacity:0.4348"/>
		<stop  offset="0.4344" style="stop-color:#86B7DE;stop-opacity:0.6379"/>
		<stop  offset="0.5899" style="stop-color:#69A6D6;stop-opacity:0.7958"/>
		<stop  offset="0.7388" style="stop-color:#559AD1;stop-opacity:0.9086"/>
		<stop  offset="0.8787" style="stop-color:#4892CE;stop-opacity:0.9767"/>
		<stop  offset="1" style="stop-color:#4490CD"/>
	</linearGradient>
	<path class="st6" d="M100.2,216.9c0-39.2,16-76.8,44.4-103.9c-8.8,3.2-16.8,8.2-23.6,14.7c-15.3,14.4-25.9,35.6-30.9,57.5
		c-3.8,16.8-0.3,41.4,6,51.9c0.8,0.4,1.5,0.7,2.3,1.1c0.1,0,0.2,0.1,0.3,0.1c0.4,0.2,0.7,0.3,1.1,0.5c0.1,0,0.2,0.1,0.3,0.1
		c0.4,0.2,0.8,0.3,1.2,0.5c0.1,0,0.1,0.1,0.2,0.1c0.2,0.1,0.3,0.1,0.5,0.2C100.8,232.2,100.2,224.5,100.2,216.9z"/>
	<path class="st7" d="M219,110.1c9.5,2.6,14.6,7.1,15.1,11c5.7-7.1,7.3-20.3-1.1-30.3c-12.5-15-51.5-14.4-51.5-14.4
		s-11.2,3.5-24.1,15.7c-15.7,14.9-28.5,29.7-28.5,29.7C143.3,109.7,207.1,106.9,219,110.1z"/>
	
		<linearGradient id="SVGID_2_" gradientUnits="userSpaceOnUse" x1="194.5781" y1="-470.9829" x2="255.0581" y2="-460.3186" gradientTransform="matrix(1 0 0 -1 -18.3977 -367.7873)">
		<stop  offset="0" style="stop-color:#FFFFFF;stop-opacity:0"/>
		<stop  offset="8.797000e-02" style="stop-color:#FFFFFF;stop-opacity:4.749000e-02"/>
		<stop  offset="0.2476" style="stop-color:#FFFFFF;stop-opacity:0.1738"/>
		<stop  offset="0.4608" style="stop-color:#FFFFFF;stop-opacity:0.3786"/>
		<stop  offset="0.7197" style="stop-color:#FFFFFF;stop-opacity:0.6622"/>
		<stop  offset="1" style="stop-color:#FFFFFF"/>
	</linearGradient>
	<path class="st8" d="M229.5,97c5,5.9,7.3,13.7,6.3,21.5c4.8-8.9,3.7-19.9-2.9-27.6c-12.5-15-51.5-14.4-51.5-14.4
		c-3.2,1.1-6.3,2.6-9.3,4.4C178.7,80.8,216.6,81.5,229.5,97z"/>
	
		<linearGradient id="SVGID_3_" gradientUnits="userSpaceOnUse" x1="233.3334" y1="-508.0161" x2="180.3889" y2="-455.0717" gradientTransform="matrix(1 0 0 -1 -18.3977 -367.7873)">
		<stop  offset="0.1774" style="stop-color:#FFFFFF;stop-opacity:0"/>
		<stop  offset="1" style="stop-color:#F6921E"/>
	</linearGradient>
	<path class="st9" d="M219,110.1c9.5,2.6,14.6,7.1,15.1,11c5.7-7.1,7.3-20.3-1.1-30.3c-12.5-15-51.5-14.4-51.5-14.4
		s-11.2,3.5-24.1,15.7c-15.7,14.9-28.5,29.7-28.5,29.7C143.3,109.7,207.1,106.9,219,110.1z"/>
	<path class="st10" d="M221.7,106.6c-16.5-4.9-59.1-3.5-83.4,3.8c-3.3,3.6-9.3,11.4-9.3,11.4c14.4-12.1,78.1-14.9,90-11.7
		c9.5,2.6,14.6,7.1,15.1,11C235,119.9,234.1,110.3,221.7,106.6z"/>
	<path class="st11" d="M140.2,113.1c0.3-0.3,0.7-0.6,1-0.9l0.1-0.1c0.3-0.3,0.6-0.6,0.9-0.9l0.1-0.1c0.3-0.3,0.6-0.6,1-0.9
		c0,0,0,0,0.1-0.1c1.4-1.3,2.9-2.5,4.3-3.7c0,0,0.1,0,0.1-0.1c0.3-0.3,0.7-0.5,1-0.8c0.1,0,0.1-0.1,0.2-0.1c0.3-0.3,0.6-0.5,0.9-0.8
		c0.1,0,0.1-0.1,0.2-0.1c0.3-0.3,0.7-0.5,1-0.8l0.1-0.1c1.1-0.9,2.3-1.7,3.4-2.6c0,0,0.1,0,0.1-0.1c0.3-0.3,0.7-0.5,1-0.7
		c0.1-0.1,0.1-0.1,0.2-0.2c0.3-0.2,0.6-0.4,0.9-0.6c0.1-0.1,0.2-0.1,0.3-0.2c0.3-0.2,0.6-0.4,0.9-0.6c0.1-0.1,0.2-0.1,0.3-0.2
		c0.3-0.2,0.6-0.4,0.9-0.6c0.1-0.1,0.1-0.1,0.2-0.1c0.4-0.3,0.8-0.5,1.1-0.8l0,0c0.8-0.5,1.6-1,2.4-1.5c0.1-0.1,0.2-0.1,0.3-0.2
		c0.3-0.2,0.6-0.4,0.9-0.5c0.1-0.1,0.2-0.1,0.4-0.2c0.3-0.2,0.5-0.3,0.8-0.5c0.1-0.1,0.3-0.2,0.4-0.2c0.3-0.2,0.5-0.3,0.8-0.5
		c0.1-0.1,0.3-0.2,0.4-0.2c0.3-0.2,0.6-0.3,0.9-0.5c0.1-0.1,0.2-0.1,0.3-0.2c0.4-0.2,0.7-0.4,1.1-0.6c0,0,0.1,0,0.1-0.1
		c0.4-0.2,0.8-0.4,1.2-0.7c0.1-0.1,0.2-0.1,0.3-0.2c0.3-0.2,0.6-0.3,0.9-0.5c0.1-0.1,0.3-0.2,0.4-0.2c0.3-0.1,0.5-0.3,0.8-0.4
		c0.2-0.1,0.3-0.2,0.5-0.2c0.2-0.1,0.5-0.3,0.8-0.4c0.2-0.1,0.3-0.2,0.5-0.2c0.3-0.1,0.5-0.3,0.8-0.4c0.2-0.1,0.3-0.2,0.5-0.2
		c0.3-0.1,0.6-0.3,0.8-0.4c0.1-0.1,0.3-0.1,0.4-0.2c0.4-0.2,0.8-0.4,1.2-0.6C133.2,68.3,81,82.1,51,120.8
		c-5.6,7.2-19.5,30.6-4.8,65.7c0.7-6.6,2.8-13.1,6.3-18.8c2.1-3.3,4.7-6.4,7.6-9.1c-9.2,31.9,6.6,65.6,37,78.9l0,0l0,0l0,0
		C90.4,191.4,106.6,145.1,140.2,113.1L140.2,113.1z"/>
	<path class="st12" d="M140.2,113.1c0.3-0.3,0.7-0.6,1-0.9l0.1-0.1c0.3-0.3,0.6-0.6,0.9-0.9l0.1-0.1c0.3-0.3,0.6-0.6,1-0.9
		c0,0,0,0,0.1-0.1c1.4-1.3,2.9-2.5,4.3-3.7c0,0,0.1,0,0.1-0.1c0.3-0.3,0.7-0.5,1-0.8c0.1,0,0.1-0.1,0.2-0.1c0.3-0.3,0.6-0.5,0.9-0.8
		c0.1,0,0.1-0.1,0.2-0.1c0.3-0.3,0.7-0.5,1-0.8l0.1-0.1c1.1-0.9,2.3-1.7,3.4-2.6c0,0,0.1,0,0.1-0.1c0.3-0.3,0.7-0.5,1-0.7
		c0.1-0.1,0.1-0.1,0.2-0.2c0.3-0.2,0.6-0.4,0.9-0.6c0.1-0.1,0.2-0.1,0.3-0.2c0.3-0.2,0.6-0.4,0.9-0.6c0.1-0.1,0.2-0.1,0.3-0.2
		c0.3-0.2,0.6-0.4,0.9-0.6c0.1-0.1,0.1-0.1,0.2-0.1c0.4-0.3,0.8-0.5,1.1-0.8l0,0c0.8-0.5,1.6-1,2.4-1.5c0.1-0.1,0.2-0.1,0.3-0.2
		c0.3-0.2,0.6-0.4,0.9-0.5c0.1-0.1,0.2-0.1,0.4-0.2c0.3-0.2,0.5-0.3,0.8-0.5c0.1-0.1,0.3-0.2,0.4-0.2c0.3-0.2,0.5-0.3,0.8-0.5
		c0.1-0.1,0.3-0.2,0.4-0.2c0.3-0.2,0.6-0.3,0.9-0.5c0.1-0.1,0.2-0.1,0.3-0.2c0.4-0.2,0.7-0.4,1.1-0.6c0,0,0.1,0,0.1-0.1
		c0.4-0.2,0.8-0.4,1.2-0.7c0.1-0.1,0.2-0.1,0.3-0.2c0.3-0.2,0.6-0.3,0.9-0.5c0.1-0.1,0.3-0.2,0.4-0.2c0.3-0.1,0.5-0.3,0.8-0.4
		c0.2-0.1,0.3-0.2,0.5-0.2c0.2-0.1,0.5-0.3,0.8-0.4c0.2-0.1,0.3-0.2,0.5-0.2c0.3-0.1,0.5-0.3,0.8-0.4c0.2-0.1,0.3-0.2,0.5-0.2
		c0.3-0.1,0.6-0.3,0.8-0.4c0.1-0.1,0.3-0.1,0.4-0.2c0.4-0.2,0.8-0.4,1.2-0.6C133.2,68.3,81,82.1,51,120.8
		c-5.6,7.2-19.5,30.6-4.8,65.7c0.7-6.6,2.8-13.1,6.3-18.8c2.1-3.3,4.7-6.4,7.6-9.1c-9.2,31.9,6.6,65.6,37,78.9l0,0l0,0l0,0
		C90.4,191.4,106.6,145.1,140.2,113.1L140.2,113.1z"/>
	
		<linearGradient id="SVGID_4_" gradientUnits="userSpaceOnUse" x1="143.2898" y1="-472.0145" x2="161.0885" y2="-609.299" gradientTransform="matrix(1 0 0 -1 -18.3977 -367.7873)">
		<stop  offset="0" style="stop-color:#72C3ED;stop-opacity:0"/>
		<stop  offset="3.354000e-02" style="stop-color:#6DBEEA;stop-opacity:0.1026"/>
		<stop  offset="0.1111" style="stop-color:#64B3E3;stop-opacity:0.3118"/>
		<stop  offset="0.1949" style="stop-color:#5BAADD;stop-opacity:0.4973"/>
		<stop  offset="0.284" style="stop-color:#54A2D8;stop-opacity:0.6535"/>
		<stop  offset="0.3799" style="stop-color:#4E9BD4;stop-opacity:0.7804"/>
		<stop  offset="0.4853" style="stop-color:#4A96D1;stop-opacity:0.8784"/>
		<stop  offset="0.6049" style="stop-color:#4693CF;stop-opacity:0.9475"/>
		<stop  offset="0.7511" style="stop-color:#4591CD;stop-opacity:0.9879"/>
		<stop  offset="1" style="stop-color:#4490CD"/>
	</linearGradient>
	<path class="st13" d="M80,181.7c0,19.8,5.7,39.2,16.6,55.7c0.1,0,0.1,0.1,0.2,0.1l0,0l0,0l0,0c-6.4-46,9.8-92.3,43.5-124.4
		c0.3-0.3,0.7-0.6,1-0.9l0.1-0.1c0.3-0.3,0.6-0.6,0.9-0.9l0.1-0.1c0.3-0.3,0.6-0.6,1-0.9c0,0,0,0,0.1-0.1c1.4-1.3,2.9-2.5,4.3-3.7
		c0,0,0.1,0,0.1-0.1c0.3-0.3,0.7-0.5,1-0.8c0.1,0,0.1-0.1,0.2-0.1c0.3-0.3,0.6-0.5,0.9-0.8c0.1,0,0.1-0.1,0.2-0.1
		c0.3-0.3,0.7-0.5,1-0.8l0.1-0.1c1.1-0.9,2.3-1.7,3.4-2.6c0,0,0.1,0,0.1-0.1c0.3-0.3,0.7-0.5,1-0.7c0.1-0.1,0.1-0.1,0.2-0.2
		c0.3-0.2,0.6-0.4,0.9-0.6c0.1-0.1,0.2-0.1,0.3-0.2c0.3-0.2,0.6-0.4,0.9-0.6c0.1-0.1,0.2-0.1,0.3-0.2c0.3-0.2,0.6-0.4,0.9-0.6
		c0.1-0.1,0.1-0.1,0.2-0.1c0.4-0.3,0.8-0.5,1.1-0.8l0,0c0.8-0.5,1.6-1,2.4-1.5c0.1-0.1,0.2-0.1,0.3-0.2c0.3-0.2,0.6-0.4,0.9-0.5
		c0.1-0.1,0.2-0.1,0.4-0.2c0.3-0.2,0.5-0.3,0.8-0.5c0.1-0.1,0.3-0.2,0.4-0.2c0.3-0.2,0.5-0.3,0.8-0.5c0.1-0.1,0.3-0.2,0.4-0.2
		c0.3-0.2,0.6-0.3,0.9-0.5c0.1-0.1,0.2-0.1,0.3-0.2c0.4-0.2,0.7-0.4,1.1-0.6c0,0,0.1,0,0.1-0.1c0.4-0.2,0.8-0.4,1.2-0.7
		c0.1-0.1,0.2-0.1,0.3-0.2c0.3-0.2,0.6-0.3,0.9-0.5c0.1-0.1,0.3-0.2,0.4-0.2c0.3-0.1,0.5-0.3,0.8-0.4c0.2-0.1,0.3-0.2,0.5-0.2
		c0.2-0.1,0.5-0.3,0.8-0.4c0.2-0.1,0.3-0.2,0.5-0.2c0.3-0.1,0.5-0.3,0.8-0.4c0.2-0.1,0.3-0.2,0.5-0.2c0.3-0.1,0.6-0.3,0.8-0.4
		c0.1-0.1,0.3-0.1,0.4-0.2c0.4-0.2,0.8-0.4,1.2-0.6c-5.2-2.2-10.6-3.9-16.1-5.3C114.4,91.2,80,133,80,181.7z"/>
	<path class="st14" d="M138.2,95.2c-50.3,0-91.4,40.2-92.6,90.5c0.1,0.2,0.2,0.5,0.3,0.7c0.7-6.6,2.8-13.1,6.3-18.8
		c2.1-3.3,4.7-6.4,7.6-9.1c-9.2,31.9,6.6,65.6,37,78.9l0,0l0,0l0,0c-6.4-46,9.8-92.3,43.5-124.4c0.3-0.3,0.7-0.6,1-0.9l0.1-0.1
		c0.3-0.3,0.6-0.6,0.9-0.9l0.1-0.1c0.3-0.3,0.6-0.6,1-0.9c0,0,0,0,0.1-0.1c1.4-1.3,2.9-2.5,4.3-3.7c0,0,0.1,0,0.1-0.1
		c0.3-0.3,0.7-0.5,1-0.8c0.1,0,0.1-0.1,0.2-0.1c0.3-0.3,0.6-0.5,0.9-0.8c0.1,0,0.1-0.1,0.2-0.1c0.3-0.3,0.7-0.5,1-0.8l0.1-0.1
		c1.1-0.9,2.3-1.7,3.4-2.6c0,0,0.1,0,0.1-0.1c0.3-0.3,0.7-0.5,1-0.7c0.1-0.1,0.1-0.1,0.2-0.2c0.3-0.2,0.6-0.4,0.9-0.6
		c0.1-0.1,0.2-0.1,0.3-0.2c0.3-0.2,0.6-0.4,0.9-0.6c0.1-0.1,0.2-0.1,0.3-0.2c0.3-0.2,0.6-0.4,0.9-0.6c0.1-0.1,0.1-0.1,0.2-0.1
		l0.1-0.1C152.5,96,145.4,95.2,138.2,95.2z"/>
	<path class="st15" d="M59,114.6C87.4,91.1,125.5,83.1,160.9,93c2.8,0.8,5.5,1.7,8.2,2.6c4.7-2.4,9.5-4.4,14.5-6.2
		c-46.1-22.2-101.5-9.1-132.8,31.3c-4.7,6.3-8,13.5-9.7,21.1C44.3,131.3,50.6,121.8,59,114.6z"/>
	<path class="st16" d="M178.2,43.5c-12.6-5.4-26.7-7.4-41.2-7.4c-23.3,0-46.1,6.9-65.4,19.8l7,1.1c-23.4,17.3-38.5,43.6-41.9,72.5
		c2.2-2.6,5-4.6,8-6c1.5-0.6,3.1-0.9,4.7-1c0.7,0,1.4-0.3,1.8-0.9c21.6-27.9,55.4-43.5,90.6-41.9c0.2,0,0.3-0.1,0.4-0.2
		c11.5-9.4,28-9.6,39.7-0.5c0.1,0.1,0.3,0.2,0.5,0.1C220.1,73.8,195.2,50.8,178.2,43.5z"/>
	<path class="st17" d="M124.3,42.9C106,42.9,88,47.4,71.9,56l6.7,1c-23.4,17.3-38.5,43.6-41.9,72.5c2.2-2.6,5-4.6,8-6
		c1.5-0.6,3.1-0.9,4.7-1c0.7,0,1.4-0.3,1.8-0.9c21.6-27.9,55.4-43.5,90.6-41.9c0.2,0,0.3-0.1,0.4-0.2c11.5-9.4,28-9.6,39.7-0.5
		c0.1,0.1,0.3,0.2,0.5,0.1c9.3-1.3,14.8-3.7,17.5-6.6C179.3,53.4,152.3,42.8,124.3,42.9z"/>
	<path class="st18" d="M143.1,63.4C98,63.3,56.8,88.9,36.7,129.3c0,0.1,0,0.1,0,0.2c2.2-2.6,5-4.6,8-6c1.5-0.6,3.1-0.9,4.7-1
		c0.7,0,1.4-0.3,1.8-0.9c21.6-27.9,55.4-43.5,90.6-41.9c0.2,0,0.3-0.1,0.4-0.2c11.5-9.4,28-9.6,39.7-0.5c0.1,0.1,0.3,0.2,0.5,0.1
		c4.6-0.5,9-1.7,13.2-3.6C179.2,67.5,161.3,63.3,143.1,63.4z"/>
</g>
</svg>
